<?xml version="1.0" encoding="UTF-8" standalone="no"?>
<svg width="177.094mm" height="177.094mm"
 viewBox="0 0 502 502"
 xmlns="http://www.w3.org/2000/svg" xmlns:xlink="http://www.w3.org/1999/xlink"  version="1.2" baseProfile="tiny">
<title>Qt SVG Document</title>
<desc>Generated with Qt</desc>
<defs>
</defs>
<g fill="none" stroke="black" stroke-width="1" fill-rule="evenodd" stroke-linecap="square" stroke-linejoin="bevel" >

<g fill="none" stroke="#000000" stroke-opacity="1" stroke-width="1" stroke-linecap="square" stroke-linejoin="bevel" transform="matrix(1,0,0,1,0,0)"
font-family="Ubuntu" font-size="16" font-weight="400" font-style="normal" 
>
</g>

<g fill="none" stroke="#000000" stroke-opacity="1" stroke-width="1" stroke-linecap="square" stroke-linejoin="bevel" transform="matrix(1.004,0,0,1.004,0,0)"
font-family="Ubuntu" font-size="16" font-weight="400" font-style="normal" 
>
</g>

<g fill="none" stroke="#a0a0a4" stroke-opacity="1" stroke-dasharray="2,4" stroke-dashoffset="0" stroke-width="2" stroke-linecap="round" stroke-linejoin="round" transform="matrix(1.004,0,0,1.004,0,0)"
font-family="Ubuntu" font-size="16" font-weight="400" font-style="normal" 
>
<polyline fill="none" vector-effect="none" points="66.5,426.5 463.5,426.5 " />
</g>

<g fill="none" stroke="#000000" stroke-opacity="1" stroke-width="1" stroke-linecap="round" stroke-linejoin="round" transform="matrix(1.004,0,0,1.004,0,0)"
font-family="Ubuntu" font-size="16" font-weight="400" font-style="normal" 
>
<polyline fill="none" vector-effect="none" points="66.5,426.5 75.5,426.5 " />
<polyline fill="none" vector-effect="none" points="463.5,426.5 454.5,426.5 " />
</g>

<g fill="none" stroke="#000000" stroke-opacity="1" stroke-width="1" stroke-linecap="square" stroke-linejoin="bevel" transform="matrix(1.004,0,0,1.004,0,0)"
font-family="Ubuntu" font-size="16" font-weight="400" font-style="normal" 
>
</g>

<g fill="none" stroke="#000000" stroke-opacity="1" stroke-width="1" stroke-linecap="square" stroke-linejoin="bevel" transform="matrix(1.004,0,0,1.004,28.0022,412.142)"
font-family="Ubuntu" font-size="16" font-weight="400" font-style="normal" 
>
</g>

<g fill="none" stroke="#000000" stroke-opacity="1" stroke-width="1" stroke-linecap="square" stroke-linejoin="bevel" transform="matrix(1.004,0,0,1.004,28.0022,412.142)"
font-family="Ubuntu" font-size="16" font-weight="400" font-style="normal" 
>
</g>

<g fill="none" stroke="#000000" stroke-opacity="1" stroke-width="1" stroke-linecap="square" stroke-linejoin="bevel" transform="matrix(1.004,0,0,1.004,28.0022,412.142)"
font-family="Ubuntu" font-size="16" font-weight="400" font-style="normal" 
>
</g>

<g fill="none" stroke="#000000" stroke-opacity="1" stroke-width="1" stroke-linecap="square" stroke-linejoin="bevel" transform="matrix(1.004,0,0,1.004,28.0022,412.142)"
font-family="Ubuntu" font-size="16" font-weight="400" font-style="normal" 
>
<text fill="#000000" fill-opacity="1" stroke="none" xml:space="preserve" x="4" y="22" font-family="Sans" font-size="14" font-weight="400" font-style="normal" 
 > 0</text>
</g>

<g fill="none" stroke="#000000" stroke-opacity="1" stroke-width="1" stroke-linecap="square" stroke-linejoin="bevel" transform="matrix(1.004,0,0,1.004,28.0022,412.142)"
font-family="Ubuntu" font-size="16" font-weight="400" font-style="normal" 
>
</g>

<g fill="none" stroke="#000000" stroke-opacity="1" stroke-width="1" stroke-linecap="square" stroke-linejoin="bevel" transform="matrix(1,0,0,1,0,0)"
font-family="Ubuntu" font-size="16" font-weight="400" font-style="normal" 
>
</g>

<g fill="none" stroke="#000000" stroke-opacity="1" stroke-width="1" stroke-linecap="square" stroke-linejoin="bevel" transform="matrix(1.004,0,0,1.004,28.0022,412.142)"
font-family="Ubuntu" font-size="16" font-weight="400" font-style="normal" 
>
</g>

<g fill="none" stroke="#000000" stroke-opacity="1" stroke-width="1" stroke-linecap="square" stroke-linejoin="bevel" transform="matrix(1.004,0,0,1.004,28.0022,412.142)"
font-family="Ubuntu" font-size="16" font-weight="400" font-style="normal" 
>
</g>

<g fill="none" stroke="#000000" stroke-opacity="1" stroke-width="1" stroke-linecap="square" stroke-linejoin="bevel" transform="matrix(1.004,0,0,1.004,28.0022,412.142)"
font-family="Ubuntu" font-size="16" font-weight="400" font-style="normal" 
>
</g>

<g fill="none" stroke="#000000" stroke-opacity="1" stroke-width="1" stroke-linecap="square" stroke-linejoin="bevel" transform="matrix(1.004,0,0,1.004,0,0)"
font-family="Ubuntu" font-size="16" font-weight="400" font-style="normal" 
>
</g>

<g fill="none" stroke="#a0a0a4" stroke-opacity="1" stroke-dasharray="2,4" stroke-dashoffset="0" stroke-width="2" stroke-linecap="round" stroke-linejoin="round" transform="matrix(1.004,0,0,1.004,0,0)"
font-family="Ubuntu" font-size="16" font-weight="400" font-style="normal" 
>
<polyline fill="none" vector-effect="none" points="66.5,345.5 463.5,345.5 " />
</g>

<g fill="none" stroke="#000000" stroke-opacity="1" stroke-width="1" stroke-linecap="round" stroke-linejoin="round" transform="matrix(1.004,0,0,1.004,0,0)"
font-family="Ubuntu" font-size="16" font-weight="400" font-style="normal" 
>
<polyline fill="none" vector-effect="none" points="66.5,345.5 75.5,345.5 " />
<polyline fill="none" vector-effect="none" points="463.5,345.5 454.5,345.5 " />
</g>

<g fill="none" stroke="#000000" stroke-opacity="1" stroke-width="1" stroke-linecap="square" stroke-linejoin="bevel" transform="matrix(1.004,0,0,1.004,0,0)"
font-family="Ubuntu" font-size="16" font-weight="400" font-style="normal" 
>
</g>

<g fill="none" stroke="#000000" stroke-opacity="1" stroke-width="1" stroke-linecap="square" stroke-linejoin="bevel" transform="matrix(1.004,0,0,1.004,28.0022,331.822)"
font-family="Ubuntu" font-size="16" font-weight="400" font-style="normal" 
>
</g>

<g fill="none" stroke="#000000" stroke-opacity="1" stroke-width="1" stroke-linecap="square" stroke-linejoin="bevel" transform="matrix(1.004,0,0,1.004,28.0022,331.822)"
font-family="Ubuntu" font-size="16" font-weight="400" font-style="normal" 
>
</g>

<g fill="none" stroke="#000000" stroke-opacity="1" stroke-width="1" stroke-linecap="square" stroke-linejoin="bevel" transform="matrix(1.004,0,0,1.004,28.0022,331.822)"
font-family="Ubuntu" font-size="16" font-weight="400" font-style="normal" 
>
</g>

<g fill="none" stroke="#000000" stroke-opacity="1" stroke-width="1" stroke-linecap="square" stroke-linejoin="bevel" transform="matrix(1.004,0,0,1.004,28.0022,331.822)"
font-family="Ubuntu" font-size="16" font-weight="400" font-style="normal" 
>
<text fill="#000000" fill-opacity="1" stroke="none" xml:space="preserve" x="4" y="22" font-family="Sans" font-size="14" font-weight="400" font-style="normal" 
 > 2</text>
</g>

<g fill="none" stroke="#000000" stroke-opacity="1" stroke-width="1" stroke-linecap="square" stroke-linejoin="bevel" transform="matrix(1.004,0,0,1.004,28.0022,331.822)"
font-family="Ubuntu" font-size="16" font-weight="400" font-style="normal" 
>
</g>

<g fill="none" stroke="#000000" stroke-opacity="1" stroke-width="1" stroke-linecap="square" stroke-linejoin="bevel" transform="matrix(1,0,0,1,0,0)"
font-family="Ubuntu" font-size="16" font-weight="400" font-style="normal" 
>
</g>

<g fill="none" stroke="#000000" stroke-opacity="1" stroke-width="1" stroke-linecap="square" stroke-linejoin="bevel" transform="matrix(1.004,0,0,1.004,28.0022,331.822)"
font-family="Ubuntu" font-size="16" font-weight="400" font-style="normal" 
>
</g>

<g fill="none" stroke="#000000" stroke-opacity="1" stroke-width="1" stroke-linecap="square" stroke-linejoin="bevel" transform="matrix(1.004,0,0,1.004,28.0022,331.822)"
font-family="Ubuntu" font-size="16" font-weight="400" font-style="normal" 
>
</g>

<g fill="none" stroke="#000000" stroke-opacity="1" stroke-width="1" stroke-linecap="square" stroke-linejoin="bevel" transform="matrix(1.004,0,0,1.004,28.0022,331.822)"
font-family="Ubuntu" font-size="16" font-weight="400" font-style="normal" 
>
</g>

<g fill="none" stroke="#000000" stroke-opacity="1" stroke-width="1" stroke-linecap="square" stroke-linejoin="bevel" transform="matrix(1.004,0,0,1.004,0,0)"
font-family="Ubuntu" font-size="16" font-weight="400" font-style="normal" 
>
</g>

<g fill="none" stroke="#a0a0a4" stroke-opacity="1" stroke-dasharray="2,4" stroke-dashoffset="0" stroke-width="2" stroke-linecap="round" stroke-linejoin="round" transform="matrix(1.004,0,0,1.004,0,0)"
font-family="Ubuntu" font-size="16" font-weight="400" font-style="normal" 
>
<polyline fill="none" vector-effect="none" points="66.5,265.5 463.5,265.5 " />
</g>

<g fill="none" stroke="#000000" stroke-opacity="1" stroke-width="1" stroke-linecap="round" stroke-linejoin="round" transform="matrix(1.004,0,0,1.004,0,0)"
font-family="Ubuntu" font-size="16" font-weight="400" font-style="normal" 
>
<polyline fill="none" vector-effect="none" points="66.5,265.5 75.5,265.5 " />
<polyline fill="none" vector-effect="none" points="463.5,265.5 454.5,265.5 " />
</g>

<g fill="none" stroke="#000000" stroke-opacity="1" stroke-width="1" stroke-linecap="square" stroke-linejoin="bevel" transform="matrix(1.004,0,0,1.004,0,0)"
font-family="Ubuntu" font-size="16" font-weight="400" font-style="normal" 
>
</g>

<g fill="none" stroke="#000000" stroke-opacity="1" stroke-width="1" stroke-linecap="square" stroke-linejoin="bevel" transform="matrix(1.004,0,0,1.004,28.0022,250.498)"
font-family="Ubuntu" font-size="16" font-weight="400" font-style="normal" 
>
</g>

<g fill="none" stroke="#000000" stroke-opacity="1" stroke-width="1" stroke-linecap="square" stroke-linejoin="bevel" transform="matrix(1.004,0,0,1.004,28.0022,250.498)"
font-family="Ubuntu" font-size="16" font-weight="400" font-style="normal" 
>
</g>

<g fill="none" stroke="#000000" stroke-opacity="1" stroke-width="1" stroke-linecap="square" stroke-linejoin="bevel" transform="matrix(1.004,0,0,1.004,28.0022,250.498)"
font-family="Ubuntu" font-size="16" font-weight="400" font-style="normal" 
>
</g>

<g fill="none" stroke="#000000" stroke-opacity="1" stroke-width="1" stroke-linecap="square" stroke-linejoin="bevel" transform="matrix(1.004,0,0,1.004,28.0022,250.498)"
font-family="Ubuntu" font-size="16" font-weight="400" font-style="normal" 
>
<text fill="#000000" fill-opacity="1" stroke="none" xml:space="preserve" x="4" y="22" font-family="Sans" font-size="14" font-weight="400" font-style="normal" 
 > 4</text>
</g>

<g fill="none" stroke="#000000" stroke-opacity="1" stroke-width="1" stroke-linecap="square" stroke-linejoin="bevel" transform="matrix(1.004,0,0,1.004,28.0022,250.498)"
font-family="Ubuntu" font-size="16" font-weight="400" font-style="normal" 
>
</g>

<g fill="none" stroke="#000000" stroke-opacity="1" stroke-width="1" stroke-linecap="square" stroke-linejoin="bevel" transform="matrix(1,0,0,1,0,0)"
font-family="Ubuntu" font-size="16" font-weight="400" font-style="normal" 
>
</g>

<g fill="none" stroke="#000000" stroke-opacity="1" stroke-width="1" stroke-linecap="square" stroke-linejoin="bevel" transform="matrix(1.004,0,0,1.004,28.0022,250.498)"
font-family="Ubuntu" font-size="16" font-weight="400" font-style="normal" 
>
</g>

<g fill="none" stroke="#000000" stroke-opacity="1" stroke-width="1" stroke-linecap="square" stroke-linejoin="bevel" transform="matrix(1.004,0,0,1.004,28.0022,250.498)"
font-family="Ubuntu" font-size="16" font-weight="400" font-style="normal" 
>
</g>

<g fill="none" stroke="#000000" stroke-opacity="1" stroke-width="1" stroke-linecap="square" stroke-linejoin="bevel" transform="matrix(1.004,0,0,1.004,28.0022,250.498)"
font-family="Ubuntu" font-size="16" font-weight="400" font-style="normal" 
>
</g>

<g fill="none" stroke="#000000" stroke-opacity="1" stroke-width="1" stroke-linecap="square" stroke-linejoin="bevel" transform="matrix(1.004,0,0,1.004,0,0)"
font-family="Ubuntu" font-size="16" font-weight="400" font-style="normal" 
>
</g>

<g fill="none" stroke="#a0a0a4" stroke-opacity="1" stroke-dasharray="2,4" stroke-dashoffset="0" stroke-width="2" stroke-linecap="round" stroke-linejoin="round" transform="matrix(1.004,0,0,1.004,0,0)"
font-family="Ubuntu" font-size="16" font-weight="400" font-style="normal" 
>
<polyline fill="none" vector-effect="none" points="66.5,184.5 463.5,184.5 " />
</g>

<g fill="none" stroke="#000000" stroke-opacity="1" stroke-width="1" stroke-linecap="round" stroke-linejoin="round" transform="matrix(1.004,0,0,1.004,0,0)"
font-family="Ubuntu" font-size="16" font-weight="400" font-style="normal" 
>
<polyline fill="none" vector-effect="none" points="66.5,184.5 75.5,184.5 " />
<polyline fill="none" vector-effect="none" points="463.5,184.5 454.5,184.5 " />
</g>

<g fill="none" stroke="#000000" stroke-opacity="1" stroke-width="1" stroke-linecap="square" stroke-linejoin="bevel" transform="matrix(1.004,0,0,1.004,0,0)"
font-family="Ubuntu" font-size="16" font-weight="400" font-style="normal" 
>
</g>

<g fill="none" stroke="#000000" stroke-opacity="1" stroke-width="1" stroke-linecap="square" stroke-linejoin="bevel" transform="matrix(1.004,0,0,1.004,28.0022,169.174)"
font-family="Ubuntu" font-size="16" font-weight="400" font-style="normal" 
>
</g>

<g fill="none" stroke="#000000" stroke-opacity="1" stroke-width="1" stroke-linecap="square" stroke-linejoin="bevel" transform="matrix(1.004,0,0,1.004,28.0022,169.174)"
font-family="Ubuntu" font-size="16" font-weight="400" font-style="normal" 
>
</g>

<g fill="none" stroke="#000000" stroke-opacity="1" stroke-width="1" stroke-linecap="square" stroke-linejoin="bevel" transform="matrix(1.004,0,0,1.004,28.0022,169.174)"
font-family="Ubuntu" font-size="16" font-weight="400" font-style="normal" 
>
</g>

<g fill="none" stroke="#000000" stroke-opacity="1" stroke-width="1" stroke-linecap="square" stroke-linejoin="bevel" transform="matrix(1.004,0,0,1.004,28.0022,169.174)"
font-family="Ubuntu" font-size="16" font-weight="400" font-style="normal" 
>
<text fill="#000000" fill-opacity="1" stroke="none" xml:space="preserve" x="4" y="22" font-family="Sans" font-size="14" font-weight="400" font-style="normal" 
 > 6</text>
</g>

<g fill="none" stroke="#000000" stroke-opacity="1" stroke-width="1" stroke-linecap="square" stroke-linejoin="bevel" transform="matrix(1.004,0,0,1.004,28.0022,169.174)"
font-family="Ubuntu" font-size="16" font-weight="400" font-style="normal" 
>
</g>

<g fill="none" stroke="#000000" stroke-opacity="1" stroke-width="1" stroke-linecap="square" stroke-linejoin="bevel" transform="matrix(1,0,0,1,0,0)"
font-family="Ubuntu" font-size="16" font-weight="400" font-style="normal" 
>
</g>

<g fill="none" stroke="#000000" stroke-opacity="1" stroke-width="1" stroke-linecap="square" stroke-linejoin="bevel" transform="matrix(1.004,0,0,1.004,28.0022,169.174)"
font-family="Ubuntu" font-size="16" font-weight="400" font-style="normal" 
>
</g>

<g fill="none" stroke="#000000" stroke-opacity="1" stroke-width="1" stroke-linecap="square" stroke-linejoin="bevel" transform="matrix(1.004,0,0,1.004,28.0022,169.174)"
font-family="Ubuntu" font-size="16" font-weight="400" font-style="normal" 
>
</g>

<g fill="none" stroke="#000000" stroke-opacity="1" stroke-width="1" stroke-linecap="square" stroke-linejoin="bevel" transform="matrix(1.004,0,0,1.004,28.0022,169.174)"
font-family="Ubuntu" font-size="16" font-weight="400" font-style="normal" 
>
</g>

<g fill="none" stroke="#000000" stroke-opacity="1" stroke-width="1" stroke-linecap="square" stroke-linejoin="bevel" transform="matrix(1.004,0,0,1.004,0,0)"
font-family="Ubuntu" font-size="16" font-weight="400" font-style="normal" 
>
</g>

<g fill="none" stroke="#a0a0a4" stroke-opacity="1" stroke-dasharray="2,4" stroke-dashoffset="0" stroke-width="2" stroke-linecap="round" stroke-linejoin="round" transform="matrix(1.004,0,0,1.004,0,0)"
font-family="Ubuntu" font-size="16" font-weight="400" font-style="normal" 
>
<polyline fill="none" vector-effect="none" points="66.5,103.5 463.5,103.5 " />
</g>

<g fill="none" stroke="#000000" stroke-opacity="1" stroke-width="1" stroke-linecap="round" stroke-linejoin="round" transform="matrix(1.004,0,0,1.004,0,0)"
font-family="Ubuntu" font-size="16" font-weight="400" font-style="normal" 
>
<polyline fill="none" vector-effect="none" points="66.5,103.5 75.5,103.5 " />
<polyline fill="none" vector-effect="none" points="463.5,103.5 454.5,103.5 " />
</g>

<g fill="none" stroke="#000000" stroke-opacity="1" stroke-width="1" stroke-linecap="square" stroke-linejoin="bevel" transform="matrix(1.004,0,0,1.004,0,0)"
font-family="Ubuntu" font-size="16" font-weight="400" font-style="normal" 
>
</g>

<g fill="none" stroke="#000000" stroke-opacity="1" stroke-width="1" stroke-linecap="square" stroke-linejoin="bevel" transform="matrix(1.004,0,0,1.004,28.0022,88.854)"
font-family="Ubuntu" font-size="16" font-weight="400" font-style="normal" 
>
</g>

<g fill="none" stroke="#000000" stroke-opacity="1" stroke-width="1" stroke-linecap="square" stroke-linejoin="bevel" transform="matrix(1.004,0,0,1.004,28.0022,88.854)"
font-family="Ubuntu" font-size="16" font-weight="400" font-style="normal" 
>
</g>

<g fill="none" stroke="#000000" stroke-opacity="1" stroke-width="1" stroke-linecap="square" stroke-linejoin="bevel" transform="matrix(1.004,0,0,1.004,28.0022,88.854)"
font-family="Ubuntu" font-size="16" font-weight="400" font-style="normal" 
>
</g>

<g fill="none" stroke="#000000" stroke-opacity="1" stroke-width="1" stroke-linecap="square" stroke-linejoin="bevel" transform="matrix(1.004,0,0,1.004,28.0022,88.854)"
font-family="Ubuntu" font-size="16" font-weight="400" font-style="normal" 
>
<text fill="#000000" fill-opacity="1" stroke="none" xml:space="preserve" x="4" y="22" font-family="Sans" font-size="14" font-weight="400" font-style="normal" 
 > 8</text>
</g>

<g fill="none" stroke="#000000" stroke-opacity="1" stroke-width="1" stroke-linecap="square" stroke-linejoin="bevel" transform="matrix(1.004,0,0,1.004,28.0022,88.854)"
font-family="Ubuntu" font-size="16" font-weight="400" font-style="normal" 
>
</g>

<g fill="none" stroke="#000000" stroke-opacity="1" stroke-width="1" stroke-linecap="square" stroke-linejoin="bevel" transform="matrix(1,0,0,1,0,0)"
font-family="Ubuntu" font-size="16" font-weight="400" font-style="normal" 
>
</g>

<g fill="none" stroke="#000000" stroke-opacity="1" stroke-width="1" stroke-linecap="square" stroke-linejoin="bevel" transform="matrix(1.004,0,0,1.004,28.0022,88.854)"
font-family="Ubuntu" font-size="16" font-weight="400" font-style="normal" 
>
</g>

<g fill="none" stroke="#000000" stroke-opacity="1" stroke-width="1" stroke-linecap="square" stroke-linejoin="bevel" transform="matrix(1.004,0,0,1.004,28.0022,88.854)"
font-family="Ubuntu" font-size="16" font-weight="400" font-style="normal" 
>
</g>

<g fill="none" stroke="#000000" stroke-opacity="1" stroke-width="1" stroke-linecap="square" stroke-linejoin="bevel" transform="matrix(1.004,0,0,1.004,28.0022,88.854)"
font-family="Ubuntu" font-size="16" font-weight="400" font-style="normal" 
>
</g>

<g fill="none" stroke="#000000" stroke-opacity="1" stroke-width="1" stroke-linecap="square" stroke-linejoin="bevel" transform="matrix(1.004,0,0,1.004,0,0)"
font-family="Ubuntu" font-size="16" font-weight="400" font-style="normal" 
>
</g>

<g fill="none" stroke="#a0a0a4" stroke-opacity="1" stroke-dasharray="2,4" stroke-dashoffset="0" stroke-width="2" stroke-linecap="round" stroke-linejoin="round" transform="matrix(1.004,0,0,1.004,0,0)"
font-family="Ubuntu" font-size="16" font-weight="400" font-style="normal" 
>
<polyline fill="none" vector-effect="none" points="66.5,23.5 463.5,23.5 " />
</g>

<g fill="none" stroke="#000000" stroke-opacity="1" stroke-width="1" stroke-linecap="round" stroke-linejoin="round" transform="matrix(1.004,0,0,1.004,0,0)"
font-family="Ubuntu" font-size="16" font-weight="400" font-style="normal" 
>
<polyline fill="none" vector-effect="none" points="66.5,23.5 75.5,23.5 " />
<polyline fill="none" vector-effect="none" points="463.5,23.5 454.5,23.5 " />
</g>

<g fill="none" stroke="#000000" stroke-opacity="1" stroke-width="1" stroke-linecap="square" stroke-linejoin="bevel" transform="matrix(1.004,0,0,1.004,0,0)"
font-family="Ubuntu" font-size="16" font-weight="400" font-style="normal" 
>
</g>

<g fill="none" stroke="#000000" stroke-opacity="1" stroke-width="1" stroke-linecap="square" stroke-linejoin="bevel" transform="matrix(1.004,0,0,1.004,15.8758,7.53)"
font-family="Ubuntu" font-size="16" font-weight="400" font-style="normal" 
>
</g>

<g fill="none" stroke="#000000" stroke-opacity="1" stroke-width="1" stroke-linecap="square" stroke-linejoin="bevel" transform="matrix(1.004,0,0,1.004,15.8758,7.53)"
font-family="Ubuntu" font-size="16" font-weight="400" font-style="normal" 
>
</g>

<g fill="none" stroke="#000000" stroke-opacity="1" stroke-width="1" stroke-linecap="square" stroke-linejoin="bevel" transform="matrix(1.004,0,0,1.004,15.8758,7.53)"
font-family="Ubuntu" font-size="16" font-weight="400" font-style="normal" 
>
</g>

<g fill="none" stroke="#000000" stroke-opacity="1" stroke-width="1" stroke-linecap="square" stroke-linejoin="bevel" transform="matrix(1.004,0,0,1.004,15.8758,7.53)"
font-family="Ubuntu" font-size="16" font-weight="400" font-style="normal" 
>
<text fill="#000000" fill-opacity="1" stroke="none" xml:space="preserve" x="4" y="22" font-family="Sans" font-size="14" font-weight="400" font-style="normal" 
 > 10</text>
</g>

<g fill="none" stroke="#000000" stroke-opacity="1" stroke-width="1" stroke-linecap="square" stroke-linejoin="bevel" transform="matrix(1.004,0,0,1.004,15.8758,7.53)"
font-family="Ubuntu" font-size="16" font-weight="400" font-style="normal" 
>
</g>

<g fill="none" stroke="#000000" stroke-opacity="1" stroke-width="1" stroke-linecap="square" stroke-linejoin="bevel" transform="matrix(1,0,0,1,0,0)"
font-family="Ubuntu" font-size="16" font-weight="400" font-style="normal" 
>
</g>

<g fill="none" stroke="#000000" stroke-opacity="1" stroke-width="1" stroke-linecap="square" stroke-linejoin="bevel" transform="matrix(1.004,0,0,1.004,15.8758,7.53)"
font-family="Ubuntu" font-size="16" font-weight="400" font-style="normal" 
>
</g>

<g fill="none" stroke="#000000" stroke-opacity="1" stroke-width="1" stroke-linecap="square" stroke-linejoin="bevel" transform="matrix(1.004,0,0,1.004,15.8758,7.53)"
font-family="Ubuntu" font-size="16" font-weight="400" font-style="normal" 
>
</g>

<g fill="none" stroke="#000000" stroke-opacity="1" stroke-width="1" stroke-linecap="square" stroke-linejoin="bevel" transform="matrix(1.004,0,0,1.004,15.8758,7.53)"
font-family="Ubuntu" font-size="16" font-weight="400" font-style="normal" 
>
</g>

<g fill="none" stroke="#000000" stroke-opacity="1" stroke-width="1" stroke-linecap="square" stroke-linejoin="bevel" transform="matrix(1.004,0,0,1.004,0,0)"
font-family="Ubuntu" font-size="16" font-weight="400" font-style="normal" 
>
</g>

<g fill="none" stroke="#a0a0a4" stroke-opacity="1" stroke-dasharray="2,4" stroke-dashoffset="0" stroke-width="2" stroke-linecap="round" stroke-linejoin="round" transform="matrix(1.004,0,0,1.004,0,0)"
font-family="Ubuntu" font-size="16" font-weight="400" font-style="normal" 
>
<polyline fill="none" vector-effect="none" points="66.5,426.5 66.5,23.5 " />
</g>

<g fill="none" stroke="#000000" stroke-opacity="1" stroke-width="1" stroke-linecap="round" stroke-linejoin="round" transform="matrix(1.004,0,0,1.004,0,0)"
font-family="Ubuntu" font-size="16" font-weight="400" font-style="normal" 
>
<polyline fill="none" vector-effect="none" points="66.5,426.5 66.5,417.5 " />
<polyline fill="none" vector-effect="none" points="66.5,23.5 66.5,32.5 " />
</g>

<g fill="none" stroke="#000000" stroke-opacity="1" stroke-width="1" stroke-linecap="square" stroke-linejoin="bevel" transform="matrix(1.004,0,0,1.004,0,0)"
font-family="Ubuntu" font-size="16" font-weight="400" font-style="normal" 
>
</g>

<g fill="none" stroke="#000000" stroke-opacity="1" stroke-width="1" stroke-linecap="square" stroke-linejoin="bevel" transform="matrix(1.004,0,0,1.004,53.1571,435.234)"
font-family="Ubuntu" font-size="16" font-weight="400" font-style="normal" 
>
</g>

<g fill="none" stroke="#000000" stroke-opacity="1" stroke-width="1" stroke-linecap="square" stroke-linejoin="bevel" transform="matrix(1.004,0,0,1.004,53.1571,435.234)"
font-family="Ubuntu" font-size="16" font-weight="400" font-style="normal" 
>
</g>

<g fill="none" stroke="#000000" stroke-opacity="1" stroke-width="1" stroke-linecap="square" stroke-linejoin="bevel" transform="matrix(1.004,0,0,1.004,53.1571,435.234)"
font-family="Ubuntu" font-size="16" font-weight="400" font-style="normal" 
>
</g>

<g fill="none" stroke="#000000" stroke-opacity="1" stroke-width="1" stroke-linecap="square" stroke-linejoin="bevel" transform="matrix(1.004,0,0,1.004,53.1571,435.234)"
font-family="Ubuntu" font-size="16" font-weight="400" font-style="normal" 
>
<text fill="#000000" fill-opacity="1" stroke="none" xml:space="preserve" x="4" y="22" font-family="Sans" font-size="14" font-weight="400" font-style="normal" 
 > 0</text>
</g>

<g fill="none" stroke="#000000" stroke-opacity="1" stroke-width="1" stroke-linecap="square" stroke-linejoin="bevel" transform="matrix(1.004,0,0,1.004,53.1571,435.234)"
font-family="Ubuntu" font-size="16" font-weight="400" font-style="normal" 
>
</g>

<g fill="none" stroke="#000000" stroke-opacity="1" stroke-width="1" stroke-linecap="square" stroke-linejoin="bevel" transform="matrix(1,0,0,1,0,0)"
font-family="Ubuntu" font-size="16" font-weight="400" font-style="normal" 
>
</g>

<g fill="none" stroke="#000000" stroke-opacity="1" stroke-width="1" stroke-linecap="square" stroke-linejoin="bevel" transform="matrix(1.004,0,0,1.004,53.1571,435.234)"
font-family="Ubuntu" font-size="16" font-weight="400" font-style="normal" 
>
</g>

<g fill="none" stroke="#000000" stroke-opacity="1" stroke-width="1" stroke-linecap="square" stroke-linejoin="bevel" transform="matrix(1.004,0,0,1.004,53.1571,435.234)"
font-family="Ubuntu" font-size="16" font-weight="400" font-style="normal" 
>
</g>

<g fill="none" stroke="#000000" stroke-opacity="1" stroke-width="1" stroke-linecap="square" stroke-linejoin="bevel" transform="matrix(1.004,0,0,1.004,53.1571,435.234)"
font-family="Ubuntu" font-size="16" font-weight="400" font-style="normal" 
>
</g>

<g fill="none" stroke="#000000" stroke-opacity="1" stroke-width="1" stroke-linecap="square" stroke-linejoin="bevel" transform="matrix(1.004,0,0,1.004,0,0)"
font-family="Ubuntu" font-size="16" font-weight="400" font-style="normal" 
>
</g>

<g fill="none" stroke="#a0a0a4" stroke-opacity="1" stroke-dasharray="2,4" stroke-dashoffset="0" stroke-width="2" stroke-linecap="round" stroke-linejoin="round" transform="matrix(1.004,0,0,1.004,0,0)"
font-family="Ubuntu" font-size="16" font-weight="400" font-style="normal" 
>
<polyline fill="none" vector-effect="none" points="145.5,426.5 145.5,23.5 " />
</g>

<g fill="none" stroke="#000000" stroke-opacity="1" stroke-width="1" stroke-linecap="round" stroke-linejoin="round" transform="matrix(1.004,0,0,1.004,0,0)"
font-family="Ubuntu" font-size="16" font-weight="400" font-style="normal" 
>
<polyline fill="none" vector-effect="none" points="145.5,426.5 145.5,417.5 " />
<polyline fill="none" vector-effect="none" points="145.5,23.5 145.5,32.5 " />
</g>

<g fill="none" stroke="#000000" stroke-opacity="1" stroke-width="1" stroke-linecap="square" stroke-linejoin="bevel" transform="matrix(1.004,0,0,1.004,0,0)"
font-family="Ubuntu" font-size="16" font-weight="400" font-style="normal" 
>
</g>

<g fill="none" stroke="#000000" stroke-opacity="1" stroke-width="1" stroke-linecap="square" stroke-linejoin="bevel" transform="matrix(1.004,0,0,1.004,124.386,435.234)"
font-family="Ubuntu" font-size="16" font-weight="400" font-style="normal" 
>
</g>

<g fill="none" stroke="#000000" stroke-opacity="1" stroke-width="1" stroke-linecap="square" stroke-linejoin="bevel" transform="matrix(1.004,0,0,1.004,124.386,435.234)"
font-family="Ubuntu" font-size="16" font-weight="400" font-style="normal" 
>
</g>

<g fill="none" stroke="#000000" stroke-opacity="1" stroke-width="1" stroke-linecap="square" stroke-linejoin="bevel" transform="matrix(1.004,0,0,1.004,124.386,435.234)"
font-family="Ubuntu" font-size="16" font-weight="400" font-style="normal" 
>
</g>

<g fill="none" stroke="#000000" stroke-opacity="1" stroke-width="1" stroke-linecap="square" stroke-linejoin="bevel" transform="matrix(1.004,0,0,1.004,124.386,435.234)"
font-family="Ubuntu" font-size="16" font-weight="400" font-style="normal" 
>
<text fill="#000000" fill-opacity="1" stroke="none" xml:space="preserve" x="4" y="22" font-family="Sans" font-size="14" font-weight="400" font-style="normal" 
 > 0.2</text>
</g>

<g fill="none" stroke="#000000" stroke-opacity="1" stroke-width="1" stroke-linecap="square" stroke-linejoin="bevel" transform="matrix(1.004,0,0,1.004,124.386,435.234)"
font-family="Ubuntu" font-size="16" font-weight="400" font-style="normal" 
>
</g>

<g fill="none" stroke="#000000" stroke-opacity="1" stroke-width="1" stroke-linecap="square" stroke-linejoin="bevel" transform="matrix(1,0,0,1,0,0)"
font-family="Ubuntu" font-size="16" font-weight="400" font-style="normal" 
>
</g>

<g fill="none" stroke="#000000" stroke-opacity="1" stroke-width="1" stroke-linecap="square" stroke-linejoin="bevel" transform="matrix(1.004,0,0,1.004,124.386,435.234)"
font-family="Ubuntu" font-size="16" font-weight="400" font-style="normal" 
>
</g>

<g fill="none" stroke="#000000" stroke-opacity="1" stroke-width="1" stroke-linecap="square" stroke-linejoin="bevel" transform="matrix(1.004,0,0,1.004,124.386,435.234)"
font-family="Ubuntu" font-size="16" font-weight="400" font-style="normal" 
>
</g>

<g fill="none" stroke="#000000" stroke-opacity="1" stroke-width="1" stroke-linecap="square" stroke-linejoin="bevel" transform="matrix(1.004,0,0,1.004,124.386,435.234)"
font-family="Ubuntu" font-size="16" font-weight="400" font-style="normal" 
>
</g>

<g fill="none" stroke="#000000" stroke-opacity="1" stroke-width="1" stroke-linecap="square" stroke-linejoin="bevel" transform="matrix(1.004,0,0,1.004,0,0)"
font-family="Ubuntu" font-size="16" font-weight="400" font-style="normal" 
>
</g>

<g fill="none" stroke="#a0a0a4" stroke-opacity="1" stroke-dasharray="2,4" stroke-dashoffset="0" stroke-width="2" stroke-linecap="round" stroke-linejoin="round" transform="matrix(1.004,0,0,1.004,0,0)"
font-family="Ubuntu" font-size="16" font-weight="400" font-style="normal" 
>
<polyline fill="none" vector-effect="none" points="225.5,426.5 225.5,417.5 " />
<polyline fill="none" vector-effect="none" points="225.5,348.5 225.5,23.5 " />
</g>

<g fill="none" stroke="#000000" stroke-opacity="1" stroke-width="1" stroke-linecap="round" stroke-linejoin="round" transform="matrix(1.004,0,0,1.004,0,0)"
font-family="Ubuntu" font-size="16" font-weight="400" font-style="normal" 
>
<polyline fill="none" vector-effect="none" points="225.5,426.5 225.5,417.5 " />
<polyline fill="none" vector-effect="none" points="225.5,23.5 225.5,32.5 " />
</g>

<g fill="none" stroke="#000000" stroke-opacity="1" stroke-width="1" stroke-linecap="square" stroke-linejoin="bevel" transform="matrix(1.004,0,0,1.004,0,0)"
font-family="Ubuntu" font-size="16" font-weight="400" font-style="normal" 
>
</g>

<g fill="none" stroke="#000000" stroke-opacity="1" stroke-width="1" stroke-linecap="square" stroke-linejoin="bevel" transform="matrix(1.004,0,0,1.004,203.702,435.234)"
font-family="Ubuntu" font-size="16" font-weight="400" font-style="normal" 
>
</g>

<g fill="none" stroke="#000000" stroke-opacity="1" stroke-width="1" stroke-linecap="square" stroke-linejoin="bevel" transform="matrix(1.004,0,0,1.004,203.702,435.234)"
font-family="Ubuntu" font-size="16" font-weight="400" font-style="normal" 
>
</g>

<g fill="none" stroke="#000000" stroke-opacity="1" stroke-width="1" stroke-linecap="square" stroke-linejoin="bevel" transform="matrix(1.004,0,0,1.004,203.702,435.234)"
font-family="Ubuntu" font-size="16" font-weight="400" font-style="normal" 
>
</g>

<g fill="none" stroke="#000000" stroke-opacity="1" stroke-width="1" stroke-linecap="square" stroke-linejoin="bevel" transform="matrix(1.004,0,0,1.004,203.702,435.234)"
font-family="Ubuntu" font-size="16" font-weight="400" font-style="normal" 
>
<text fill="#000000" fill-opacity="1" stroke="none" xml:space="preserve" x="4" y="22" font-family="Sans" font-size="14" font-weight="400" font-style="normal" 
 > 0.4</text>
</g>

<g fill="none" stroke="#000000" stroke-opacity="1" stroke-width="1" stroke-linecap="square" stroke-linejoin="bevel" transform="matrix(1.004,0,0,1.004,203.702,435.234)"
font-family="Ubuntu" font-size="16" font-weight="400" font-style="normal" 
>
</g>

<g fill="none" stroke="#000000" stroke-opacity="1" stroke-width="1" stroke-linecap="square" stroke-linejoin="bevel" transform="matrix(1,0,0,1,0,0)"
font-family="Ubuntu" font-size="16" font-weight="400" font-style="normal" 
>
</g>

<g fill="none" stroke="#000000" stroke-opacity="1" stroke-width="1" stroke-linecap="square" stroke-linejoin="bevel" transform="matrix(1.004,0,0,1.004,203.702,435.234)"
font-family="Ubuntu" font-size="16" font-weight="400" font-style="normal" 
>
</g>

<g fill="none" stroke="#000000" stroke-opacity="1" stroke-width="1" stroke-linecap="square" stroke-linejoin="bevel" transform="matrix(1.004,0,0,1.004,203.702,435.234)"
font-family="Ubuntu" font-size="16" font-weight="400" font-style="normal" 
>
</g>

<g fill="none" stroke="#000000" stroke-opacity="1" stroke-width="1" stroke-linecap="square" stroke-linejoin="bevel" transform="matrix(1.004,0,0,1.004,203.702,435.234)"
font-family="Ubuntu" font-size="16" font-weight="400" font-style="normal" 
>
</g>

<g fill="none" stroke="#000000" stroke-opacity="1" stroke-width="1" stroke-linecap="square" stroke-linejoin="bevel" transform="matrix(1.004,0,0,1.004,0,0)"
font-family="Ubuntu" font-size="16" font-weight="400" font-style="normal" 
>
</g>

<g fill="none" stroke="#a0a0a4" stroke-opacity="1" stroke-dasharray="2,4" stroke-dashoffset="0" stroke-width="2" stroke-linecap="round" stroke-linejoin="round" transform="matrix(1.004,0,0,1.004,0,0)"
font-family="Ubuntu" font-size="16" font-weight="400" font-style="normal" 
>
<polyline fill="none" vector-effect="none" points="304.5,426.5 304.5,417.5 " />
<polyline fill="none" vector-effect="none" points="304.5,348.5 304.5,23.5 " />
</g>

<g fill="none" stroke="#000000" stroke-opacity="1" stroke-width="1" stroke-linecap="round" stroke-linejoin="round" transform="matrix(1.004,0,0,1.004,0,0)"
font-family="Ubuntu" font-size="16" font-weight="400" font-style="normal" 
>
<polyline fill="none" vector-effect="none" points="304.5,426.5 304.5,417.5 " />
<polyline fill="none" vector-effect="none" points="304.5,23.5 304.5,32.5 " />
</g>

<g fill="none" stroke="#000000" stroke-opacity="1" stroke-width="1" stroke-linecap="square" stroke-linejoin="bevel" transform="matrix(1.004,0,0,1.004,0,0)"
font-family="Ubuntu" font-size="16" font-weight="400" font-style="normal" 
>
</g>

<g fill="none" stroke="#000000" stroke-opacity="1" stroke-width="1" stroke-linecap="square" stroke-linejoin="bevel" transform="matrix(1.004,0,0,1.004,284.022,435.234)"
font-family="Ubuntu" font-size="16" font-weight="400" font-style="normal" 
>
</g>

<g fill="none" stroke="#000000" stroke-opacity="1" stroke-width="1" stroke-linecap="square" stroke-linejoin="bevel" transform="matrix(1.004,0,0,1.004,284.022,435.234)"
font-family="Ubuntu" font-size="16" font-weight="400" font-style="normal" 
>
</g>

<g fill="none" stroke="#000000" stroke-opacity="1" stroke-width="1" stroke-linecap="square" stroke-linejoin="bevel" transform="matrix(1.004,0,0,1.004,284.022,435.234)"
font-family="Ubuntu" font-size="16" font-weight="400" font-style="normal" 
>
</g>

<g fill="none" stroke="#000000" stroke-opacity="1" stroke-width="1" stroke-linecap="square" stroke-linejoin="bevel" transform="matrix(1.004,0,0,1.004,284.022,435.234)"
font-family="Ubuntu" font-size="16" font-weight="400" font-style="normal" 
>
<text fill="#000000" fill-opacity="1" stroke="none" xml:space="preserve" x="4" y="22" font-family="Sans" font-size="14" font-weight="400" font-style="normal" 
 > 0.6</text>
</g>

<g fill="none" stroke="#000000" stroke-opacity="1" stroke-width="1" stroke-linecap="square" stroke-linejoin="bevel" transform="matrix(1.004,0,0,1.004,284.022,435.234)"
font-family="Ubuntu" font-size="16" font-weight="400" font-style="normal" 
>
</g>

<g fill="none" stroke="#000000" stroke-opacity="1" stroke-width="1" stroke-linecap="square" stroke-linejoin="bevel" transform="matrix(1,0,0,1,0,0)"
font-family="Ubuntu" font-size="16" font-weight="400" font-style="normal" 
>
</g>

<g fill="none" stroke="#000000" stroke-opacity="1" stroke-width="1" stroke-linecap="square" stroke-linejoin="bevel" transform="matrix(1.004,0,0,1.004,284.022,435.234)"
font-family="Ubuntu" font-size="16" font-weight="400" font-style="normal" 
>
</g>

<g fill="none" stroke="#000000" stroke-opacity="1" stroke-width="1" stroke-linecap="square" stroke-linejoin="bevel" transform="matrix(1.004,0,0,1.004,284.022,435.234)"
font-family="Ubuntu" font-size="16" font-weight="400" font-style="normal" 
>
</g>

<g fill="none" stroke="#000000" stroke-opacity="1" stroke-width="1" stroke-linecap="square" stroke-linejoin="bevel" transform="matrix(1.004,0,0,1.004,284.022,435.234)"
font-family="Ubuntu" font-size="16" font-weight="400" font-style="normal" 
>
</g>

<g fill="none" stroke="#000000" stroke-opacity="1" stroke-width="1" stroke-linecap="square" stroke-linejoin="bevel" transform="matrix(1.004,0,0,1.004,0,0)"
font-family="Ubuntu" font-size="16" font-weight="400" font-style="normal" 
>
</g>

<g fill="none" stroke="#a0a0a4" stroke-opacity="1" stroke-dasharray="2,4" stroke-dashoffset="0" stroke-width="2" stroke-linecap="round" stroke-linejoin="round" transform="matrix(1.004,0,0,1.004,0,0)"
font-family="Ubuntu" font-size="16" font-weight="400" font-style="normal" 
>
<polyline fill="none" vector-effect="none" points="384.5,426.5 384.5,417.5 " />
<polyline fill="none" vector-effect="none" points="384.5,348.5 384.5,23.5 " />
</g>

<g fill="none" stroke="#000000" stroke-opacity="1" stroke-width="1" stroke-linecap="round" stroke-linejoin="round" transform="matrix(1.004,0,0,1.004,0,0)"
font-family="Ubuntu" font-size="16" font-weight="400" font-style="normal" 
>
<polyline fill="none" vector-effect="none" points="384.5,426.5 384.5,417.5 " />
<polyline fill="none" vector-effect="none" points="384.5,23.5 384.5,32.5 " />
</g>

<g fill="none" stroke="#000000" stroke-opacity="1" stroke-width="1" stroke-linecap="square" stroke-linejoin="bevel" transform="matrix(1.004,0,0,1.004,0,0)"
font-family="Ubuntu" font-size="16" font-weight="400" font-style="normal" 
>
</g>

<g fill="none" stroke="#000000" stroke-opacity="1" stroke-width="1" stroke-linecap="square" stroke-linejoin="bevel" transform="matrix(1.004,0,0,1.004,363.338,435.234)"
font-family="Ubuntu" font-size="16" font-weight="400" font-style="normal" 
>
</g>

<g fill="none" stroke="#000000" stroke-opacity="1" stroke-width="1" stroke-linecap="square" stroke-linejoin="bevel" transform="matrix(1.004,0,0,1.004,363.338,435.234)"
font-family="Ubuntu" font-size="16" font-weight="400" font-style="normal" 
>
</g>

<g fill="none" stroke="#000000" stroke-opacity="1" stroke-width="1" stroke-linecap="square" stroke-linejoin="bevel" transform="matrix(1.004,0,0,1.004,363.338,435.234)"
font-family="Ubuntu" font-size="16" font-weight="400" font-style="normal" 
>
</g>

<g fill="none" stroke="#000000" stroke-opacity="1" stroke-width="1" stroke-linecap="square" stroke-linejoin="bevel" transform="matrix(1.004,0,0,1.004,363.338,435.234)"
font-family="Ubuntu" font-size="16" font-weight="400" font-style="normal" 
>
<text fill="#000000" fill-opacity="1" stroke="none" xml:space="preserve" x="4" y="22" font-family="Sans" font-size="14" font-weight="400" font-style="normal" 
 > 0.8</text>
</g>

<g fill="none" stroke="#000000" stroke-opacity="1" stroke-width="1" stroke-linecap="square" stroke-linejoin="bevel" transform="matrix(1.004,0,0,1.004,363.338,435.234)"
font-family="Ubuntu" font-size="16" font-weight="400" font-style="normal" 
>
</g>

<g fill="none" stroke="#000000" stroke-opacity="1" stroke-width="1" stroke-linecap="square" stroke-linejoin="bevel" transform="matrix(1,0,0,1,0,0)"
font-family="Ubuntu" font-size="16" font-weight="400" font-style="normal" 
>
</g>

<g fill="none" stroke="#000000" stroke-opacity="1" stroke-width="1" stroke-linecap="square" stroke-linejoin="bevel" transform="matrix(1.004,0,0,1.004,363.338,435.234)"
font-family="Ubuntu" font-size="16" font-weight="400" font-style="normal" 
>
</g>

<g fill="none" stroke="#000000" stroke-opacity="1" stroke-width="1" stroke-linecap="square" stroke-linejoin="bevel" transform="matrix(1.004,0,0,1.004,363.338,435.234)"
font-family="Ubuntu" font-size="16" font-weight="400" font-style="normal" 
>
</g>

<g fill="none" stroke="#000000" stroke-opacity="1" stroke-width="1" stroke-linecap="square" stroke-linejoin="bevel" transform="matrix(1.004,0,0,1.004,363.338,435.234)"
font-family="Ubuntu" font-size="16" font-weight="400" font-style="normal" 
>
</g>

<g fill="none" stroke="#000000" stroke-opacity="1" stroke-width="1" stroke-linecap="square" stroke-linejoin="bevel" transform="matrix(1.004,0,0,1.004,0,0)"
font-family="Ubuntu" font-size="16" font-weight="400" font-style="normal" 
>
</g>

<g fill="none" stroke="#a0a0a4" stroke-opacity="1" stroke-dasharray="2,4" stroke-dashoffset="0" stroke-width="2" stroke-linecap="round" stroke-linejoin="round" transform="matrix(1.004,0,0,1.004,0,0)"
font-family="Ubuntu" font-size="16" font-weight="400" font-style="normal" 
>
<polyline fill="none" vector-effect="none" points="463.5,426.5 463.5,23.5 " />
</g>

<g fill="none" stroke="#000000" stroke-opacity="1" stroke-width="1" stroke-linecap="round" stroke-linejoin="round" transform="matrix(1.004,0,0,1.004,0,0)"
font-family="Ubuntu" font-size="16" font-weight="400" font-style="normal" 
>
<polyline fill="none" vector-effect="none" points="463.5,426.5 463.5,417.5 " />
<polyline fill="none" vector-effect="none" points="463.5,23.5 463.5,32.5 " />
</g>

<g fill="none" stroke="#000000" stroke-opacity="1" stroke-width="1" stroke-linecap="square" stroke-linejoin="bevel" transform="matrix(1.004,0,0,1.004,0,0)"
font-family="Ubuntu" font-size="16" font-weight="400" font-style="normal" 
>
</g>

<g fill="none" stroke="#000000" stroke-opacity="1" stroke-width="1" stroke-linecap="square" stroke-linejoin="bevel" transform="matrix(1.004,0,0,1.004,452.749,435.234)"
font-family="Ubuntu" font-size="16" font-weight="400" font-style="normal" 
>
</g>

<g fill="none" stroke="#000000" stroke-opacity="1" stroke-width="1" stroke-linecap="square" stroke-linejoin="bevel" transform="matrix(1.004,0,0,1.004,452.749,435.234)"
font-family="Ubuntu" font-size="16" font-weight="400" font-style="normal" 
>
</g>

<g fill="none" stroke="#000000" stroke-opacity="1" stroke-width="1" stroke-linecap="square" stroke-linejoin="bevel" transform="matrix(1.004,0,0,1.004,452.749,435.234)"
font-family="Ubuntu" font-size="16" font-weight="400" font-style="normal" 
>
</g>

<g fill="none" stroke="#000000" stroke-opacity="1" stroke-width="1" stroke-linecap="square" stroke-linejoin="bevel" transform="matrix(1.004,0,0,1.004,452.749,435.234)"
font-family="Ubuntu" font-size="16" font-weight="400" font-style="normal" 
>
<text fill="#000000" fill-opacity="1" stroke="none" xml:space="preserve" x="4" y="22" font-family="Sans" font-size="14" font-weight="400" font-style="normal" 
 > 1</text>
</g>

<g fill="none" stroke="#000000" stroke-opacity="1" stroke-width="1" stroke-linecap="square" stroke-linejoin="bevel" transform="matrix(1.004,0,0,1.004,452.749,435.234)"
font-family="Ubuntu" font-size="16" font-weight="400" font-style="normal" 
>
</g>

<g fill="none" stroke="#000000" stroke-opacity="1" stroke-width="1" stroke-linecap="square" stroke-linejoin="bevel" transform="matrix(1,0,0,1,0,0)"
font-family="Ubuntu" font-size="16" font-weight="400" font-style="normal" 
>
</g>

<g fill="none" stroke="#000000" stroke-opacity="1" stroke-width="1" stroke-linecap="square" stroke-linejoin="bevel" transform="matrix(1.004,0,0,1.004,452.749,435.234)"
font-family="Ubuntu" font-size="16" font-weight="400" font-style="normal" 
>
</g>

<g fill="none" stroke="#000000" stroke-opacity="1" stroke-width="1" stroke-linecap="square" stroke-linejoin="bevel" transform="matrix(1.004,0,0,1.004,452.749,435.234)"
font-family="Ubuntu" font-size="16" font-weight="400" font-style="normal" 
>
</g>

<g fill="none" stroke="#000000" stroke-opacity="1" stroke-width="1" stroke-linecap="square" stroke-linejoin="bevel" transform="matrix(1.004,0,0,1.004,452.749,435.234)"
font-family="Ubuntu" font-size="16" font-weight="400" font-style="normal" 
>
</g>

<g fill="none" stroke="#000000" stroke-opacity="1" stroke-width="1" stroke-linecap="square" stroke-linejoin="bevel" transform="matrix(1.004,0,0,1.004,0,0)"
font-family="Ubuntu" font-size="16" font-weight="400" font-style="normal" 
>
</g>

<g fill="none" stroke="#000000" stroke-opacity="1" stroke-width="1" stroke-linecap="round" stroke-linejoin="round" transform="matrix(1.004,0,0,1.004,0,0)"
font-family="Ubuntu" font-size="16" font-weight="400" font-style="normal" 
>
<polyline fill="none" vector-effect="none" points="66.5,23.5 66.5,426.5 463.5,426.5 463.5,23.5 66.5,23.5 " />
</g>

<g fill="none" stroke="#000000" stroke-opacity="1" stroke-width="1" stroke-linecap="square" stroke-linejoin="bevel" transform="matrix(1.004,0,0,1.004,0,0)"
font-family="Ubuntu" font-size="16" font-weight="400" font-style="normal" 
>
</g>

<g fill="none" stroke="#000000" stroke-opacity="1" stroke-width="1" stroke-linecap="square" stroke-linejoin="bevel" transform="matrix(0,-1.004,1.004,0,-6.526,229.916)"
font-family="Ubuntu" font-size="16" font-weight="400" font-style="normal" 
>
</g>

<g fill="none" stroke="#000000" stroke-opacity="1" stroke-width="1" stroke-linecap="square" stroke-linejoin="bevel" transform="matrix(0,-1.004,1.004,0,-6.526,229.916)"
font-family="Ubuntu" font-size="16" font-weight="400" font-style="normal" 
>
</g>

<g fill="none" stroke="#000000" stroke-opacity="1" stroke-width="1" stroke-linecap="square" stroke-linejoin="bevel" transform="matrix(0,-1.004,1.004,0,-6.526,229.916)"
font-family="Ubuntu" font-size="16" font-weight="400" font-style="normal" 
>
</g>

<g fill="none" stroke="#000000" stroke-opacity="1" stroke-width="1" stroke-linecap="square" stroke-linejoin="bevel" transform="matrix(0,-1.004,1.004,0,-6.526,229.916)"
font-family="Ubuntu" font-size="16" font-weight="400" font-style="normal" 
>
</g>

<g fill="none" stroke="#000000" stroke-opacity="1" stroke-width="1" stroke-linecap="square" stroke-linejoin="bevel" transform="matrix(1,0,0,1,0,0)"
font-family="Ubuntu" font-size="16" font-weight="400" font-style="normal" 
>
</g>

<g fill="none" stroke="#000000" stroke-opacity="1" stroke-width="1" stroke-linecap="square" stroke-linejoin="bevel" transform="matrix(0,-1.004,1.004,0,-6.526,229.916)"
font-family="Ubuntu" font-size="16" font-weight="400" font-style="normal" 
>
</g>

<g fill="none" stroke="#000000" stroke-opacity="1" stroke-width="1" stroke-linecap="square" stroke-linejoin="bevel" transform="matrix(0,-1.004,1.004,0,-6.526,229.916)"
font-family="Ubuntu" font-size="16" font-weight="400" font-style="normal" 
>
</g>

<g fill="none" stroke="#000000" stroke-opacity="1" stroke-width="1" stroke-linecap="square" stroke-linejoin="bevel" transform="matrix(0,-1.004,1.004,0,-6.526,229.916)"
font-family="Ubuntu" font-size="16" font-weight="400" font-style="normal" 
>
</g>

<g fill="none" stroke="#000000" stroke-opacity="1" stroke-width="1" stroke-linecap="square" stroke-linejoin="bevel" transform="matrix(1.004,0,0,1.004,211.311,470.374)"
font-family="Ubuntu" font-size="16" font-weight="400" font-style="normal" 
>
</g>

<g fill="none" stroke="#000000" stroke-opacity="1" stroke-width="1" stroke-linecap="square" stroke-linejoin="bevel" transform="matrix(1.004,0,0,1.004,211.311,470.374)"
font-family="Ubuntu" font-size="16" font-weight="400" font-style="normal" 
>
</g>

<g fill="none" stroke="#000000" stroke-opacity="1" stroke-width="1" stroke-linecap="square" stroke-linejoin="bevel" transform="matrix(1.004,0,0,1.004,211.311,470.374)"
font-family="Ubuntu" font-size="16" font-weight="400" font-style="normal" 
>
</g>

<g fill="none" stroke="#000000" stroke-opacity="1" stroke-width="1" stroke-linecap="square" stroke-linejoin="bevel" transform="matrix(1.004,0,0,1.004,211.311,470.374)"
font-family="Ubuntu" font-size="16" font-weight="400" font-style="normal" 
>
<text fill="#000000" fill-opacity="1" stroke="none" xml:space="preserve" x="4" y="22" font-family="Sans" font-size="14" font-weight="400" font-style="normal" 
 >Probability</text>
</g>

<g fill="none" stroke="#000000" stroke-opacity="1" stroke-width="1" stroke-linecap="square" stroke-linejoin="bevel" transform="matrix(1.004,0,0,1.004,211.311,470.374)"
font-family="Ubuntu" font-size="16" font-weight="400" font-style="normal" 
>
</g>

<g fill="none" stroke="#000000" stroke-opacity="1" stroke-width="1" stroke-linecap="square" stroke-linejoin="bevel" transform="matrix(1,0,0,1,0,0)"
font-family="Ubuntu" font-size="16" font-weight="400" font-style="normal" 
>
</g>

<g fill="none" stroke="#000000" stroke-opacity="1" stroke-width="1" stroke-linecap="square" stroke-linejoin="bevel" transform="matrix(1.004,0,0,1.004,211.311,470.374)"
font-family="Ubuntu" font-size="16" font-weight="400" font-style="normal" 
>
</g>

<g fill="none" stroke="#000000" stroke-opacity="1" stroke-width="1" stroke-linecap="square" stroke-linejoin="bevel" transform="matrix(1.004,0,0,1.004,211.311,470.374)"
font-family="Ubuntu" font-size="16" font-weight="400" font-style="normal" 
>
</g>

<g fill="none" stroke="#000000" stroke-opacity="1" stroke-width="1" stroke-linecap="square" stroke-linejoin="bevel" transform="matrix(1.004,0,0,1.004,211.311,470.374)"
font-family="Ubuntu" font-size="16" font-weight="400" font-style="normal" 
>
</g>

<g fill="none" stroke="#000000" stroke-opacity="1" stroke-width="1" stroke-linecap="square" stroke-linejoin="bevel" transform="matrix(1.004,0,0,1.004,167.668,345.878)"
font-family="Ubuntu" font-size="16" font-weight="400" font-style="normal" 
>
</g>

<g fill="none" stroke="#000000" stroke-opacity="1" stroke-width="1" stroke-linecap="square" stroke-linejoin="bevel" transform="matrix(1.004,0,0,1.004,167.668,345.878)"
font-family="Ubuntu" font-size="16" font-weight="400" font-style="normal" 
>
</g>

<g fill="none" stroke="#000000" stroke-opacity="1" stroke-width="1" stroke-linecap="square" stroke-linejoin="bevel" transform="matrix(1.004,0,0,1.004,167.668,345.878)"
font-family="Ubuntu" font-size="16" font-weight="400" font-style="normal" 
>
</g>

<g fill="none" stroke="#000000" stroke-opacity="1" stroke-width="1" stroke-linecap="square" stroke-linejoin="bevel" transform="matrix(1.004,0,0,1.004,167.668,345.878)"
font-family="Ubuntu" font-size="16" font-weight="400" font-style="normal" 
>
<text fill="#000000" fill-opacity="1" stroke="none" xml:space="preserve" x="4" y="22" font-family="Sans" font-size="14" font-weight="400" font-style="normal" 
 >inverseCdf(x, 0, 10)</text>
</g>

<g fill="none" stroke="#000000" stroke-opacity="1" stroke-width="1" stroke-linecap="square" stroke-linejoin="bevel" transform="matrix(1.004,0,0,1.004,167.668,345.878)"
font-family="Ubuntu" font-size="16" font-weight="400" font-style="normal" 
>
</g>

<g fill="none" stroke="#000000" stroke-opacity="1" stroke-width="1" stroke-linecap="square" stroke-linejoin="bevel" transform="matrix(1,0,0,1,0,0)"
font-family="Ubuntu" font-size="16" font-weight="400" font-style="normal" 
>
</g>

<g fill="none" stroke="#000000" stroke-opacity="1" stroke-width="1" stroke-linecap="square" stroke-linejoin="bevel" transform="matrix(1.004,0,0,1.004,167.668,345.878)"
font-family="Ubuntu" font-size="16" font-weight="400" font-style="normal" 
>
</g>

<g fill="none" stroke="#000000" stroke-opacity="1" stroke-width="1" stroke-linecap="square" stroke-linejoin="bevel" transform="matrix(1.004,0,0,1.004,167.668,345.878)"
font-family="Ubuntu" font-size="16" font-weight="400" font-style="normal" 
>
</g>

<g fill="none" stroke="#000000" stroke-opacity="1" stroke-width="1" stroke-linecap="square" stroke-linejoin="bevel" transform="matrix(1.004,0,0,1.004,167.668,345.878)"
font-family="Ubuntu" font-size="16" font-weight="400" font-style="normal" 
>
</g>

<g fill="none" stroke="#000000" stroke-opacity="1" stroke-width="1" stroke-linecap="square" stroke-linejoin="bevel" transform="matrix(1.004,0,0,1.004,0,0)"
font-family="Ubuntu" font-size="16" font-weight="400" font-style="normal" 
>
</g>

<g fill="none" stroke="#00c77e" stroke-opacity="1" stroke-width="3" stroke-linecap="round" stroke-linejoin="round" transform="matrix(1.004,0,0,1.004,0,0)"
font-family="Ubuntu" font-size="16" font-weight="400" font-style="normal" 
>
<path vector-effect="none" fill-rule="evenodd" d="M382.5,359.5 L439.5,359.5"/>
</g>

<g fill="none" stroke="#000000" stroke-opacity="1" stroke-width="1" stroke-linecap="square" stroke-linejoin="bevel" transform="matrix(1.004,0,0,1.004,0,0)"
font-family="Ubuntu" font-size="16" font-weight="400" font-style="normal" 
>
</g>

<g fill="none" stroke="#000000" stroke-opacity="1" stroke-width="1" stroke-linecap="square" stroke-linejoin="bevel" transform="matrix(1.004,0,0,1.004,0,0)"
font-family="Ubuntu" font-size="16" font-weight="400" font-style="normal" 
>
</g>

<g fill="none" stroke="#000000" stroke-opacity="1" stroke-width="1" stroke-linecap="square" stroke-linejoin="bevel" transform="matrix(1.004,0,0,1.004,0,0)"
font-family="Ubuntu" font-size="16" font-weight="400" font-style="normal" 
>
</g>

<g fill="none" stroke="#000000" stroke-opacity="1" stroke-width="1" stroke-linecap="square" stroke-linejoin="bevel" transform="matrix(1.004,0,0,1.004,0,0)"
font-family="Ubuntu" font-size="16" font-weight="400" font-style="normal" 
>
</g>

<g fill="none" stroke="#00c77e" stroke-opacity="1" stroke-width="3" stroke-linecap="round" stroke-linejoin="round" transform="matrix(1.004,0,0,1.004,0,0)"
font-family="Ubuntu" font-size="16" font-weight="400" font-style="normal" 
>
<polyline fill="none" vector-effect="none" points="66,426.3 66,426.3 66.4,425.9 66.8,425.5 67.2,425.1 67.6,424.7 68,424.3 68.4,423.9 68.8,423.5 69.2,423.1 69.6,422.7 70,422.3 70.4,421.9 70.8,421.5 71.2,421.1 71.6,420.6 72,420.2 72.4,419.8 72.8,419.4 73.2,419 73.6,418.6 74,418.2 74.4,417.8 74.8,417.4 75.2,417 75.6,416.6 76,416.2 76.4,415.8 76.8,415.4 77.2,415 77.6,414.6 77.9,414.2 78.3,413.8 78.7,413.4 79.1,413 79.5,412.6 79.9,412.2 80.3,411.8 80.7,411.4 81.1,411 81.5,410.6 81.9,410.2 82.3,409.7 82.7,409.3 83.1,408.9 83.5,408.5 83.9,408.1 84.3,407.7 84.7,407.3 85.1,406.9 85.5,406.5 85.9,406.1 86.3,405.7 86.7,405.3 87.1,404.9 87.5,404.5 87.9,404.1 88.3,403.7 88.7,403.3 89.1,402.9 89.5,402.5 89.9,402.1 90.3,401.7 90.7,401.3 91.1,400.9 91.5,400.5 91.9,400.1 92.3,399.7 92.7,399.3 93.1,398.8 93.5,398.4 93.9,398 94.3,397.6 94.7,397.2 95.1,396.8 95.5,396.4 95.9,396 96.3,395.6 96.7,395.2 97.1,394.8 97.5,394.4 97.9,394 98.3,393.6 98.7,393.2 99.1,392.8 99.5,392.4 99.9,392 100.3,391.6 100.7,391.2 101.1,390.8 101.4,390.4 101.8,390 102.2,389.6 102.6,389.2 103,388.8 103.4,388.4 103.8,387.9 104.2,387.5 104.6,387.1 105,386.7 105.4,386.3 105.8,385.9 106.2,385.5 106.6,385.1 107,384.7 107.4,384.3 107.8,383.9 108.2,383.5 108.6,383.1 109,382.7 109.4,382.3 109.8,381.9 110.2,381.5 110.6,381.1 111,380.7 111.4,380.3 111.8,379.9 112.2,379.5 112.6,379.1 113,378.7 113.4,378.3 113.8,377.9 114.2,377.5 114.6,377 115,376.6 115.4,376.2 115.8,375.8 116.2,375.4 116.6,375 117,374.6 117.4,374.2 117.8,373.8 118.2,373.4 118.6,373 119,372.6 119.4,372.2 119.8,371.8 120.2,371.4 120.6,371 121,370.6 121.4,370.2 121.8,369.8 122.2,369.4 122.6,369 123,368.6 123.4,368.2 123.8,367.8 124.2,367.4 124.5,367 124.9,366.6 125.3,366.1 125.7,365.7 126.1,365.3 126.5,364.9 126.9,364.5 127.3,364.1 127.7,363.7 128.1,363.3 128.5,362.9 128.9,362.5 129.3,362.1 129.7,361.7 130.1,361.3 130.5,360.9 130.9,360.5 131.3,360.1 131.7,359.7 132.1,359.3 132.5,358.9 132.9,358.5 133.3,358.1 133.7,357.7 134.1,357.3 134.5,356.9 134.9,356.5 135.3,356.1 135.7,355.7 136.1,355.2 136.5,354.8 136.9,354.4 137.3,354 137.7,353.6 138.1,353.2 138.5,352.8 138.9,352.4 139.3,352 139.7,351.6 140.1,351.2 140.5,350.8 140.9,350.4 141.3,350 141.7,349.6 142.1,349.2 142.5,348.8 142.9,348.4 143.3,348 143.7,347.6 144.1,347.2 144.5,346.8 144.9,346.4 145.3,346 145.7,345.6 146.1,345.2 146.5,344.8 146.9,344.3 147.3,343.9 147.7,343.5 148,343.1 148.4,342.7 148.8,342.3 149.2,341.9 149.6,341.5 150,341.1 150.4,340.7 150.8,340.3 151.2,339.9 151.6,339.5 152,339.1 152.4,338.7 152.8,338.3 153.2,337.9 153.6,337.5 154,337.1 154.4,336.7 154.8,336.3 155.2,335.9 155.6,335.5 156,335.1 156.4,334.7 156.8,334.3 157.2,333.9 157.6,333.4 158,333 158.4,332.6 158.8,332.2 159.2,331.8 159.6,331.4 160,331 160.4,330.6 160.8,330.2 161.2,329.8 161.6,329.4 162,329 162.4,328.6 162.8,328.2 163.2,327.8 163.6,327.4 164,327 164.4,326.6 164.8,326.2 165.2,325.8 165.6,325.4 166,325 166.4,324.6 166.8,324.2 167.2,323.8 167.6,323.4 168,323 168.4,322.5 168.8,322.1 169.2,321.7 169.6,321.3 170,320.9 170.4,320.5 170.8,320.1 171.2,319.7 171.5,319.3 171.9,318.9 172.3,318.5 172.7,318.1 173.1,317.7 173.5,317.3 173.9,316.9 174.3,316.5 174.7,316.1 175.1,315.7 175.5,315.3 175.9,314.9 176.3,314.5 176.7,314.1 177.1,313.7 177.5,313.3 177.9,312.9 178.3,312.5 178.7,312.1 179.1,311.6 179.5,311.2 179.9,310.8 180.3,310.4 180.7,310 181.1,309.6 181.5,309.2 181.9,308.8 182.3,308.4 182.7,308 183.1,307.6 183.5,307.2 183.9,306.8 184.3,306.4 184.7,306 185.1,305.6 185.5,305.2 185.9,304.8 186.3,304.4 186.7,304 187.1,303.6 187.5,303.2 187.9,302.8 188.3,302.4 188.7,302 189.1,301.6 189.5,301.2 189.9,300.7 190.3,300.3 190.7,299.9 191.1,299.5 191.5,299.1 191.9,298.7 192.3,298.3 192.7,297.9 193.1,297.5 193.5,297.1 193.9,296.7 194.3,296.3 194.7,295.9 195,295.5 195.4,295.1 195.8,294.7 196.2,294.3 196.6,293.9 197,293.5 197.4,293.1 197.8,292.7 198.2,292.3 198.6,291.9 199,291.5 199.4,291.1 199.8,290.7 200.2,290.3 200.6,289.8 201,289.4 201.4,289 201.8,288.6 202.2,288.2 202.6,287.8 203,287.4 203.4,287 203.8,286.6 204.2,286.2 204.6,285.8 205,285.4 205.4,285 205.8,284.6 206.2,284.2 206.6,283.8 207,283.4 207.4,283 207.8,282.6 208.2,282.2 208.6,281.8 209,281.4 209.4,281 209.8,280.6 210.2,280.2 210.6,279.8 211,279.4 211.4,278.9 211.8,278.5 212.2,278.1 212.6,277.7 213,277.3 213.4,276.9 213.8,276.5 214.2,276.1 214.6,275.7 215,275.3 215.4,274.9 215.8,274.5 216.2,274.1 216.6,273.7 217,273.3 217.4,272.9 217.8,272.5 218.1,272.1 218.5,271.7 218.9,271.3 219.3,270.9 219.7,270.5 220.1,270.1 220.5,269.7 220.9,269.3 221.3,268.9 221.7,268.5 222.1,268 222.5,267.6 222.9,267.2 223.3,266.8 223.7,266.4 224.1,266 224.5,265.6 224.9,265.2 225.3,264.8 225.7,264.4 226.1,264 226.5,263.6 226.9,263.2 227.3,262.8 227.7,262.4 228.1,262 228.5,261.6 228.9,261.2 229.3,260.8 229.7,260.4 230.1,260 230.5,259.6 230.9,259.2 231.3,258.8 231.7,258.4 232.1,258 232.5,257.6 232.9,257.1 233.3,256.7 233.7,256.3 234.1,255.9 234.5,255.5 234.9,255.1 235.3,254.7 235.7,254.3 236.1,253.9 236.5,253.5 236.9,253.1 237.3,252.7 237.7,252.3 238.1,251.9 238.5,251.5 238.9,251.1 239.3,250.7 239.7,250.3 240.1,249.9 240.5,249.5 240.9,249.1 241.3,248.7 241.6,248.3 242,247.9 242.4,247.5 242.8,247.1 243.2,246.7 243.6,246.2 244,245.8 244.4,245.4 244.8,245 245.2,244.6 245.6,244.2 246,243.8 246.4,243.4 246.8,243 247.2,242.6 247.6,242.2 248,241.8 248.4,241.4 248.8,241 249.2,240.6 249.6,240.2 250,239.8 250.4,239.4 250.8,239 251.2,238.6 251.6,238.2 252,237.8 252.4,237.4 252.8,237 253.2,236.6 253.6,236.2 254,235.8 254.4,235.3 254.8,234.9 255.2,234.5 255.6,234.1 256,233.7 256.4,233.3 256.8,232.9 257.2,232.5 257.6,232.1 258,231.7 258.4,231.3 258.8,230.9 259.2,230.5 259.6,230.1 260,229.7 260.4,229.3 260.8,228.9 261.2,228.5 261.6,228.1 262,227.7 262.4,227.3 262.8,226.9 263.2,226.5 263.6,226.1 264,225.7 264.4,225.3 264.8,224.9 265.1,224.4 265.5,224 265.9,223.6 266.3,223.2 266.7,222.8 267.1,222.4 267.5,222 267.9,221.6 268.3,221.2 268.7,220.8 269.1,220.4 269.5,220 269.9,219.6 270.3,219.2 270.7,218.8 271.1,218.4 271.5,218 271.9,217.6 272.3,217.2 272.7,216.8 273.1,216.4 273.5,216 273.9,215.6 274.3,215.2 274.7,214.8 275.1,214.4 275.5,214 275.9,213.5 276.3,213.1 276.7,212.7 277.1,212.3 277.5,211.9 277.9,211.5 278.3,211.1 278.7,210.7 279.1,210.3 279.5,209.9 279.9,209.5 280.3,209.1 280.7,208.7 281.1,208.3 281.5,207.9 281.9,207.5 282.3,207.1 282.7,206.7 283.1,206.3 283.5,205.9 283.9,205.5 284.3,205.1 284.7,204.7 285.1,204.3 285.5,203.9 285.9,203.5 286.3,203.1 286.7,202.6 287.1,202.2 287.5,201.8 287.9,201.4 288.3,201 288.6,200.6 289,200.2 289.4,199.8 289.8,199.4 290.2,199 290.6,198.6 291,198.2 291.4,197.8 291.8,197.4 292.2,197 292.6,196.6 293,196.2 293.4,195.8 293.8,195.4 294.2,195 294.6,194.6 295,194.2 295.4,193.8 295.8,193.4 296.2,193 296.6,192.6 297,192.2 297.4,191.7 297.8,191.3 298.2,190.9 298.6,190.5 299,190.1 299.4,189.7 299.8,189.3 300.2,188.9 300.6,188.5 301,188.1 301.4,187.7 301.8,187.3 302.2,186.9 302.6,186.5 303,186.1 303.4,185.7 303.8,185.3 304.2,184.9 304.6,184.5 305,184.1 305.4,183.7 305.8,183.3 306.2,182.9 306.6,182.5 307,182.1 307.4,181.7 307.8,181.3 308.2,180.8 308.6,180.4 309,180 309.4,179.6 309.8,179.2 310.2,178.8 310.6,178.4 311,178 311.4,177.6 311.8,177.2 312.1,176.8 312.5,176.4 312.9,176 313.3,175.6 313.7,175.2 314.1,174.8 314.5,174.4 314.9,174 315.3,173.6 315.7,173.2 316.1,172.8 316.5,172.4 316.9,172 317.3,171.6 317.7,171.2 318.1,170.8 318.5,170.4 318.9,169.9 319.3,169.5 319.7,169.1 320.1,168.7 320.5,168.3 320.9,167.9 321.3,167.5 321.7,167.1 322.1,166.7 322.5,166.3 322.9,165.9 323.3,165.5 323.7,165.1 324.1,164.7 324.5,164.3 324.9,163.9 325.3,163.5 325.7,163.1 326.1,162.7 326.5,162.3 326.9,161.9 327.3,161.5 327.7,161.1 328.1,160.7 328.5,160.3 328.9,159.9 329.3,159.5 329.7,159 330.1,158.6 330.5,158.2 330.9,157.8 331.3,157.4 331.7,157 332.1,156.6 332.5,156.2 332.9,155.8 333.3,155.4 333.7,155 334.1,154.6 334.5,154.2 334.9,153.8 335.2,153.4 335.6,153 336,152.6 336.4,152.2 336.8,151.8 337.2,151.4 337.6,151 338,150.6 338.4,150.2 338.8,149.8 339.2,149.4 339.6,149 340,148.6 340.4,148.1 340.8,147.7 341.2,147.3 341.6,146.9 342,146.5 342.4,146.1 342.8,145.7 343.2,145.3 343.6,144.9 344,144.5 344.4,144.1 344.8,143.7 345.2,143.3 345.6,142.9 346,142.5 346.4,142.1 346.8,141.7 347.2,141.3 347.6,140.9 348,140.5 348.4,140.1 348.8,139.7 349.2,139.3 349.6,138.9 350,138.5 350.4,138.1 350.8,137.7 351.2,137.2 351.6,136.8 352,136.4 352.4,136 352.8,135.6 353.2,135.2 353.6,134.8 354,134.4 354.4,134 354.8,133.6 355.2,133.2 355.6,132.8 356,132.4 356.4,132 356.8,131.6 357.2,131.2 357.6,130.8 358,130.4 358.4,130 358.7,129.6 359.1,129.2 359.5,128.8 359.9,128.4 360.3,128 360.7,127.6 361.1,127.2 361.5,126.8 361.9,126.3 362.3,125.9 362.7,125.5 363.1,125.1 363.5,124.7 363.9,124.3 364.3,123.9 364.7,123.5 365.1,123.1 365.5,122.7 365.9,122.3 366.3,121.9 366.7,121.5 367.1,121.1 367.5,120.7 367.9,120.3 368.3,119.9 368.7,119.5 369.1,119.1 369.5,118.7 369.9,118.3 370.3,117.9 370.7,117.5 371.1,117.1 371.5,116.7 371.9,116.3 372.3,115.9 372.7,115.4 373.1,115 373.5,114.6 373.9,114.2 374.3,113.8 374.7,113.4 375.1,113 375.5,112.6 375.9,112.2 376.3,111.8 376.7,111.4 377.1,111 377.5,110.6 377.9,110.2 378.3,109.8 378.7,109.4 379.1,109 379.5,108.6 379.9,108.2 380.3,107.8 380.7,107.4 381.1,107 381.5,106.6 381.9,106.2 382.2,105.8 382.6,105.4 383,105 383.4,104.5 383.8,104.1 384.2,103.7 384.6,103.3 385,102.9 385.4,102.5 385.8,102.1 386.2,101.7 386.6,101.3 387,100.9 387.4,100.5 387.8,100.1 388.2,99.7 388.6,99.3 389,98.9 389.4,98.5 389.8,98.1 390.2,97.7 390.6,97.3 391,96.9 391.4,96.5 391.8,96.1 392.2,95.7 392.6,95.3 393,94.9 393.4,94.5 393.8,94.1 394.2,93.6 394.6,93.2 395,92.8 395.4,92.4 395.8,92 396.2,91.6 396.6,91.2 397,90.8 397.4,90.4 397.8,90 398.2,89.6 398.6,89.2 399,88.8 399.4,88.4 399.8,88 400.2,87.6 400.6,87.2 401,86.8 401.4,86.4 401.8,86 402.2,85.6 402.6,85.2 403,84.8 403.4,84.4 403.8,84 404.2,83.6 404.6,83.2 405,82.7 405.4,82.3 405.7,81.9 406.1,81.5 406.5,81.1 406.9,80.7 407.3,80.3 407.7,79.9 408.1,79.5 408.5,79.1 408.9,78.7 409.3,78.3 409.7,77.9 410.1,77.5 410.5,77.1 410.9,76.7 411.3,76.3 411.7,75.9 412.1,75.5 412.5,75.1 412.9,74.7 413.3,74.3 413.7,73.9 414.1,73.5 414.5,73.1 414.9,72.7 415.3,72.3 415.7,71.8 416.1,71.4 416.5,71 416.9,70.6 417.3,70.2 417.7,69.8 418.1,69.4 418.5,69 418.9,68.6 419.3,68.2 419.7,67.8 420.1,67.4 420.5,67 420.9,66.6 421.3,66.2 421.7,65.8 422.1,65.4 422.5,65 422.9,64.6 423.3,64.2 423.7,63.8 424.1,63.4 424.5,63 424.9,62.6 425.3,62.2 425.7,61.8 426.1,61.4 426.5,60.9 426.9,60.5 427.3,60.1 427.7,59.7 428.1,59.3 428.5,58.9 428.8,58.5 429.2,58.1 429.6,57.7 430,57.3 430.4,56.9 430.8,56.5 431.2,56.1 431.6,55.7 432,55.3 432.4,54.9 432.8,54.5 433.2,54.1 433.6,53.7 434,53.3 434.4,52.9 434.8,52.5 435.2,52.1 435.6,51.7 436,51.3 436.4,50.9 436.8,50.5 437.2,50 437.6,49.6 438,49.2 438.4,48.8 438.8,48.4 439.2,48 439.6,47.6 440,47.2 440.4,46.8 440.8,46.4 441.2,46 441.6,45.6 442,45.2 442.4,44.8 442.8,44.4 443.2,44 443.6,43.6 444,43.2 444.4,42.8 444.8,42.4 445.2,42 445.6,41.6 446,41.2 446.4,40.8 446.8,40.4 447.2,40 447.6,39.6 448,39.1 448.4,38.7 448.8,38.3 449.2,37.9 449.6,37.5 450,37.1 450.4,36.7 450.8,36.3 451.2,35.9 451.6,35.5 452,35.1 452.3,34.7 452.7,34.3 453.1,33.9 453.5,33.5 453.9,33.1 454.3,32.7 454.7,32.3 455.1,31.9 455.5,31.5 455.9,31.1 456.3,30.7 456.7,30.3 457.1,29.9 457.5,29.5 457.9,29.1 458.3,28.7 458.7,28.2 459.1,27.8 459.5,27.4 459.9,27 460.3,26.6 460.7,26.2 461.1,25.8 461.5,25.4 461.9,25 462.3,24.6 462.7,24.2 463.1,23.8 463.5,23.4 463.9,23 " />
</g>

<g fill="none" stroke="#000000" stroke-opacity="1" stroke-width="1" stroke-linecap="square" stroke-linejoin="bevel" transform="matrix(1.004,0,0,1.004,0,0)"
font-family="Ubuntu" font-size="16" font-weight="400" font-style="normal" 
>
</g>

<g fill="none" stroke="#000000" stroke-opacity="1" stroke-width="1" stroke-linecap="square" stroke-linejoin="bevel" transform="matrix(1.004,0,0,1.004,167.668,368.97)"
font-family="Ubuntu" font-size="16" font-weight="400" font-style="normal" 
>
</g>

<g fill="none" stroke="#000000" stroke-opacity="1" stroke-width="1" stroke-linecap="square" stroke-linejoin="bevel" transform="matrix(1.004,0,0,1.004,167.668,368.97)"
font-family="Ubuntu" font-size="16" font-weight="400" font-style="normal" 
>
</g>

<g fill="none" stroke="#000000" stroke-opacity="1" stroke-width="1" stroke-linecap="square" stroke-linejoin="bevel" transform="matrix(1.004,0,0,1.004,167.668,368.97)"
font-family="Ubuntu" font-size="16" font-weight="400" font-style="normal" 
>
</g>

<g fill="none" stroke="#000000" stroke-opacity="1" stroke-width="1" stroke-linecap="square" stroke-linejoin="bevel" transform="matrix(1.004,0,0,1.004,167.668,368.97)"
font-family="Ubuntu" font-size="16" font-weight="400" font-style="normal" 
>
<text fill="#000000" fill-opacity="1" stroke="none" xml:space="preserve" x="4" y="22" font-family="Sans" font-size="14" font-weight="400" font-style="normal" 
 >inverseCdf(x, 2, 8)</text>
</g>

<g fill="none" stroke="#000000" stroke-opacity="1" stroke-width="1" stroke-linecap="square" stroke-linejoin="bevel" transform="matrix(1.004,0,0,1.004,167.668,368.97)"
font-family="Ubuntu" font-size="16" font-weight="400" font-style="normal" 
>
</g>

<g fill="none" stroke="#000000" stroke-opacity="1" stroke-width="1" stroke-linecap="square" stroke-linejoin="bevel" transform="matrix(1,0,0,1,0,0)"
font-family="Ubuntu" font-size="16" font-weight="400" font-style="normal" 
>
</g>

<g fill="none" stroke="#000000" stroke-opacity="1" stroke-width="1" stroke-linecap="square" stroke-linejoin="bevel" transform="matrix(1.004,0,0,1.004,167.668,368.97)"
font-family="Ubuntu" font-size="16" font-weight="400" font-style="normal" 
>
</g>

<g fill="none" stroke="#000000" stroke-opacity="1" stroke-width="1" stroke-linecap="square" stroke-linejoin="bevel" transform="matrix(1.004,0,0,1.004,167.668,368.97)"
font-family="Ubuntu" font-size="16" font-weight="400" font-style="normal" 
>
</g>

<g fill="none" stroke="#000000" stroke-opacity="1" stroke-width="1" stroke-linecap="square" stroke-linejoin="bevel" transform="matrix(1.004,0,0,1.004,167.668,368.97)"
font-family="Ubuntu" font-size="16" font-weight="400" font-style="normal" 
>
</g>

<g fill="none" stroke="#000000" stroke-opacity="1" stroke-width="1" stroke-linecap="square" stroke-linejoin="bevel" transform="matrix(1.004,0,0,1.004,0,0)"
font-family="Ubuntu" font-size="16" font-weight="400" font-style="normal" 
>
</g>

<g fill="none" stroke="#7e00c7" stroke-opacity="1" stroke-width="3" stroke-linecap="round" stroke-linejoin="round" transform="matrix(1.004,0,0,1.004,0,0)"
font-family="Ubuntu" font-size="16" font-weight="400" font-style="normal" 
>
<path vector-effect="none" fill-rule="evenodd" d="M382.5,382.5 L439.5,382.5"/>
</g>

<g fill="none" stroke="#000000" stroke-opacity="1" stroke-width="1" stroke-linecap="square" stroke-linejoin="bevel" transform="matrix(1.004,0,0,1.004,0,0)"
font-family="Ubuntu" font-size="16" font-weight="400" font-style="normal" 
>
</g>

<g fill="none" stroke="#000000" stroke-opacity="1" stroke-width="1" stroke-linecap="square" stroke-linejoin="bevel" transform="matrix(1.004,0,0,1.004,0,0)"
font-family="Ubuntu" font-size="16" font-weight="400" font-style="normal" 
>
</g>

<g fill="none" stroke="#000000" stroke-opacity="1" stroke-width="1" stroke-linecap="square" stroke-linejoin="bevel" transform="matrix(1.004,0,0,1.004,0,0)"
font-family="Ubuntu" font-size="16" font-weight="400" font-style="normal" 
>
</g>

<g fill="none" stroke="#000000" stroke-opacity="1" stroke-width="1" stroke-linecap="square" stroke-linejoin="bevel" transform="matrix(1.004,0,0,1.004,0,0)"
font-family="Ubuntu" font-size="16" font-weight="400" font-style="normal" 
>
</g>

<g fill="none" stroke="#7e00c7" stroke-opacity="1" stroke-width="3" stroke-linecap="round" stroke-linejoin="round" transform="matrix(1.004,0,0,1.004,0,0)"
font-family="Ubuntu" font-size="16" font-weight="400" font-style="normal" 
>
<polyline fill="none" vector-effect="none" points="66,345.6 66,345.6 66.4,345.4 66.8,345.2 67.2,344.9 67.6,344.7 68,344.4 68.4,344.2 68.8,343.9 69.2,343.7 69.6,343.5 70,343.2 70.4,343 70.8,342.7 71.2,342.5 71.6,342.2 72,342 72.4,341.8 72.8,341.5 73.2,341.3 73.6,341 74,340.8 74.4,340.6 74.8,340.3 75.2,340.1 75.6,339.8 76,339.6 76.4,339.3 76.8,339.1 77.2,338.9 77.6,338.6 77.9,338.4 78.3,338.1 78.7,337.9 79.1,337.6 79.5,337.4 79.9,337.2 80.3,336.9 80.7,336.7 81.1,336.4 81.5,336.2 81.9,336 82.3,335.7 82.7,335.5 83.1,335.2 83.5,335 83.9,334.7 84.3,334.5 84.7,334.3 85.1,334 85.5,333.8 85.9,333.5 86.3,333.3 86.7,333 87.1,332.8 87.5,332.6 87.9,332.3 88.3,332.1 88.7,331.8 89.1,331.6 89.5,331.3 89.9,331.1 90.3,330.9 90.7,330.6 91.1,330.4 91.5,330.1 91.9,329.9 92.3,329.7 92.7,329.4 93.1,329.2 93.5,328.9 93.9,328.7 94.3,328.4 94.7,328.2 95.1,328 95.5,327.7 95.9,327.5 96.3,327.2 96.7,327 97.1,326.7 97.5,326.5 97.9,326.3 98.3,326 98.7,325.8 99.1,325.5 99.5,325.3 99.9,325.1 100.3,324.8 100.7,324.6 101.1,324.3 101.4,324.1 101.8,323.8 102.2,323.6 102.6,323.4 103,323.1 103.4,322.9 103.8,322.6 104.2,322.4 104.6,322.1 105,321.9 105.4,321.7 105.8,321.4 106.2,321.2 106.6,320.9 107,320.7 107.4,320.4 107.8,320.2 108.2,320 108.6,319.7 109,319.5 109.4,319.2 109.8,319 110.2,318.8 110.6,318.5 111,318.3 111.4,318 111.8,317.8 112.2,317.5 112.6,317.3 113,317.1 113.4,316.8 113.8,316.6 114.2,316.3 114.6,316.1 115,315.8 115.4,315.6 115.8,315.4 116.2,315.1 116.6,314.9 117,314.6 117.4,314.4 117.8,314.2 118.2,313.9 118.6,313.7 119,313.4 119.4,313.2 119.8,312.9 120.2,312.7 120.6,312.5 121,312.2 121.4,312 121.8,311.7 122.2,311.5 122.6,311.2 123,311 123.4,310.8 123.8,310.5 124.2,310.3 124.5,310 124.9,309.8 125.3,309.5 125.7,309.3 126.1,309.1 126.5,308.8 126.9,308.6 127.3,308.3 127.7,308.1 128.1,307.9 128.5,307.6 128.9,307.4 129.3,307.1 129.7,306.9 130.1,306.6 130.5,306.4 130.9,306.2 131.3,305.9 131.7,305.7 132.1,305.4 132.5,305.2 132.9,304.9 133.3,304.7 133.7,304.5 134.1,304.2 134.5,304 134.9,303.7 135.3,303.5 135.7,303.3 136.1,303 136.5,302.8 136.9,302.5 137.3,302.3 137.7,302 138.1,301.8 138.5,301.6 138.9,301.3 139.3,301.1 139.7,300.8 140.1,300.6 140.5,300.3 140.9,300.1 141.3,299.9 141.7,299.6 142.1,299.4 142.5,299.1 142.9,298.9 143.3,298.6 143.7,298.4 144.1,298.2 144.5,297.9 144.9,297.7 145.3,297.4 145.7,297.2 146.1,297 146.5,296.7 146.9,296.5 147.3,296.2 147.7,296 148,295.7 148.4,295.5 148.8,295.3 149.2,295 149.6,294.8 150,294.5 150.4,294.3 150.8,294 151.2,293.8 151.6,293.6 152,293.3 152.4,293.1 152.8,292.8 153.2,292.6 153.6,292.4 154,292.1 154.4,291.9 154.8,291.6 155.2,291.4 155.6,291.1 156,290.9 156.4,290.7 156.8,290.4 157.2,290.2 157.6,289.9 158,289.7 158.4,289.4 158.8,289.2 159.2,289 159.6,288.7 160,288.5 160.4,288.2 160.8,288 161.2,287.7 161.6,287.5 162,287.3 162.4,287 162.8,286.8 163.2,286.5 163.6,286.3 164,286.1 164.4,285.8 164.8,285.6 165.2,285.3 165.6,285.1 166,284.8 166.4,284.6 166.8,284.4 167.2,284.1 167.6,283.9 168,283.6 168.4,283.4 168.8,283.1 169.2,282.9 169.6,282.7 170,282.4 170.4,282.2 170.8,281.9 171.2,281.7 171.5,281.5 171.9,281.2 172.3,281 172.7,280.7 173.1,280.5 173.5,280.2 173.9,280 174.3,279.8 174.7,279.5 175.1,279.3 175.5,279 175.9,278.8 176.3,278.5 176.7,278.3 177.1,278.1 177.5,277.8 177.9,277.6 178.3,277.3 178.7,277.1 179.1,276.8 179.5,276.6 179.9,276.4 180.3,276.1 180.7,275.9 181.1,275.6 181.5,275.4 181.9,275.2 182.3,274.9 182.7,274.7 183.1,274.4 183.5,274.2 183.9,273.9 184.3,273.7 184.7,273.5 185.1,273.2 185.5,273 185.9,272.7 186.3,272.5 186.7,272.2 187.1,272 187.5,271.8 187.9,271.5 188.3,271.3 188.7,271 189.1,270.8 189.5,270.6 189.9,270.3 190.3,270.1 190.7,269.8 191.1,269.6 191.5,269.3 191.9,269.1 192.3,268.9 192.7,268.6 193.1,268.4 193.5,268.1 193.9,267.9 194.3,267.6 194.7,267.4 195,267.2 195.4,266.9 195.8,266.7 196.2,266.4 196.6,266.2 197,265.9 197.4,265.7 197.8,265.5 198.2,265.2 198.6,265 199,264.7 199.4,264.5 199.8,264.3 200.2,264 200.6,263.8 201,263.5 201.4,263.3 201.8,263 202.2,262.8 202.6,262.6 203,262.3 203.4,262.1 203.8,261.8 204.2,261.6 204.6,261.3 205,261.1 205.4,260.9 205.8,260.6 206.2,260.4 206.6,260.1 207,259.9 207.4,259.7 207.8,259.4 208.2,259.2 208.6,258.9 209,258.7 209.4,258.4 209.8,258.2 210.2,258 210.6,257.7 211,257.5 211.4,257.2 211.8,257 212.2,256.7 212.6,256.5 213,256.3 213.4,256 213.8,255.8 214.2,255.5 214.6,255.3 215,255 215.4,254.8 215.8,254.6 216.2,254.3 216.6,254.1 217,253.8 217.4,253.6 217.8,253.4 218.1,253.1 218.5,252.9 218.9,252.6 219.3,252.4 219.7,252.1 220.1,251.9 220.5,251.7 220.9,251.4 221.3,251.2 221.7,250.9 222.1,250.7 222.5,250.4 222.9,250.2 223.3,250 223.7,249.7 224.1,249.5 224.5,249.2 224.9,249 225.3,248.8 225.7,248.5 226.1,248.3 226.5,248 226.9,247.8 227.3,247.5 227.7,247.3 228.1,247.1 228.5,246.8 228.9,246.6 229.3,246.3 229.7,246.1 230.1,245.8 230.5,245.6 230.9,245.4 231.3,245.1 231.7,244.9 232.1,244.6 232.5,244.4 232.9,244.1 233.3,243.9 233.7,243.7 234.1,243.4 234.5,243.2 234.9,242.9 235.3,242.7 235.7,242.5 236.1,242.2 236.5,242 236.9,241.7 237.3,241.5 237.7,241.2 238.1,241 238.5,240.8 238.9,240.5 239.3,240.3 239.7,240 240.1,239.8 240.5,239.5 240.9,239.3 241.3,239.1 241.6,238.8 242,238.6 242.4,238.3 242.8,238.1 243.2,237.9 243.6,237.6 244,237.4 244.4,237.1 244.8,236.9 245.2,236.6 245.6,236.4 246,236.2 246.4,235.9 246.8,235.7 247.2,235.4 247.6,235.2 248,234.9 248.4,234.7 248.8,234.5 249.2,234.2 249.6,234 250,233.7 250.4,233.5 250.8,233.2 251.2,233 251.6,232.8 252,232.5 252.4,232.3 252.8,232 253.2,231.8 253.6,231.6 254,231.3 254.4,231.1 254.8,230.8 255.2,230.6 255.6,230.3 256,230.1 256.4,229.9 256.8,229.6 257.2,229.4 257.6,229.1 258,228.9 258.4,228.6 258.8,228.4 259.2,228.2 259.6,227.9 260,227.7 260.4,227.4 260.8,227.2 261.2,227 261.6,226.7 262,226.5 262.4,226.2 262.8,226 263.2,225.7 263.6,225.5 264,225.3 264.4,225 264.8,224.8 265.1,224.5 265.5,224.3 265.9,224 266.3,223.8 266.7,223.6 267.1,223.3 267.5,223.1 267.9,222.8 268.3,222.6 268.7,222.3 269.1,222.1 269.5,221.9 269.9,221.6 270.3,221.4 270.7,221.1 271.1,220.9 271.5,220.7 271.9,220.4 272.3,220.2 272.7,219.9 273.1,219.7 273.5,219.4 273.9,219.2 274.3,219 274.7,218.7 275.1,218.5 275.5,218.2 275.9,218 276.3,217.7 276.7,217.5 277.1,217.3 277.5,217 277.9,216.8 278.3,216.5 278.7,216.3 279.1,216.1 279.5,215.8 279.9,215.6 280.3,215.3 280.7,215.1 281.1,214.8 281.5,214.6 281.9,214.4 282.3,214.1 282.7,213.9 283.1,213.6 283.5,213.4 283.9,213.1 284.3,212.9 284.7,212.7 285.1,212.4 285.5,212.2 285.9,211.9 286.3,211.7 286.7,211.4 287.1,211.2 287.5,211 287.9,210.7 288.3,210.5 288.6,210.2 289,210 289.4,209.8 289.8,209.5 290.2,209.3 290.6,209 291,208.8 291.4,208.5 291.8,208.3 292.2,208.1 292.6,207.8 293,207.6 293.4,207.3 293.8,207.1 294.2,206.8 294.6,206.6 295,206.4 295.4,206.1 295.8,205.9 296.2,205.6 296.6,205.4 297,205.2 297.4,204.9 297.8,204.7 298.2,204.4 298.6,204.2 299,203.9 299.4,203.7 299.8,203.5 300.2,203.2 300.6,203 301,202.7 301.4,202.5 301.8,202.2 302.2,202 302.6,201.8 303,201.5 303.4,201.3 303.8,201 304.2,200.8 304.6,200.5 305,200.3 305.4,200.1 305.8,199.8 306.2,199.6 306.6,199.3 307,199.1 307.4,198.9 307.8,198.6 308.2,198.4 308.6,198.1 309,197.9 309.4,197.6 309.8,197.4 310.2,197.2 310.6,196.9 311,196.7 311.4,196.4 311.8,196.2 312.1,195.9 312.5,195.7 312.9,195.5 313.3,195.2 313.7,195 314.1,194.7 314.5,194.5 314.9,194.3 315.3,194 315.7,193.8 316.1,193.5 316.5,193.3 316.9,193 317.3,192.8 317.7,192.6 318.1,192.3 318.5,192.1 318.9,191.8 319.3,191.6 319.7,191.3 320.1,191.1 320.5,190.9 320.9,190.6 321.3,190.4 321.7,190.1 322.1,189.9 322.5,189.6 322.9,189.4 323.3,189.2 323.7,188.9 324.1,188.7 324.5,188.4 324.9,188.2 325.3,188 325.7,187.7 326.1,187.5 326.5,187.2 326.9,187 327.3,186.7 327.7,186.5 328.1,186.3 328.5,186 328.9,185.8 329.3,185.5 329.7,185.3 330.1,185 330.5,184.8 330.9,184.6 331.3,184.3 331.7,184.1 332.1,183.8 332.5,183.6 332.9,183.4 333.3,183.1 333.7,182.9 334.1,182.6 334.5,182.4 334.9,182.1 335.2,181.9 335.6,181.7 336,181.4 336.4,181.2 336.8,180.9 337.2,180.7 337.6,180.4 338,180.2 338.4,180 338.8,179.7 339.2,179.5 339.6,179.2 340,179 340.4,178.7 340.8,178.5 341.2,178.3 341.6,178 342,177.8 342.4,177.5 342.8,177.3 343.2,177.1 343.6,176.8 344,176.6 344.4,176.3 344.8,176.1 345.2,175.8 345.6,175.6 346,175.4 346.4,175.1 346.8,174.9 347.2,174.6 347.6,174.4 348,174.1 348.4,173.9 348.8,173.7 349.2,173.4 349.6,173.2 350,172.9 350.4,172.7 350.8,172.5 351.2,172.2 351.6,172 352,171.7 352.4,171.5 352.8,171.2 353.2,171 353.6,170.8 354,170.5 354.4,170.3 354.8,170 355.2,169.8 355.6,169.5 356,169.3 356.4,169.1 356.8,168.8 357.2,168.6 357.6,168.3 358,168.1 358.4,167.8 358.7,167.6 359.1,167.4 359.5,167.1 359.9,166.9 360.3,166.6 360.7,166.4 361.1,166.2 361.5,165.9 361.9,165.7 362.3,165.4 362.7,165.2 363.1,164.9 363.5,164.7 363.9,164.5 364.3,164.2 364.7,164 365.1,163.7 365.5,163.5 365.9,163.2 366.3,163 366.7,162.8 367.1,162.5 367.5,162.3 367.9,162 368.3,161.8 368.7,161.6 369.1,161.3 369.5,161.1 369.9,160.8 370.3,160.6 370.7,160.3 371.1,160.1 371.5,159.9 371.9,159.6 372.3,159.4 372.7,159.1 373.1,158.9 373.5,158.6 373.9,158.4 374.3,158.2 374.7,157.9 375.1,157.7 375.5,157.4 375.9,157.2 376.3,156.9 376.7,156.7 377.1,156.5 377.5,156.2 377.9,156 378.3,155.7 378.7,155.5 379.1,155.3 379.5,155 379.9,154.8 380.3,154.5 380.7,154.3 381.1,154 381.5,153.8 381.9,153.6 382.2,153.3 382.6,153.1 383,152.8 383.4,152.6 383.8,152.3 384.2,152.1 384.6,151.9 385,151.6 385.4,151.4 385.8,151.1 386.2,150.9 386.6,150.7 387,150.4 387.4,150.2 387.8,149.9 388.2,149.7 388.6,149.4 389,149.2 389.4,149 389.8,148.7 390.2,148.5 390.6,148.2 391,148 391.4,147.7 391.8,147.5 392.2,147.3 392.6,147 393,146.8 393.4,146.5 393.8,146.3 394.2,146 394.6,145.8 395,145.6 395.4,145.3 395.8,145.1 396.2,144.8 396.6,144.6 397,144.4 397.4,144.1 397.8,143.9 398.2,143.6 398.6,143.4 399,143.1 399.4,142.9 399.8,142.7 400.2,142.4 400.6,142.2 401,141.9 401.4,141.7 401.8,141.4 402.2,141.2 402.6,141 403,140.7 403.4,140.5 403.8,140.2 404.2,140 404.6,139.8 405,139.5 405.4,139.3 405.7,139 406.1,138.8 406.5,138.5 406.9,138.3 407.3,138.1 407.7,137.8 408.1,137.6 408.5,137.3 408.9,137.1 409.3,136.8 409.7,136.6 410.1,136.4 410.5,136.1 410.9,135.9 411.3,135.6 411.7,135.4 412.1,135.1 412.5,134.9 412.9,134.7 413.3,134.4 413.7,134.2 414.1,133.9 414.5,133.7 414.9,133.5 415.3,133.2 415.7,133 416.1,132.7 416.5,132.5 416.9,132.2 417.3,132 417.7,131.8 418.1,131.5 418.5,131.3 418.9,131 419.3,130.8 419.7,130.5 420.1,130.3 420.5,130.1 420.9,129.8 421.3,129.6 421.7,129.3 422.1,129.1 422.5,128.9 422.9,128.6 423.3,128.4 423.7,128.1 424.1,127.9 424.5,127.6 424.9,127.4 425.3,127.2 425.7,126.9 426.1,126.7 426.5,126.4 426.9,126.2 427.3,125.9 427.7,125.7 428.1,125.5 428.5,125.2 428.8,125 429.2,124.7 429.6,124.5 430,124.2 430.4,124 430.8,123.8 431.2,123.5 431.6,123.3 432,123 432.4,122.8 432.8,122.6 433.2,122.3 433.6,122.1 434,121.8 434.4,121.6 434.8,121.3 435.2,121.1 435.6,120.9 436,120.6 436.4,120.4 436.8,120.1 437.2,119.9 437.6,119.6 438,119.4 438.4,119.2 438.8,118.9 439.2,118.7 439.6,118.4 440,118.2 440.4,118 440.8,117.7 441.2,117.5 441.6,117.2 442,117 442.4,116.7 442.8,116.5 443.2,116.3 443.6,116 444,115.8 444.4,115.5 444.8,115.3 445.2,115 445.6,114.8 446,114.6 446.4,114.3 446.8,114.1 447.2,113.8 447.6,113.6 448,113.3 448.4,113.1 448.8,112.9 449.2,112.6 449.6,112.4 450,112.1 450.4,111.9 450.8,111.7 451.2,111.4 451.6,111.2 452,110.9 452.3,110.7 452.7,110.4 453.1,110.2 453.5,110 453.9,109.7 454.3,109.5 454.7,109.2 455.1,109 455.5,108.7 455.9,108.5 456.3,108.3 456.7,108 457.1,107.8 457.5,107.5 457.9,107.3 458.3,107.1 458.7,106.8 459.1,106.6 459.5,106.3 459.9,106.1 460.3,105.8 460.7,105.6 461.1,105.4 461.5,105.1 461.9,104.9 462.3,104.6 462.7,104.4 463.1,104.1 463.5,103.9 463.9,103.7 " />
</g>

<g fill="none" stroke="#000000" stroke-opacity="1" stroke-width="1" stroke-linecap="square" stroke-linejoin="bevel" transform="matrix(1.004,0,0,1.004,0,0)"
font-family="Ubuntu" font-size="16" font-weight="400" font-style="normal" 
>
</g>

<g fill="none" stroke="#000000" stroke-opacity="1" stroke-width="1" stroke-linecap="square" stroke-linejoin="bevel" transform="matrix(1.004,0,0,1.004,167.668,392.062)"
font-family="Ubuntu" font-size="16" font-weight="400" font-style="normal" 
>
</g>

<g fill="none" stroke="#000000" stroke-opacity="1" stroke-width="1" stroke-linecap="square" stroke-linejoin="bevel" transform="matrix(1.004,0,0,1.004,167.668,392.062)"
font-family="Ubuntu" font-size="16" font-weight="400" font-style="normal" 
>
</g>

<g fill="none" stroke="#000000" stroke-opacity="1" stroke-width="1" stroke-linecap="square" stroke-linejoin="bevel" transform="matrix(1.004,0,0,1.004,167.668,392.062)"
font-family="Ubuntu" font-size="16" font-weight="400" font-style="normal" 
>
</g>

<g fill="none" stroke="#000000" stroke-opacity="1" stroke-width="1" stroke-linecap="square" stroke-linejoin="bevel" transform="matrix(1.004,0,0,1.004,167.668,392.062)"
font-family="Ubuntu" font-size="16" font-weight="400" font-style="normal" 
>
<text fill="#000000" fill-opacity="1" stroke="none" xml:space="preserve" x="4" y="22" font-family="Sans" font-size="14" font-weight="400" font-style="normal" 
 >inverseCdf(x, 4, 6)</text>
</g>

<g fill="none" stroke="#000000" stroke-opacity="1" stroke-width="1" stroke-linecap="square" stroke-linejoin="bevel" transform="matrix(1.004,0,0,1.004,167.668,392.062)"
font-family="Ubuntu" font-size="16" font-weight="400" font-style="normal" 
>
</g>

<g fill="none" stroke="#000000" stroke-opacity="1" stroke-width="1" stroke-linecap="square" stroke-linejoin="bevel" transform="matrix(1,0,0,1,0,0)"
font-family="Ubuntu" font-size="16" font-weight="400" font-style="normal" 
>
</g>

<g fill="none" stroke="#000000" stroke-opacity="1" stroke-width="1" stroke-linecap="square" stroke-linejoin="bevel" transform="matrix(1.004,0,0,1.004,167.668,392.062)"
font-family="Ubuntu" font-size="16" font-weight="400" font-style="normal" 
>
</g>

<g fill="none" stroke="#000000" stroke-opacity="1" stroke-width="1" stroke-linecap="square" stroke-linejoin="bevel" transform="matrix(1.004,0,0,1.004,167.668,392.062)"
font-family="Ubuntu" font-size="16" font-weight="400" font-style="normal" 
>
</g>

<g fill="none" stroke="#000000" stroke-opacity="1" stroke-width="1" stroke-linecap="square" stroke-linejoin="bevel" transform="matrix(1.004,0,0,1.004,167.668,392.062)"
font-family="Ubuntu" font-size="16" font-weight="400" font-style="normal" 
>
</g>

<g fill="none" stroke="#000000" stroke-opacity="1" stroke-width="1" stroke-linecap="square" stroke-linejoin="bevel" transform="matrix(1.004,0,0,1.004,0,0)"
font-family="Ubuntu" font-size="16" font-weight="400" font-style="normal" 
>
</g>

<g fill="none" stroke="#c77e00" stroke-opacity="1" stroke-width="3" stroke-linecap="round" stroke-linejoin="round" transform="matrix(1.004,0,0,1.004,0,0)"
font-family="Ubuntu" font-size="16" font-weight="400" font-style="normal" 
>
<path vector-effect="none" fill-rule="evenodd" d="M382.5,405.5 L439.5,405.5"/>
</g>

<g fill="none" stroke="#000000" stroke-opacity="1" stroke-width="1" stroke-linecap="square" stroke-linejoin="bevel" transform="matrix(1.004,0,0,1.004,0,0)"
font-family="Ubuntu" font-size="16" font-weight="400" font-style="normal" 
>
</g>

<g fill="none" stroke="#000000" stroke-opacity="1" stroke-width="1" stroke-linecap="square" stroke-linejoin="bevel" transform="matrix(1.004,0,0,1.004,0,0)"
font-family="Ubuntu" font-size="16" font-weight="400" font-style="normal" 
>
</g>

<g fill="none" stroke="#000000" stroke-opacity="1" stroke-width="1" stroke-linecap="square" stroke-linejoin="bevel" transform="matrix(1.004,0,0,1.004,0,0)"
font-family="Ubuntu" font-size="16" font-weight="400" font-style="normal" 
>
</g>

<g fill="none" stroke="#000000" stroke-opacity="1" stroke-width="1" stroke-linecap="square" stroke-linejoin="bevel" transform="matrix(1.004,0,0,1.004,0,0)"
font-family="Ubuntu" font-size="16" font-weight="400" font-style="normal" 
>
</g>

<g fill="none" stroke="#c77e00" stroke-opacity="1" stroke-width="3" stroke-linecap="round" stroke-linejoin="round" transform="matrix(1.004,0,0,1.004,0,0)"
font-family="Ubuntu" font-size="16" font-weight="400" font-style="normal" 
>
<polyline fill="none" vector-effect="none" points="66,265 66,265 66.4,264.9 66.8,264.8 67.2,264.7 67.6,264.7 68,264.6 68.4,264.5 68.8,264.4 69.2,264.3 69.6,264.3 70,264.2 70.4,264.1 70.8,264 71.2,263.9 71.6,263.8 72,263.8 72.4,263.7 72.8,263.6 73.2,263.5 73.6,263.4 74,263.4 74.4,263.3 74.8,263.2 75.2,263.1 75.6,263 76,263 76.4,262.9 76.8,262.8 77.2,262.7 77.6,262.6 77.9,262.6 78.3,262.5 78.7,262.4 79.1,262.3 79.5,262.2 79.9,262.2 80.3,262.1 80.7,262 81.1,261.9 81.5,261.8 81.9,261.8 82.3,261.7 82.7,261.6 83.1,261.5 83.5,261.4 83.9,261.3 84.3,261.3 84.7,261.2 85.1,261.1 85.5,261 85.9,260.9 86.3,260.9 86.7,260.8 87.1,260.7 87.5,260.6 87.9,260.5 88.3,260.5 88.7,260.4 89.1,260.3 89.5,260.2 89.9,260.1 90.3,260.1 90.7,260 91.1,259.9 91.5,259.8 91.9,259.7 92.3,259.7 92.7,259.6 93.1,259.5 93.5,259.4 93.9,259.3 94.3,259.2 94.7,259.2 95.1,259.1 95.5,259 95.9,258.9 96.3,258.8 96.7,258.8 97.1,258.7 97.5,258.6 97.9,258.5 98.3,258.4 98.7,258.4 99.1,258.3 99.5,258.2 99.9,258.1 100.3,258 100.7,258 101.1,257.9 101.4,257.8 101.8,257.7 102.2,257.6 102.6,257.6 103,257.5 103.4,257.4 103.8,257.3 104.2,257.2 104.6,257.1 105,257.1 105.4,257 105.8,256.9 106.2,256.8 106.6,256.7 107,256.7 107.4,256.6 107.8,256.5 108.2,256.4 108.6,256.3 109,256.3 109.4,256.2 109.8,256.1 110.2,256 110.6,255.9 111,255.9 111.4,255.8 111.8,255.7 112.2,255.6 112.6,255.5 113,255.5 113.4,255.4 113.8,255.3 114.2,255.2 114.6,255.1 115,255 115.4,255 115.8,254.9 116.2,254.8 116.6,254.7 117,254.6 117.4,254.6 117.8,254.5 118.2,254.4 118.6,254.3 119,254.2 119.4,254.2 119.8,254.1 120.2,254 120.6,253.9 121,253.8 121.4,253.8 121.8,253.7 122.2,253.6 122.6,253.5 123,253.4 123.4,253.4 123.8,253.3 124.2,253.2 124.5,253.1 124.9,253 125.3,252.9 125.7,252.9 126.1,252.8 126.5,252.7 126.9,252.6 127.3,252.5 127.7,252.5 128.1,252.4 128.5,252.3 128.9,252.2 129.3,252.1 129.7,252.1 130.1,252 130.5,251.9 130.9,251.8 131.3,251.7 131.7,251.7 132.1,251.6 132.5,251.5 132.9,251.4 133.3,251.3 133.7,251.3 134.1,251.2 134.5,251.1 134.9,251 135.3,250.9 135.7,250.9 136.1,250.8 136.5,250.7 136.9,250.6 137.3,250.5 137.7,250.4 138.1,250.4 138.5,250.3 138.9,250.2 139.3,250.1 139.7,250 140.1,250 140.5,249.9 140.9,249.8 141.3,249.7 141.7,249.6 142.1,249.6 142.5,249.5 142.9,249.4 143.3,249.3 143.7,249.2 144.1,249.2 144.5,249.1 144.9,249 145.3,248.9 145.7,248.8 146.1,248.8 146.5,248.7 146.9,248.6 147.3,248.5 147.7,248.4 148,248.3 148.4,248.3 148.8,248.2 149.2,248.1 149.6,248 150,247.9 150.4,247.9 150.8,247.8 151.2,247.7 151.6,247.6 152,247.5 152.4,247.5 152.8,247.4 153.2,247.3 153.6,247.2 154,247.1 154.4,247.1 154.8,247 155.2,246.9 155.6,246.8 156,246.7 156.4,246.7 156.8,246.6 157.2,246.5 157.6,246.4 158,246.3 158.4,246.2 158.8,246.2 159.2,246.1 159.6,246 160,245.9 160.4,245.8 160.8,245.8 161.2,245.7 161.6,245.6 162,245.5 162.4,245.4 162.8,245.4 163.2,245.3 163.6,245.2 164,245.1 164.4,245 164.8,245 165.2,244.9 165.6,244.8 166,244.7 166.4,244.6 166.8,244.6 167.2,244.5 167.6,244.4 168,244.3 168.4,244.2 168.8,244.1 169.2,244.1 169.6,244 170,243.9 170.4,243.8 170.8,243.7 171.2,243.7 171.5,243.6 171.9,243.5 172.3,243.4 172.7,243.3 173.1,243.3 173.5,243.2 173.9,243.1 174.3,243 174.7,242.9 175.1,242.9 175.5,242.8 175.9,242.7 176.3,242.6 176.7,242.5 177.1,242.5 177.5,242.4 177.9,242.3 178.3,242.2 178.7,242.1 179.1,242 179.5,242 179.9,241.9 180.3,241.8 180.7,241.7 181.1,241.6 181.5,241.6 181.9,241.5 182.3,241.4 182.7,241.3 183.1,241.2 183.5,241.2 183.9,241.1 184.3,241 184.7,240.9 185.1,240.8 185.5,240.8 185.9,240.7 186.3,240.6 186.7,240.5 187.1,240.4 187.5,240.4 187.9,240.3 188.3,240.2 188.7,240.1 189.1,240 189.5,240 189.9,239.9 190.3,239.8 190.7,239.7 191.1,239.6 191.5,239.5 191.9,239.5 192.3,239.4 192.7,239.3 193.1,239.2 193.5,239.1 193.9,239.1 194.3,239 194.7,238.9 195,238.8 195.4,238.7 195.8,238.7 196.2,238.6 196.6,238.5 197,238.4 197.4,238.3 197.8,238.3 198.2,238.2 198.6,238.1 199,238 199.4,237.9 199.8,237.9 200.2,237.8 200.6,237.7 201,237.6 201.4,237.5 201.8,237.4 202.2,237.4 202.6,237.3 203,237.2 203.4,237.1 203.8,237 204.2,237 204.6,236.9 205,236.8 205.4,236.7 205.8,236.6 206.2,236.6 206.6,236.5 207,236.4 207.4,236.3 207.8,236.2 208.2,236.2 208.6,236.1 209,236 209.4,235.9 209.8,235.8 210.2,235.8 210.6,235.7 211,235.6 211.4,235.5 211.8,235.4 212.2,235.3 212.6,235.3 213,235.2 213.4,235.1 213.8,235 214.2,234.9 214.6,234.9 215,234.8 215.4,234.7 215.8,234.6 216.2,234.5 216.6,234.5 217,234.4 217.4,234.3 217.8,234.2 218.1,234.1 218.5,234.1 218.9,234 219.3,233.9 219.7,233.8 220.1,233.7 220.5,233.7 220.9,233.6 221.3,233.5 221.7,233.4 222.1,233.3 222.5,233.2 222.9,233.2 223.3,233.1 223.7,233 224.1,232.9 224.5,232.8 224.9,232.8 225.3,232.7 225.7,232.6 226.1,232.5 226.5,232.4 226.9,232.4 227.3,232.3 227.7,232.2 228.1,232.1 228.5,232 228.9,232 229.3,231.9 229.7,231.8 230.1,231.7 230.5,231.6 230.9,231.6 231.3,231.5 231.7,231.4 232.1,231.3 232.5,231.2 232.9,231.1 233.3,231.1 233.7,231 234.1,230.9 234.5,230.8 234.9,230.7 235.3,230.7 235.7,230.6 236.1,230.5 236.5,230.4 236.9,230.3 237.3,230.3 237.7,230.2 238.1,230.1 238.5,230 238.9,229.9 239.3,229.9 239.7,229.8 240.1,229.7 240.5,229.6 240.9,229.5 241.3,229.5 241.6,229.4 242,229.3 242.4,229.2 242.8,229.1 243.2,229.1 243.6,229 244,228.9 244.4,228.8 244.8,228.7 245.2,228.6 245.6,228.6 246,228.5 246.4,228.4 246.8,228.3 247.2,228.2 247.6,228.2 248,228.1 248.4,228 248.8,227.9 249.2,227.8 249.6,227.8 250,227.7 250.4,227.6 250.8,227.5 251.2,227.4 251.6,227.4 252,227.3 252.4,227.2 252.8,227.1 253.2,227 253.6,227 254,226.9 254.4,226.8 254.8,226.7 255.2,226.6 255.6,226.5 256,226.5 256.4,226.4 256.8,226.3 257.2,226.2 257.6,226.1 258,226.1 258.4,226 258.8,225.9 259.2,225.8 259.6,225.7 260,225.7 260.4,225.6 260.8,225.5 261.2,225.4 261.6,225.3 262,225.3 262.4,225.2 262.8,225.1 263.2,225 263.6,224.9 264,224.9 264.4,224.8 264.8,224.7 265.1,224.6 265.5,224.5 265.9,224.4 266.3,224.4 266.7,224.3 267.1,224.2 267.5,224.1 267.9,224 268.3,224 268.7,223.9 269.1,223.8 269.5,223.7 269.9,223.6 270.3,223.6 270.7,223.5 271.1,223.4 271.5,223.3 271.9,223.2 272.3,223.2 272.7,223.1 273.1,223 273.5,222.9 273.9,222.8 274.3,222.8 274.7,222.7 275.1,222.6 275.5,222.5 275.9,222.4 276.3,222.3 276.7,222.3 277.1,222.2 277.5,222.1 277.9,222 278.3,221.9 278.7,221.9 279.1,221.8 279.5,221.7 279.9,221.6 280.3,221.5 280.7,221.5 281.1,221.4 281.5,221.3 281.9,221.2 282.3,221.1 282.7,221.1 283.1,221 283.5,220.9 283.9,220.8 284.3,220.7 284.7,220.7 285.1,220.6 285.5,220.5 285.9,220.4 286.3,220.3 286.7,220.2 287.1,220.2 287.5,220.1 287.9,220 288.3,219.9 288.6,219.8 289,219.8 289.4,219.7 289.8,219.6 290.2,219.5 290.6,219.4 291,219.4 291.4,219.3 291.8,219.2 292.2,219.1 292.6,219 293,219 293.4,218.9 293.8,218.8 294.2,218.7 294.6,218.6 295,218.6 295.4,218.5 295.8,218.4 296.2,218.3 296.6,218.2 297,218.2 297.4,218.1 297.8,218 298.2,217.9 298.6,217.8 299,217.7 299.4,217.7 299.8,217.6 300.2,217.5 300.6,217.4 301,217.3 301.4,217.3 301.8,217.2 302.2,217.1 302.6,217 303,216.9 303.4,216.9 303.8,216.8 304.2,216.7 304.6,216.6 305,216.5 305.4,216.5 305.8,216.4 306.2,216.3 306.6,216.2 307,216.1 307.4,216.1 307.8,216 308.2,215.9 308.6,215.8 309,215.7 309.4,215.6 309.8,215.6 310.2,215.5 310.6,215.4 311,215.3 311.4,215.2 311.8,215.2 312.1,215.1 312.5,215 312.9,214.9 313.3,214.8 313.7,214.8 314.1,214.7 314.5,214.6 314.9,214.5 315.3,214.4 315.7,214.4 316.1,214.3 316.5,214.2 316.9,214.1 317.3,214 317.7,214 318.1,213.9 318.5,213.8 318.9,213.7 319.3,213.6 319.7,213.5 320.1,213.5 320.5,213.4 320.9,213.3 321.3,213.2 321.7,213.1 322.1,213.1 322.5,213 322.9,212.9 323.3,212.8 323.7,212.7 324.1,212.7 324.5,212.6 324.9,212.5 325.3,212.4 325.7,212.3 326.1,212.3 326.5,212.2 326.9,212.1 327.3,212 327.7,211.9 328.1,211.9 328.5,211.8 328.9,211.7 329.3,211.6 329.7,211.5 330.1,211.4 330.5,211.4 330.9,211.3 331.3,211.2 331.7,211.1 332.1,211 332.5,211 332.9,210.9 333.3,210.8 333.7,210.7 334.1,210.6 334.5,210.6 334.9,210.5 335.2,210.4 335.6,210.3 336,210.2 336.4,210.2 336.8,210.1 337.2,210 337.6,209.9 338,209.8 338.4,209.8 338.8,209.7 339.2,209.6 339.6,209.5 340,209.4 340.4,209.3 340.8,209.3 341.2,209.2 341.6,209.1 342,209 342.4,208.9 342.8,208.9 343.2,208.8 343.6,208.7 344,208.6 344.4,208.5 344.8,208.5 345.2,208.4 345.6,208.3 346,208.2 346.4,208.1 346.8,208.1 347.2,208 347.6,207.9 348,207.8 348.4,207.7 348.8,207.7 349.2,207.6 349.6,207.5 350,207.4 350.4,207.3 350.8,207.3 351.2,207.2 351.6,207.1 352,207 352.4,206.9 352.8,206.8 353.2,206.8 353.6,206.7 354,206.6 354.4,206.5 354.8,206.4 355.2,206.4 355.6,206.3 356,206.2 356.4,206.1 356.8,206 357.2,206 357.6,205.9 358,205.8 358.4,205.7 358.7,205.6 359.1,205.6 359.5,205.5 359.9,205.4 360.3,205.3 360.7,205.2 361.1,205.2 361.5,205.1 361.9,205 362.3,204.9 362.7,204.8 363.1,204.7 363.5,204.7 363.9,204.6 364.3,204.5 364.7,204.4 365.1,204.3 365.5,204.3 365.9,204.2 366.3,204.1 366.7,204 367.1,203.9 367.5,203.9 367.9,203.8 368.3,203.7 368.7,203.6 369.1,203.5 369.5,203.5 369.9,203.4 370.3,203.3 370.7,203.2 371.1,203.1 371.5,203.1 371.9,203 372.3,202.9 372.7,202.8 373.1,202.7 373.5,202.6 373.9,202.6 374.3,202.5 374.7,202.4 375.1,202.3 375.5,202.2 375.9,202.2 376.3,202.1 376.7,202 377.1,201.9 377.5,201.8 377.9,201.8 378.3,201.7 378.7,201.6 379.1,201.5 379.5,201.4 379.9,201.4 380.3,201.3 380.7,201.2 381.1,201.1 381.5,201 381.9,201 382.2,200.9 382.6,200.8 383,200.7 383.4,200.6 383.8,200.5 384.2,200.5 384.6,200.4 385,200.3 385.4,200.2 385.8,200.1 386.2,200.1 386.6,200 387,199.9 387.4,199.8 387.8,199.7 388.2,199.7 388.6,199.6 389,199.5 389.4,199.4 389.8,199.3 390.2,199.3 390.6,199.2 391,199.1 391.4,199 391.8,198.9 392.2,198.9 392.6,198.8 393,198.7 393.4,198.6 393.8,198.5 394.2,198.4 394.6,198.4 395,198.3 395.4,198.2 395.8,198.1 396.2,198 396.6,198 397,197.9 397.4,197.8 397.8,197.7 398.2,197.6 398.6,197.6 399,197.5 399.4,197.4 399.8,197.3 400.2,197.2 400.6,197.2 401,197.1 401.4,197 401.8,196.9 402.2,196.8 402.6,196.8 403,196.7 403.4,196.6 403.8,196.5 404.2,196.4 404.6,196.4 405,196.3 405.4,196.2 405.7,196.1 406.1,196 406.5,195.9 406.9,195.9 407.3,195.8 407.7,195.7 408.1,195.6 408.5,195.5 408.9,195.5 409.3,195.4 409.7,195.3 410.1,195.2 410.5,195.1 410.9,195.1 411.3,195 411.7,194.9 412.1,194.8 412.5,194.7 412.9,194.7 413.3,194.6 413.7,194.5 414.1,194.4 414.5,194.3 414.9,194.3 415.3,194.2 415.7,194.1 416.1,194 416.5,193.9 416.9,193.8 417.3,193.8 417.7,193.7 418.1,193.6 418.5,193.5 418.9,193.4 419.3,193.4 419.7,193.3 420.1,193.2 420.5,193.1 420.9,193 421.3,193 421.7,192.9 422.1,192.8 422.5,192.7 422.9,192.6 423.3,192.6 423.7,192.5 424.1,192.4 424.5,192.3 424.9,192.2 425.3,192.2 425.7,192.1 426.1,192 426.5,191.9 426.9,191.8 427.3,191.7 427.7,191.7 428.1,191.6 428.5,191.5 428.8,191.4 429.2,191.3 429.6,191.3 430,191.2 430.4,191.1 430.8,191 431.2,190.9 431.6,190.9 432,190.8 432.4,190.7 432.8,190.6 433.2,190.5 433.6,190.5 434,190.4 434.4,190.3 434.8,190.2 435.2,190.1 435.6,190.1 436,190 436.4,189.9 436.8,189.8 437.2,189.7 437.6,189.6 438,189.6 438.4,189.5 438.8,189.4 439.2,189.3 439.6,189.2 440,189.2 440.4,189.1 440.8,189 441.2,188.9 441.6,188.8 442,188.8 442.4,188.7 442.8,188.6 443.2,188.5 443.6,188.4 444,188.4 444.4,188.3 444.8,188.2 445.2,188.1 445.6,188 446,188 446.4,187.9 446.8,187.8 447.2,187.7 447.6,187.6 448,187.5 448.4,187.5 448.8,187.4 449.2,187.3 449.6,187.2 450,187.1 450.4,187.1 450.8,187 451.2,186.9 451.6,186.8 452,186.7 452.3,186.7 452.7,186.6 453.1,186.5 453.5,186.4 453.9,186.3 454.3,186.3 454.7,186.2 455.1,186.1 455.5,186 455.9,185.9 456.3,185.9 456.7,185.8 457.1,185.7 457.5,185.6 457.9,185.5 458.3,185.5 458.7,185.4 459.1,185.3 459.5,185.2 459.9,185.1 460.3,185 460.7,185 461.1,184.9 461.5,184.8 461.9,184.7 462.3,184.6 462.7,184.6 463.1,184.5 463.5,184.4 463.9,184.3 " />
</g>

<g fill="none" stroke="#000000" stroke-opacity="1" stroke-width="1" stroke-linecap="square" stroke-linejoin="bevel" transform="matrix(1.004,0,0,1.004,0,0)"
font-family="Ubuntu" font-size="16" font-weight="400" font-style="normal" 
>
</g>

<g fill="none" stroke="#000000" stroke-opacity="1" stroke-width="1" stroke-linecap="square" stroke-linejoin="bevel" transform="matrix(1.004,0,0,1.004,0,0)"
font-family="Ubuntu" font-size="16" font-weight="400" font-style="normal" 
>
</g>

<g fill="none" stroke="#000000" stroke-opacity="1" stroke-width="1" stroke-linecap="round" stroke-linejoin="round" transform="matrix(1.004,0,0,1.004,0,0)"
font-family="Ubuntu" font-size="16" font-weight="400" font-style="normal" 
>
<polyline fill="none" vector-effect="none" points="66.5,23.5 66.5,426.5 463.5,426.5 463.5,23.5 66.5,23.5 " />
</g>

<g fill="none" stroke="#000000" stroke-opacity="1" stroke-width="1" stroke-linecap="square" stroke-linejoin="bevel" transform="matrix(1.004,0,0,1.004,0,0)"
font-family="Ubuntu" font-size="16" font-weight="400" font-style="normal" 
>
</g>

<g fill="none" stroke="#000000" stroke-opacity="1" stroke-width="1" stroke-linecap="square" stroke-linejoin="bevel" transform="matrix(1,0,0,1,0,0)"
font-family="Ubuntu" font-size="16" font-weight="400" font-style="normal" 
>
</g>
</g>
</svg>
