<?xml version="1.0" encoding="UTF-8" standalone="no"?>
<svg width="177.094mm" height="177.094mm"
 viewBox="0 0 502 502"
 xmlns="http://www.w3.org/2000/svg" xmlns:xlink="http://www.w3.org/1999/xlink"  version="1.2" baseProfile="tiny">
<title>Qt SVG Document</title>
<desc>Generated with Qt</desc>
<defs>
</defs>
<g fill="none" stroke="black" stroke-width="1" fill-rule="evenodd" stroke-linecap="square" stroke-linejoin="bevel" >

<g fill="none" stroke="#000000" stroke-opacity="1" stroke-width="1" stroke-linecap="square" stroke-linejoin="bevel" transform="matrix(1,0,0,1,0,0)"
font-family="Ubuntu" font-size="16" font-weight="400" font-style="normal" 
>
</g>

<g fill="none" stroke="#000000" stroke-opacity="1" stroke-width="1" stroke-linecap="square" stroke-linejoin="bevel" transform="matrix(1.004,0,0,1.004,0,0)"
font-family="Ubuntu" font-size="16" font-weight="400" font-style="normal" 
>
</g>

<g fill="none" stroke="#a0a0a4" stroke-opacity="1" stroke-dasharray="2,4" stroke-dashoffset="0" stroke-width="2" stroke-linecap="round" stroke-linejoin="round" transform="matrix(1.004,0,0,1.004,0,0)"
font-family="Ubuntu" font-size="16" font-weight="400" font-style="normal" 
>
<polyline fill="none" vector-effect="none" points="78.5,426.5 463.5,426.5 " />
</g>

<g fill="none" stroke="#000000" stroke-opacity="1" stroke-width="1" stroke-linecap="round" stroke-linejoin="round" transform="matrix(1.004,0,0,1.004,0,0)"
font-family="Ubuntu" font-size="16" font-weight="400" font-style="normal" 
>
<polyline fill="none" vector-effect="none" points="78.5,426.5 87.5,426.5 " />
<polyline fill="none" vector-effect="none" points="463.5,426.5 454.5,426.5 " />
</g>

<g fill="none" stroke="#000000" stroke-opacity="1" stroke-width="1" stroke-linecap="square" stroke-linejoin="bevel" transform="matrix(1.004,0,0,1.004,0,0)"
font-family="Ubuntu" font-size="16" font-weight="400" font-style="normal" 
>
</g>

<g fill="none" stroke="#000000" stroke-opacity="1" stroke-width="1" stroke-linecap="square" stroke-linejoin="bevel" transform="matrix(1.004,0,0,1.004,46.1056,412.142)"
font-family="Ubuntu" font-size="16" font-weight="400" font-style="normal" 
>
</g>

<g fill="none" stroke="#000000" stroke-opacity="1" stroke-width="1" stroke-linecap="square" stroke-linejoin="bevel" transform="matrix(1.004,0,0,1.004,46.1056,412.142)"
font-family="Ubuntu" font-size="16" font-weight="400" font-style="normal" 
>
</g>

<g fill="none" stroke="#000000" stroke-opacity="1" stroke-width="1" stroke-linecap="square" stroke-linejoin="bevel" transform="matrix(1.004,0,0,1.004,46.1056,412.142)"
font-family="Ubuntu" font-size="16" font-weight="400" font-style="normal" 
>
</g>

<g fill="none" stroke="#000000" stroke-opacity="1" stroke-width="1" stroke-linecap="square" stroke-linejoin="bevel" transform="matrix(1.004,0,0,1.004,46.1056,412.142)"
font-family="Ubuntu" font-size="16" font-weight="400" font-style="normal" 
>
<text fill="#000000" fill-opacity="1" stroke="none" xml:space="preserve" x="4" y="22" font-family="Sans" font-size="14" font-weight="400" font-style="normal" 
 >0</text>
</g>

<g fill="none" stroke="#000000" stroke-opacity="1" stroke-width="1" stroke-linecap="square" stroke-linejoin="bevel" transform="matrix(1.004,0,0,1.004,46.1056,412.142)"
font-family="Ubuntu" font-size="16" font-weight="400" font-style="normal" 
>
</g>

<g fill="none" stroke="#000000" stroke-opacity="1" stroke-width="1" stroke-linecap="square" stroke-linejoin="bevel" transform="matrix(1,0,0,1,0,0)"
font-family="Ubuntu" font-size="16" font-weight="400" font-style="normal" 
>
</g>

<g fill="none" stroke="#000000" stroke-opacity="1" stroke-width="1" stroke-linecap="square" stroke-linejoin="bevel" transform="matrix(1.004,0,0,1.004,46.1056,412.142)"
font-family="Ubuntu" font-size="16" font-weight="400" font-style="normal" 
>
</g>

<g fill="none" stroke="#000000" stroke-opacity="1" stroke-width="1" stroke-linecap="square" stroke-linejoin="bevel" transform="matrix(1.004,0,0,1.004,46.1056,412.142)"
font-family="Ubuntu" font-size="16" font-weight="400" font-style="normal" 
>
</g>

<g fill="none" stroke="#000000" stroke-opacity="1" stroke-width="1" stroke-linecap="square" stroke-linejoin="bevel" transform="matrix(1.004,0,0,1.004,46.1056,412.142)"
font-family="Ubuntu" font-size="16" font-weight="400" font-style="normal" 
>
</g>

<g fill="none" stroke="#000000" stroke-opacity="1" stroke-width="1" stroke-linecap="square" stroke-linejoin="bevel" transform="matrix(1.004,0,0,1.004,0,0)"
font-family="Ubuntu" font-size="16" font-weight="400" font-style="normal" 
>
</g>

<g fill="none" stroke="#a0a0a4" stroke-opacity="1" stroke-dasharray="2,4" stroke-dashoffset="0" stroke-width="2" stroke-linecap="round" stroke-linejoin="round" transform="matrix(1.004,0,0,1.004,0,0)"
font-family="Ubuntu" font-size="16" font-weight="400" font-style="normal" 
>
<polyline fill="none" vector-effect="none" points="78.5,325.5 463.5,325.5 " />
</g>

<g fill="none" stroke="#000000" stroke-opacity="1" stroke-width="1" stroke-linecap="round" stroke-linejoin="round" transform="matrix(1.004,0,0,1.004,0,0)"
font-family="Ubuntu" font-size="16" font-weight="400" font-style="normal" 
>
<polyline fill="none" vector-effect="none" points="78.5,325.5 87.5,325.5 " />
<polyline fill="none" vector-effect="none" points="463.5,325.5 454.5,325.5 " />
</g>

<g fill="none" stroke="#000000" stroke-opacity="1" stroke-width="1" stroke-linecap="square" stroke-linejoin="bevel" transform="matrix(1.004,0,0,1.004,0,0)"
font-family="Ubuntu" font-size="16" font-weight="400" font-style="normal" 
>
</g>

<g fill="none" stroke="#000000" stroke-opacity="1" stroke-width="1" stroke-linecap="square" stroke-linejoin="bevel" transform="matrix(1.004,0,0,1.004,28.2061,311.742)"
font-family="Ubuntu" font-size="16" font-weight="400" font-style="normal" 
>
</g>

<g fill="none" stroke="#000000" stroke-opacity="1" stroke-width="1" stroke-linecap="square" stroke-linejoin="bevel" transform="matrix(1.004,0,0,1.004,28.2061,311.742)"
font-family="Ubuntu" font-size="16" font-weight="400" font-style="normal" 
>
</g>

<g fill="none" stroke="#000000" stroke-opacity="1" stroke-width="1" stroke-linecap="square" stroke-linejoin="bevel" transform="matrix(1.004,0,0,1.004,28.2061,311.742)"
font-family="Ubuntu" font-size="16" font-weight="400" font-style="normal" 
>
</g>

<g fill="none" stroke="#000000" stroke-opacity="1" stroke-width="1" stroke-linecap="square" stroke-linejoin="bevel" transform="matrix(1.004,0,0,1.004,28.2061,311.742)"
font-family="Ubuntu" font-size="16" font-weight="400" font-style="normal" 
>
<text fill="#000000" fill-opacity="1" stroke="none" xml:space="preserve" x="4" y="22" font-family="Sans" font-size="14" font-weight="400" font-style="normal" 
 >π/4</text>
</g>

<g fill="none" stroke="#000000" stroke-opacity="1" stroke-width="1" stroke-linecap="square" stroke-linejoin="bevel" transform="matrix(1.004,0,0,1.004,28.2061,311.742)"
font-family="Ubuntu" font-size="16" font-weight="400" font-style="normal" 
>
</g>

<g fill="none" stroke="#000000" stroke-opacity="1" stroke-width="1" stroke-linecap="square" stroke-linejoin="bevel" transform="matrix(1,0,0,1,0,0)"
font-family="Ubuntu" font-size="16" font-weight="400" font-style="normal" 
>
</g>

<g fill="none" stroke="#000000" stroke-opacity="1" stroke-width="1" stroke-linecap="square" stroke-linejoin="bevel" transform="matrix(1.004,0,0,1.004,28.2061,311.742)"
font-family="Ubuntu" font-size="16" font-weight="400" font-style="normal" 
>
</g>

<g fill="none" stroke="#000000" stroke-opacity="1" stroke-width="1" stroke-linecap="square" stroke-linejoin="bevel" transform="matrix(1.004,0,0,1.004,28.2061,311.742)"
font-family="Ubuntu" font-size="16" font-weight="400" font-style="normal" 
>
</g>

<g fill="none" stroke="#000000" stroke-opacity="1" stroke-width="1" stroke-linecap="square" stroke-linejoin="bevel" transform="matrix(1.004,0,0,1.004,28.2061,311.742)"
font-family="Ubuntu" font-size="16" font-weight="400" font-style="normal" 
>
</g>

<g fill="none" stroke="#000000" stroke-opacity="1" stroke-width="1" stroke-linecap="square" stroke-linejoin="bevel" transform="matrix(1.004,0,0,1.004,0,0)"
font-family="Ubuntu" font-size="16" font-weight="400" font-style="normal" 
>
</g>

<g fill="none" stroke="#a0a0a4" stroke-opacity="1" stroke-dasharray="2,4" stroke-dashoffset="0" stroke-width="2" stroke-linecap="round" stroke-linejoin="round" transform="matrix(1.004,0,0,1.004,0,0)"
font-family="Ubuntu" font-size="16" font-weight="400" font-style="normal" 
>
<polyline fill="none" vector-effect="none" points="78.5,224.5 463.5,224.5 " />
</g>

<g fill="none" stroke="#000000" stroke-opacity="1" stroke-width="1" stroke-linecap="round" stroke-linejoin="round" transform="matrix(1.004,0,0,1.004,0,0)"
font-family="Ubuntu" font-size="16" font-weight="400" font-style="normal" 
>
<polyline fill="none" vector-effect="none" points="78.5,224.5 87.5,224.5 " />
<polyline fill="none" vector-effect="none" points="463.5,224.5 454.5,224.5 " />
</g>

<g fill="none" stroke="#000000" stroke-opacity="1" stroke-width="1" stroke-linecap="square" stroke-linejoin="bevel" transform="matrix(1.004,0,0,1.004,0,0)"
font-family="Ubuntu" font-size="16" font-weight="400" font-style="normal" 
>
</g>

<g fill="none" stroke="#000000" stroke-opacity="1" stroke-width="1" stroke-linecap="square" stroke-linejoin="bevel" transform="matrix(1.004,0,0,1.004,28.2061,210.338)"
font-family="Ubuntu" font-size="16" font-weight="400" font-style="normal" 
>
</g>

<g fill="none" stroke="#000000" stroke-opacity="1" stroke-width="1" stroke-linecap="square" stroke-linejoin="bevel" transform="matrix(1.004,0,0,1.004,28.2061,210.338)"
font-family="Ubuntu" font-size="16" font-weight="400" font-style="normal" 
>
</g>

<g fill="none" stroke="#000000" stroke-opacity="1" stroke-width="1" stroke-linecap="square" stroke-linejoin="bevel" transform="matrix(1.004,0,0,1.004,28.2061,210.338)"
font-family="Ubuntu" font-size="16" font-weight="400" font-style="normal" 
>
</g>

<g fill="none" stroke="#000000" stroke-opacity="1" stroke-width="1" stroke-linecap="square" stroke-linejoin="bevel" transform="matrix(1.004,0,0,1.004,28.2061,210.338)"
font-family="Ubuntu" font-size="16" font-weight="400" font-style="normal" 
>
<text fill="#000000" fill-opacity="1" stroke="none" xml:space="preserve" x="4" y="22" font-family="Sans" font-size="14" font-weight="400" font-style="normal" 
 >π/2</text>
</g>

<g fill="none" stroke="#000000" stroke-opacity="1" stroke-width="1" stroke-linecap="square" stroke-linejoin="bevel" transform="matrix(1.004,0,0,1.004,28.2061,210.338)"
font-family="Ubuntu" font-size="16" font-weight="400" font-style="normal" 
>
</g>

<g fill="none" stroke="#000000" stroke-opacity="1" stroke-width="1" stroke-linecap="square" stroke-linejoin="bevel" transform="matrix(1,0,0,1,0,0)"
font-family="Ubuntu" font-size="16" font-weight="400" font-style="normal" 
>
</g>

<g fill="none" stroke="#000000" stroke-opacity="1" stroke-width="1" stroke-linecap="square" stroke-linejoin="bevel" transform="matrix(1.004,0,0,1.004,28.2061,210.338)"
font-family="Ubuntu" font-size="16" font-weight="400" font-style="normal" 
>
</g>

<g fill="none" stroke="#000000" stroke-opacity="1" stroke-width="1" stroke-linecap="square" stroke-linejoin="bevel" transform="matrix(1.004,0,0,1.004,28.2061,210.338)"
font-family="Ubuntu" font-size="16" font-weight="400" font-style="normal" 
>
</g>

<g fill="none" stroke="#000000" stroke-opacity="1" stroke-width="1" stroke-linecap="square" stroke-linejoin="bevel" transform="matrix(1.004,0,0,1.004,28.2061,210.338)"
font-family="Ubuntu" font-size="16" font-weight="400" font-style="normal" 
>
</g>

<g fill="none" stroke="#000000" stroke-opacity="1" stroke-width="1" stroke-linecap="square" stroke-linejoin="bevel" transform="matrix(1.004,0,0,1.004,0,0)"
font-family="Ubuntu" font-size="16" font-weight="400" font-style="normal" 
>
</g>

<g fill="none" stroke="#a0a0a4" stroke-opacity="1" stroke-dasharray="2,4" stroke-dashoffset="0" stroke-width="2" stroke-linecap="round" stroke-linejoin="round" transform="matrix(1.004,0,0,1.004,0,0)"
font-family="Ubuntu" font-size="16" font-weight="400" font-style="normal" 
>
<polyline fill="none" vector-effect="none" points="78.5,123.5 463.5,123.5 " />
</g>

<g fill="none" stroke="#000000" stroke-opacity="1" stroke-width="1" stroke-linecap="round" stroke-linejoin="round" transform="matrix(1.004,0,0,1.004,0,0)"
font-family="Ubuntu" font-size="16" font-weight="400" font-style="normal" 
>
<polyline fill="none" vector-effect="none" points="78.5,123.5 87.5,123.5 " />
<polyline fill="none" vector-effect="none" points="463.5,123.5 454.5,123.5 " />
</g>

<g fill="none" stroke="#000000" stroke-opacity="1" stroke-width="1" stroke-linecap="square" stroke-linejoin="bevel" transform="matrix(1.004,0,0,1.004,0,0)"
font-family="Ubuntu" font-size="16" font-weight="400" font-style="normal" 
>
</g>

<g fill="none" stroke="#000000" stroke-opacity="1" stroke-width="1" stroke-linecap="square" stroke-linejoin="bevel" transform="matrix(1.004,0,0,1.004,16.0797,108.934)"
font-family="Ubuntu" font-size="16" font-weight="400" font-style="normal" 
>
</g>

<g fill="none" stroke="#000000" stroke-opacity="1" stroke-width="1" stroke-linecap="square" stroke-linejoin="bevel" transform="matrix(1.004,0,0,1.004,16.0797,108.934)"
font-family="Ubuntu" font-size="16" font-weight="400" font-style="normal" 
>
</g>

<g fill="none" stroke="#000000" stroke-opacity="1" stroke-width="1" stroke-linecap="square" stroke-linejoin="bevel" transform="matrix(1.004,0,0,1.004,16.0797,108.934)"
font-family="Ubuntu" font-size="16" font-weight="400" font-style="normal" 
>
</g>

<g fill="none" stroke="#000000" stroke-opacity="1" stroke-width="1" stroke-linecap="square" stroke-linejoin="bevel" transform="matrix(1.004,0,0,1.004,16.0797,108.934)"
font-family="Ubuntu" font-size="16" font-weight="400" font-style="normal" 
>
<text fill="#000000" fill-opacity="1" stroke="none" xml:space="preserve" x="4" y="22" font-family="Sans" font-size="14" font-weight="400" font-style="normal" 
 >3π/4</text>
</g>

<g fill="none" stroke="#000000" stroke-opacity="1" stroke-width="1" stroke-linecap="square" stroke-linejoin="bevel" transform="matrix(1.004,0,0,1.004,16.0797,108.934)"
font-family="Ubuntu" font-size="16" font-weight="400" font-style="normal" 
>
</g>

<g fill="none" stroke="#000000" stroke-opacity="1" stroke-width="1" stroke-linecap="square" stroke-linejoin="bevel" transform="matrix(1,0,0,1,0,0)"
font-family="Ubuntu" font-size="16" font-weight="400" font-style="normal" 
>
</g>

<g fill="none" stroke="#000000" stroke-opacity="1" stroke-width="1" stroke-linecap="square" stroke-linejoin="bevel" transform="matrix(1.004,0,0,1.004,16.0797,108.934)"
font-family="Ubuntu" font-size="16" font-weight="400" font-style="normal" 
>
</g>

<g fill="none" stroke="#000000" stroke-opacity="1" stroke-width="1" stroke-linecap="square" stroke-linejoin="bevel" transform="matrix(1.004,0,0,1.004,16.0797,108.934)"
font-family="Ubuntu" font-size="16" font-weight="400" font-style="normal" 
>
</g>

<g fill="none" stroke="#000000" stroke-opacity="1" stroke-width="1" stroke-linecap="square" stroke-linejoin="bevel" transform="matrix(1.004,0,0,1.004,16.0797,108.934)"
font-family="Ubuntu" font-size="16" font-weight="400" font-style="normal" 
>
</g>

<g fill="none" stroke="#000000" stroke-opacity="1" stroke-width="1" stroke-linecap="square" stroke-linejoin="bevel" transform="matrix(1.004,0,0,1.004,0,0)"
font-family="Ubuntu" font-size="16" font-weight="400" font-style="normal" 
>
</g>

<g fill="none" stroke="#a0a0a4" stroke-opacity="1" stroke-dasharray="2,4" stroke-dashoffset="0" stroke-width="2" stroke-linecap="round" stroke-linejoin="round" transform="matrix(1.004,0,0,1.004,0,0)"
font-family="Ubuntu" font-size="16" font-weight="400" font-style="normal" 
>
<polyline fill="none" vector-effect="none" points="78.5,23.5 463.5,23.5 " />
</g>

<g fill="none" stroke="#000000" stroke-opacity="1" stroke-width="1" stroke-linecap="round" stroke-linejoin="round" transform="matrix(1.004,0,0,1.004,0,0)"
font-family="Ubuntu" font-size="16" font-weight="400" font-style="normal" 
>
<polyline fill="none" vector-effect="none" points="78.5,23.5 87.5,23.5 " />
<polyline fill="none" vector-effect="none" points="463.5,23.5 454.5,23.5 " />
</g>

<g fill="none" stroke="#000000" stroke-opacity="1" stroke-width="1" stroke-linecap="square" stroke-linejoin="bevel" transform="matrix(1.004,0,0,1.004,0,0)"
font-family="Ubuntu" font-size="16" font-weight="400" font-style="normal" 
>
</g>

<g fill="none" stroke="#000000" stroke-opacity="1" stroke-width="1" stroke-linecap="square" stroke-linejoin="bevel" transform="matrix(1.004,0,0,1.004,46.7488,7.53)"
font-family="Ubuntu" font-size="16" font-weight="400" font-style="normal" 
>
</g>

<g fill="none" stroke="#000000" stroke-opacity="1" stroke-width="1" stroke-linecap="square" stroke-linejoin="bevel" transform="matrix(1.004,0,0,1.004,46.7488,7.53)"
font-family="Ubuntu" font-size="16" font-weight="400" font-style="normal" 
>
</g>

<g fill="none" stroke="#000000" stroke-opacity="1" stroke-width="1" stroke-linecap="square" stroke-linejoin="bevel" transform="matrix(1.004,0,0,1.004,46.7488,7.53)"
font-family="Ubuntu" font-size="16" font-weight="400" font-style="normal" 
>
</g>

<g fill="none" stroke="#000000" stroke-opacity="1" stroke-width="1" stroke-linecap="square" stroke-linejoin="bevel" transform="matrix(1.004,0,0,1.004,46.7488,7.53)"
font-family="Ubuntu" font-size="16" font-weight="400" font-style="normal" 
>
<text fill="#000000" fill-opacity="1" stroke="none" xml:space="preserve" x="4" y="22" font-family="Sans" font-size="14" font-weight="400" font-style="normal" 
 >π</text>
</g>

<g fill="none" stroke="#000000" stroke-opacity="1" stroke-width="1" stroke-linecap="square" stroke-linejoin="bevel" transform="matrix(1.004,0,0,1.004,46.7488,7.53)"
font-family="Ubuntu" font-size="16" font-weight="400" font-style="normal" 
>
</g>

<g fill="none" stroke="#000000" stroke-opacity="1" stroke-width="1" stroke-linecap="square" stroke-linejoin="bevel" transform="matrix(1,0,0,1,0,0)"
font-family="Ubuntu" font-size="16" font-weight="400" font-style="normal" 
>
</g>

<g fill="none" stroke="#000000" stroke-opacity="1" stroke-width="1" stroke-linecap="square" stroke-linejoin="bevel" transform="matrix(1.004,0,0,1.004,46.7488,7.53)"
font-family="Ubuntu" font-size="16" font-weight="400" font-style="normal" 
>
</g>

<g fill="none" stroke="#000000" stroke-opacity="1" stroke-width="1" stroke-linecap="square" stroke-linejoin="bevel" transform="matrix(1.004,0,0,1.004,46.7488,7.53)"
font-family="Ubuntu" font-size="16" font-weight="400" font-style="normal" 
>
</g>

<g fill="none" stroke="#000000" stroke-opacity="1" stroke-width="1" stroke-linecap="square" stroke-linejoin="bevel" transform="matrix(1.004,0,0,1.004,46.7488,7.53)"
font-family="Ubuntu" font-size="16" font-weight="400" font-style="normal" 
>
</g>

<g fill="none" stroke="#000000" stroke-opacity="1" stroke-width="1" stroke-linecap="square" stroke-linejoin="bevel" transform="matrix(1.004,0,0,1.004,0,0)"
font-family="Ubuntu" font-size="16" font-weight="400" font-style="normal" 
>
</g>

<g fill="none" stroke="#a0a0a4" stroke-opacity="1" stroke-dasharray="2,4" stroke-dashoffset="0" stroke-width="2" stroke-linecap="round" stroke-linejoin="round" transform="matrix(1.004,0,0,1.004,0,0)"
font-family="Ubuntu" font-size="16" font-weight="400" font-style="normal" 
>
<polyline fill="none" vector-effect="none" points="78.5,426.5 78.5,23.5 " />
</g>

<g fill="none" stroke="#000000" stroke-opacity="1" stroke-width="1" stroke-linecap="round" stroke-linejoin="round" transform="matrix(1.004,0,0,1.004,0,0)"
font-family="Ubuntu" font-size="16" font-weight="400" font-style="normal" 
>
<polyline fill="none" vector-effect="none" points="78.5,426.5 78.5,417.5 " />
<polyline fill="none" vector-effect="none" points="78.5,23.5 78.5,32.5 " />
</g>

<g fill="none" stroke="#000000" stroke-opacity="1" stroke-width="1" stroke-linecap="square" stroke-linejoin="bevel" transform="matrix(1.004,0,0,1.004,0,0)"
font-family="Ubuntu" font-size="16" font-weight="400" font-style="normal" 
>
</g>

<g fill="none" stroke="#000000" stroke-opacity="1" stroke-width="1" stroke-linecap="square" stroke-linejoin="bevel" transform="matrix(1.004,0,0,1.004,65.2051,435.234)"
font-family="Ubuntu" font-size="16" font-weight="400" font-style="normal" 
>
</g>

<g fill="none" stroke="#000000" stroke-opacity="1" stroke-width="1" stroke-linecap="square" stroke-linejoin="bevel" transform="matrix(1.004,0,0,1.004,65.2051,435.234)"
font-family="Ubuntu" font-size="16" font-weight="400" font-style="normal" 
>
</g>

<g fill="none" stroke="#000000" stroke-opacity="1" stroke-width="1" stroke-linecap="square" stroke-linejoin="bevel" transform="matrix(1.004,0,0,1.004,65.2051,435.234)"
font-family="Ubuntu" font-size="16" font-weight="400" font-style="normal" 
>
</g>

<g fill="none" stroke="#000000" stroke-opacity="1" stroke-width="1" stroke-linecap="square" stroke-linejoin="bevel" transform="matrix(1.004,0,0,1.004,65.2051,435.234)"
font-family="Ubuntu" font-size="16" font-weight="400" font-style="normal" 
>
<text fill="#000000" fill-opacity="1" stroke="none" xml:space="preserve" x="4" y="22" font-family="Sans" font-size="14" font-weight="400" font-style="normal" 
 > 0</text>
</g>

<g fill="none" stroke="#000000" stroke-opacity="1" stroke-width="1" stroke-linecap="square" stroke-linejoin="bevel" transform="matrix(1.004,0,0,1.004,65.2051,435.234)"
font-family="Ubuntu" font-size="16" font-weight="400" font-style="normal" 
>
</g>

<g fill="none" stroke="#000000" stroke-opacity="1" stroke-width="1" stroke-linecap="square" stroke-linejoin="bevel" transform="matrix(1,0,0,1,0,0)"
font-family="Ubuntu" font-size="16" font-weight="400" font-style="normal" 
>
</g>

<g fill="none" stroke="#000000" stroke-opacity="1" stroke-width="1" stroke-linecap="square" stroke-linejoin="bevel" transform="matrix(1.004,0,0,1.004,65.2051,435.234)"
font-family="Ubuntu" font-size="16" font-weight="400" font-style="normal" 
>
</g>

<g fill="none" stroke="#000000" stroke-opacity="1" stroke-width="1" stroke-linecap="square" stroke-linejoin="bevel" transform="matrix(1.004,0,0,1.004,65.2051,435.234)"
font-family="Ubuntu" font-size="16" font-weight="400" font-style="normal" 
>
</g>

<g fill="none" stroke="#000000" stroke-opacity="1" stroke-width="1" stroke-linecap="square" stroke-linejoin="bevel" transform="matrix(1.004,0,0,1.004,65.2051,435.234)"
font-family="Ubuntu" font-size="16" font-weight="400" font-style="normal" 
>
</g>

<g fill="none" stroke="#000000" stroke-opacity="1" stroke-width="1" stroke-linecap="square" stroke-linejoin="bevel" transform="matrix(1.004,0,0,1.004,0,0)"
font-family="Ubuntu" font-size="16" font-weight="400" font-style="normal" 
>
</g>

<g fill="none" stroke="#a0a0a4" stroke-opacity="1" stroke-dasharray="2,4" stroke-dashoffset="0" stroke-width="2" stroke-linecap="round" stroke-linejoin="round" transform="matrix(1.004,0,0,1.004,0,0)"
font-family="Ubuntu" font-size="16" font-weight="400" font-style="normal" 
>
<polyline fill="none" vector-effect="none" points="155.5,426.5 155.5,417.5 " />
<polyline fill="none" vector-effect="none" points="155.5,360.5 155.5,23.5 " />
</g>

<g fill="none" stroke="#000000" stroke-opacity="1" stroke-width="1" stroke-linecap="round" stroke-linejoin="round" transform="matrix(1.004,0,0,1.004,0,0)"
font-family="Ubuntu" font-size="16" font-weight="400" font-style="normal" 
>
<polyline fill="none" vector-effect="none" points="155.5,426.5 155.5,417.5 " />
<polyline fill="none" vector-effect="none" points="155.5,23.5 155.5,32.5 " />
</g>

<g fill="none" stroke="#000000" stroke-opacity="1" stroke-width="1" stroke-linecap="square" stroke-linejoin="bevel" transform="matrix(1.004,0,0,1.004,0,0)"
font-family="Ubuntu" font-size="16" font-weight="400" font-style="normal" 
>
</g>

<g fill="none" stroke="#000000" stroke-opacity="1" stroke-width="1" stroke-linecap="square" stroke-linejoin="bevel" transform="matrix(1.004,0,0,1.004,133.422,435.234)"
font-family="Ubuntu" font-size="16" font-weight="400" font-style="normal" 
>
</g>

<g fill="none" stroke="#000000" stroke-opacity="1" stroke-width="1" stroke-linecap="square" stroke-linejoin="bevel" transform="matrix(1.004,0,0,1.004,133.422,435.234)"
font-family="Ubuntu" font-size="16" font-weight="400" font-style="normal" 
>
</g>

<g fill="none" stroke="#000000" stroke-opacity="1" stroke-width="1" stroke-linecap="square" stroke-linejoin="bevel" transform="matrix(1.004,0,0,1.004,133.422,435.234)"
font-family="Ubuntu" font-size="16" font-weight="400" font-style="normal" 
>
</g>

<g fill="none" stroke="#000000" stroke-opacity="1" stroke-width="1" stroke-linecap="square" stroke-linejoin="bevel" transform="matrix(1.004,0,0,1.004,133.422,435.234)"
font-family="Ubuntu" font-size="16" font-weight="400" font-style="normal" 
>
<text fill="#000000" fill-opacity="1" stroke="none" xml:space="preserve" x="4" y="22" font-family="Sans" font-size="14" font-weight="400" font-style="normal" 
 > 0.2</text>
</g>

<g fill="none" stroke="#000000" stroke-opacity="1" stroke-width="1" stroke-linecap="square" stroke-linejoin="bevel" transform="matrix(1.004,0,0,1.004,133.422,435.234)"
font-family="Ubuntu" font-size="16" font-weight="400" font-style="normal" 
>
</g>

<g fill="none" stroke="#000000" stroke-opacity="1" stroke-width="1" stroke-linecap="square" stroke-linejoin="bevel" transform="matrix(1,0,0,1,0,0)"
font-family="Ubuntu" font-size="16" font-weight="400" font-style="normal" 
>
</g>

<g fill="none" stroke="#000000" stroke-opacity="1" stroke-width="1" stroke-linecap="square" stroke-linejoin="bevel" transform="matrix(1.004,0,0,1.004,133.422,435.234)"
font-family="Ubuntu" font-size="16" font-weight="400" font-style="normal" 
>
</g>

<g fill="none" stroke="#000000" stroke-opacity="1" stroke-width="1" stroke-linecap="square" stroke-linejoin="bevel" transform="matrix(1.004,0,0,1.004,133.422,435.234)"
font-family="Ubuntu" font-size="16" font-weight="400" font-style="normal" 
>
</g>

<g fill="none" stroke="#000000" stroke-opacity="1" stroke-width="1" stroke-linecap="square" stroke-linejoin="bevel" transform="matrix(1.004,0,0,1.004,133.422,435.234)"
font-family="Ubuntu" font-size="16" font-weight="400" font-style="normal" 
>
</g>

<g fill="none" stroke="#000000" stroke-opacity="1" stroke-width="1" stroke-linecap="square" stroke-linejoin="bevel" transform="matrix(1.004,0,0,1.004,0,0)"
font-family="Ubuntu" font-size="16" font-weight="400" font-style="normal" 
>
</g>

<g fill="none" stroke="#a0a0a4" stroke-opacity="1" stroke-dasharray="2,4" stroke-dashoffset="0" stroke-width="2" stroke-linecap="round" stroke-linejoin="round" transform="matrix(1.004,0,0,1.004,0,0)"
font-family="Ubuntu" font-size="16" font-weight="400" font-style="normal" 
>
<polyline fill="none" vector-effect="none" points="232.5,426.5 232.5,417.5 " />
<polyline fill="none" vector-effect="none" points="232.5,360.5 232.5,23.5 " />
</g>

<g fill="none" stroke="#000000" stroke-opacity="1" stroke-width="1" stroke-linecap="round" stroke-linejoin="round" transform="matrix(1.004,0,0,1.004,0,0)"
font-family="Ubuntu" font-size="16" font-weight="400" font-style="normal" 
>
<polyline fill="none" vector-effect="none" points="232.5,426.5 232.5,417.5 " />
<polyline fill="none" vector-effect="none" points="232.5,23.5 232.5,32.5 " />
</g>

<g fill="none" stroke="#000000" stroke-opacity="1" stroke-width="1" stroke-linecap="square" stroke-linejoin="bevel" transform="matrix(1.004,0,0,1.004,0,0)"
font-family="Ubuntu" font-size="16" font-weight="400" font-style="normal" 
>
</g>

<g fill="none" stroke="#000000" stroke-opacity="1" stroke-width="1" stroke-linecap="square" stroke-linejoin="bevel" transform="matrix(1.004,0,0,1.004,210.73,435.234)"
font-family="Ubuntu" font-size="16" font-weight="400" font-style="normal" 
>
</g>

<g fill="none" stroke="#000000" stroke-opacity="1" stroke-width="1" stroke-linecap="square" stroke-linejoin="bevel" transform="matrix(1.004,0,0,1.004,210.73,435.234)"
font-family="Ubuntu" font-size="16" font-weight="400" font-style="normal" 
>
</g>

<g fill="none" stroke="#000000" stroke-opacity="1" stroke-width="1" stroke-linecap="square" stroke-linejoin="bevel" transform="matrix(1.004,0,0,1.004,210.73,435.234)"
font-family="Ubuntu" font-size="16" font-weight="400" font-style="normal" 
>
</g>

<g fill="none" stroke="#000000" stroke-opacity="1" stroke-width="1" stroke-linecap="square" stroke-linejoin="bevel" transform="matrix(1.004,0,0,1.004,210.73,435.234)"
font-family="Ubuntu" font-size="16" font-weight="400" font-style="normal" 
>
<text fill="#000000" fill-opacity="1" stroke="none" xml:space="preserve" x="4" y="22" font-family="Sans" font-size="14" font-weight="400" font-style="normal" 
 > 0.4</text>
</g>

<g fill="none" stroke="#000000" stroke-opacity="1" stroke-width="1" stroke-linecap="square" stroke-linejoin="bevel" transform="matrix(1.004,0,0,1.004,210.73,435.234)"
font-family="Ubuntu" font-size="16" font-weight="400" font-style="normal" 
>
</g>

<g fill="none" stroke="#000000" stroke-opacity="1" stroke-width="1" stroke-linecap="square" stroke-linejoin="bevel" transform="matrix(1,0,0,1,0,0)"
font-family="Ubuntu" font-size="16" font-weight="400" font-style="normal" 
>
</g>

<g fill="none" stroke="#000000" stroke-opacity="1" stroke-width="1" stroke-linecap="square" stroke-linejoin="bevel" transform="matrix(1.004,0,0,1.004,210.73,435.234)"
font-family="Ubuntu" font-size="16" font-weight="400" font-style="normal" 
>
</g>

<g fill="none" stroke="#000000" stroke-opacity="1" stroke-width="1" stroke-linecap="square" stroke-linejoin="bevel" transform="matrix(1.004,0,0,1.004,210.73,435.234)"
font-family="Ubuntu" font-size="16" font-weight="400" font-style="normal" 
>
</g>

<g fill="none" stroke="#000000" stroke-opacity="1" stroke-width="1" stroke-linecap="square" stroke-linejoin="bevel" transform="matrix(1.004,0,0,1.004,210.73,435.234)"
font-family="Ubuntu" font-size="16" font-weight="400" font-style="normal" 
>
</g>

<g fill="none" stroke="#000000" stroke-opacity="1" stroke-width="1" stroke-linecap="square" stroke-linejoin="bevel" transform="matrix(1.004,0,0,1.004,0,0)"
font-family="Ubuntu" font-size="16" font-weight="400" font-style="normal" 
>
</g>

<g fill="none" stroke="#a0a0a4" stroke-opacity="1" stroke-dasharray="2,4" stroke-dashoffset="0" stroke-width="2" stroke-linecap="round" stroke-linejoin="round" transform="matrix(1.004,0,0,1.004,0,0)"
font-family="Ubuntu" font-size="16" font-weight="400" font-style="normal" 
>
<polyline fill="none" vector-effect="none" points="309.5,426.5 309.5,417.5 " />
<polyline fill="none" vector-effect="none" points="309.5,360.5 309.5,23.5 " />
</g>

<g fill="none" stroke="#000000" stroke-opacity="1" stroke-width="1" stroke-linecap="round" stroke-linejoin="round" transform="matrix(1.004,0,0,1.004,0,0)"
font-family="Ubuntu" font-size="16" font-weight="400" font-style="normal" 
>
<polyline fill="none" vector-effect="none" points="309.5,426.5 309.5,417.5 " />
<polyline fill="none" vector-effect="none" points="309.5,23.5 309.5,32.5 " />
</g>

<g fill="none" stroke="#000000" stroke-opacity="1" stroke-width="1" stroke-linecap="square" stroke-linejoin="bevel" transform="matrix(1.004,0,0,1.004,0,0)"
font-family="Ubuntu" font-size="16" font-weight="400" font-style="normal" 
>
</g>

<g fill="none" stroke="#000000" stroke-opacity="1" stroke-width="1" stroke-linecap="square" stroke-linejoin="bevel" transform="matrix(1.004,0,0,1.004,289.042,435.234)"
font-family="Ubuntu" font-size="16" font-weight="400" font-style="normal" 
>
</g>

<g fill="none" stroke="#000000" stroke-opacity="1" stroke-width="1" stroke-linecap="square" stroke-linejoin="bevel" transform="matrix(1.004,0,0,1.004,289.042,435.234)"
font-family="Ubuntu" font-size="16" font-weight="400" font-style="normal" 
>
</g>

<g fill="none" stroke="#000000" stroke-opacity="1" stroke-width="1" stroke-linecap="square" stroke-linejoin="bevel" transform="matrix(1.004,0,0,1.004,289.042,435.234)"
font-family="Ubuntu" font-size="16" font-weight="400" font-style="normal" 
>
</g>

<g fill="none" stroke="#000000" stroke-opacity="1" stroke-width="1" stroke-linecap="square" stroke-linejoin="bevel" transform="matrix(1.004,0,0,1.004,289.042,435.234)"
font-family="Ubuntu" font-size="16" font-weight="400" font-style="normal" 
>
<text fill="#000000" fill-opacity="1" stroke="none" xml:space="preserve" x="4" y="22" font-family="Sans" font-size="14" font-weight="400" font-style="normal" 
 > 0.6</text>
</g>

<g fill="none" stroke="#000000" stroke-opacity="1" stroke-width="1" stroke-linecap="square" stroke-linejoin="bevel" transform="matrix(1.004,0,0,1.004,289.042,435.234)"
font-family="Ubuntu" font-size="16" font-weight="400" font-style="normal" 
>
</g>

<g fill="none" stroke="#000000" stroke-opacity="1" stroke-width="1" stroke-linecap="square" stroke-linejoin="bevel" transform="matrix(1,0,0,1,0,0)"
font-family="Ubuntu" font-size="16" font-weight="400" font-style="normal" 
>
</g>

<g fill="none" stroke="#000000" stroke-opacity="1" stroke-width="1" stroke-linecap="square" stroke-linejoin="bevel" transform="matrix(1.004,0,0,1.004,289.042,435.234)"
font-family="Ubuntu" font-size="16" font-weight="400" font-style="normal" 
>
</g>

<g fill="none" stroke="#000000" stroke-opacity="1" stroke-width="1" stroke-linecap="square" stroke-linejoin="bevel" transform="matrix(1.004,0,0,1.004,289.042,435.234)"
font-family="Ubuntu" font-size="16" font-weight="400" font-style="normal" 
>
</g>

<g fill="none" stroke="#000000" stroke-opacity="1" stroke-width="1" stroke-linecap="square" stroke-linejoin="bevel" transform="matrix(1.004,0,0,1.004,289.042,435.234)"
font-family="Ubuntu" font-size="16" font-weight="400" font-style="normal" 
>
</g>

<g fill="none" stroke="#000000" stroke-opacity="1" stroke-width="1" stroke-linecap="square" stroke-linejoin="bevel" transform="matrix(1.004,0,0,1.004,0,0)"
font-family="Ubuntu" font-size="16" font-weight="400" font-style="normal" 
>
</g>

<g fill="none" stroke="#a0a0a4" stroke-opacity="1" stroke-dasharray="2,4" stroke-dashoffset="0" stroke-width="2" stroke-linecap="round" stroke-linejoin="round" transform="matrix(1.004,0,0,1.004,0,0)"
font-family="Ubuntu" font-size="16" font-weight="400" font-style="normal" 
>
<polyline fill="none" vector-effect="none" points="386.5,426.5 386.5,417.5 " />
<polyline fill="none" vector-effect="none" points="386.5,360.5 386.5,23.5 " />
</g>

<g fill="none" stroke="#000000" stroke-opacity="1" stroke-width="1" stroke-linecap="round" stroke-linejoin="round" transform="matrix(1.004,0,0,1.004,0,0)"
font-family="Ubuntu" font-size="16" font-weight="400" font-style="normal" 
>
<polyline fill="none" vector-effect="none" points="386.5,426.5 386.5,417.5 " />
<polyline fill="none" vector-effect="none" points="386.5,23.5 386.5,32.5 " />
</g>

<g fill="none" stroke="#000000" stroke-opacity="1" stroke-width="1" stroke-linecap="square" stroke-linejoin="bevel" transform="matrix(1.004,0,0,1.004,0,0)"
font-family="Ubuntu" font-size="16" font-weight="400" font-style="normal" 
>
</g>

<g fill="none" stroke="#000000" stroke-opacity="1" stroke-width="1" stroke-linecap="square" stroke-linejoin="bevel" transform="matrix(1.004,0,0,1.004,366.35,435.234)"
font-family="Ubuntu" font-size="16" font-weight="400" font-style="normal" 
>
</g>

<g fill="none" stroke="#000000" stroke-opacity="1" stroke-width="1" stroke-linecap="square" stroke-linejoin="bevel" transform="matrix(1.004,0,0,1.004,366.35,435.234)"
font-family="Ubuntu" font-size="16" font-weight="400" font-style="normal" 
>
</g>

<g fill="none" stroke="#000000" stroke-opacity="1" stroke-width="1" stroke-linecap="square" stroke-linejoin="bevel" transform="matrix(1.004,0,0,1.004,366.35,435.234)"
font-family="Ubuntu" font-size="16" font-weight="400" font-style="normal" 
>
</g>

<g fill="none" stroke="#000000" stroke-opacity="1" stroke-width="1" stroke-linecap="square" stroke-linejoin="bevel" transform="matrix(1.004,0,0,1.004,366.35,435.234)"
font-family="Ubuntu" font-size="16" font-weight="400" font-style="normal" 
>
<text fill="#000000" fill-opacity="1" stroke="none" xml:space="preserve" x="4" y="22" font-family="Sans" font-size="14" font-weight="400" font-style="normal" 
 > 0.8</text>
</g>

<g fill="none" stroke="#000000" stroke-opacity="1" stroke-width="1" stroke-linecap="square" stroke-linejoin="bevel" transform="matrix(1.004,0,0,1.004,366.35,435.234)"
font-family="Ubuntu" font-size="16" font-weight="400" font-style="normal" 
>
</g>

<g fill="none" stroke="#000000" stroke-opacity="1" stroke-width="1" stroke-linecap="square" stroke-linejoin="bevel" transform="matrix(1,0,0,1,0,0)"
font-family="Ubuntu" font-size="16" font-weight="400" font-style="normal" 
>
</g>

<g fill="none" stroke="#000000" stroke-opacity="1" stroke-width="1" stroke-linecap="square" stroke-linejoin="bevel" transform="matrix(1.004,0,0,1.004,366.35,435.234)"
font-family="Ubuntu" font-size="16" font-weight="400" font-style="normal" 
>
</g>

<g fill="none" stroke="#000000" stroke-opacity="1" stroke-width="1" stroke-linecap="square" stroke-linejoin="bevel" transform="matrix(1.004,0,0,1.004,366.35,435.234)"
font-family="Ubuntu" font-size="16" font-weight="400" font-style="normal" 
>
</g>

<g fill="none" stroke="#000000" stroke-opacity="1" stroke-width="1" stroke-linecap="square" stroke-linejoin="bevel" transform="matrix(1.004,0,0,1.004,366.35,435.234)"
font-family="Ubuntu" font-size="16" font-weight="400" font-style="normal" 
>
</g>

<g fill="none" stroke="#000000" stroke-opacity="1" stroke-width="1" stroke-linecap="square" stroke-linejoin="bevel" transform="matrix(1.004,0,0,1.004,0,0)"
font-family="Ubuntu" font-size="16" font-weight="400" font-style="normal" 
>
</g>

<g fill="none" stroke="#a0a0a4" stroke-opacity="1" stroke-dasharray="2,4" stroke-dashoffset="0" stroke-width="2" stroke-linecap="round" stroke-linejoin="round" transform="matrix(1.004,0,0,1.004,0,0)"
font-family="Ubuntu" font-size="16" font-weight="400" font-style="normal" 
>
<polyline fill="none" vector-effect="none" points="463.5,426.5 463.5,23.5 " />
</g>

<g fill="none" stroke="#000000" stroke-opacity="1" stroke-width="1" stroke-linecap="round" stroke-linejoin="round" transform="matrix(1.004,0,0,1.004,0,0)"
font-family="Ubuntu" font-size="16" font-weight="400" font-style="normal" 
>
<polyline fill="none" vector-effect="none" points="463.5,426.5 463.5,417.5 " />
<polyline fill="none" vector-effect="none" points="463.5,23.5 463.5,32.5 " />
</g>

<g fill="none" stroke="#000000" stroke-opacity="1" stroke-width="1" stroke-linecap="square" stroke-linejoin="bevel" transform="matrix(1.004,0,0,1.004,0,0)"
font-family="Ubuntu" font-size="16" font-weight="400" font-style="normal" 
>
</g>

<g fill="none" stroke="#000000" stroke-opacity="1" stroke-width="1" stroke-linecap="square" stroke-linejoin="bevel" transform="matrix(1.004,0,0,1.004,452.749,435.234)"
font-family="Ubuntu" font-size="16" font-weight="400" font-style="normal" 
>
</g>

<g fill="none" stroke="#000000" stroke-opacity="1" stroke-width="1" stroke-linecap="square" stroke-linejoin="bevel" transform="matrix(1.004,0,0,1.004,452.749,435.234)"
font-family="Ubuntu" font-size="16" font-weight="400" font-style="normal" 
>
</g>

<g fill="none" stroke="#000000" stroke-opacity="1" stroke-width="1" stroke-linecap="square" stroke-linejoin="bevel" transform="matrix(1.004,0,0,1.004,452.749,435.234)"
font-family="Ubuntu" font-size="16" font-weight="400" font-style="normal" 
>
</g>

<g fill="none" stroke="#000000" stroke-opacity="1" stroke-width="1" stroke-linecap="square" stroke-linejoin="bevel" transform="matrix(1.004,0,0,1.004,452.749,435.234)"
font-family="Ubuntu" font-size="16" font-weight="400" font-style="normal" 
>
<text fill="#000000" fill-opacity="1" stroke="none" xml:space="preserve" x="4" y="22" font-family="Sans" font-size="14" font-weight="400" font-style="normal" 
 > 1</text>
</g>

<g fill="none" stroke="#000000" stroke-opacity="1" stroke-width="1" stroke-linecap="square" stroke-linejoin="bevel" transform="matrix(1.004,0,0,1.004,452.749,435.234)"
font-family="Ubuntu" font-size="16" font-weight="400" font-style="normal" 
>
</g>

<g fill="none" stroke="#000000" stroke-opacity="1" stroke-width="1" stroke-linecap="square" stroke-linejoin="bevel" transform="matrix(1,0,0,1,0,0)"
font-family="Ubuntu" font-size="16" font-weight="400" font-style="normal" 
>
</g>

<g fill="none" stroke="#000000" stroke-opacity="1" stroke-width="1" stroke-linecap="square" stroke-linejoin="bevel" transform="matrix(1.004,0,0,1.004,452.749,435.234)"
font-family="Ubuntu" font-size="16" font-weight="400" font-style="normal" 
>
</g>

<g fill="none" stroke="#000000" stroke-opacity="1" stroke-width="1" stroke-linecap="square" stroke-linejoin="bevel" transform="matrix(1.004,0,0,1.004,452.749,435.234)"
font-family="Ubuntu" font-size="16" font-weight="400" font-style="normal" 
>
</g>

<g fill="none" stroke="#000000" stroke-opacity="1" stroke-width="1" stroke-linecap="square" stroke-linejoin="bevel" transform="matrix(1.004,0,0,1.004,452.749,435.234)"
font-family="Ubuntu" font-size="16" font-weight="400" font-style="normal" 
>
</g>

<g fill="none" stroke="#000000" stroke-opacity="1" stroke-width="1" stroke-linecap="square" stroke-linejoin="bevel" transform="matrix(1.004,0,0,1.004,0,0)"
font-family="Ubuntu" font-size="16" font-weight="400" font-style="normal" 
>
</g>

<g fill="none" stroke="#000000" stroke-opacity="1" stroke-width="1" stroke-linecap="round" stroke-linejoin="round" transform="matrix(1.004,0,0,1.004,0,0)"
font-family="Ubuntu" font-size="16" font-weight="400" font-style="normal" 
>
<polyline fill="none" vector-effect="none" points="78.5,23.5 78.5,426.5 463.5,426.5 463.5,23.5 78.5,23.5 " />
</g>

<g fill="none" stroke="#000000" stroke-opacity="1" stroke-width="1" stroke-linecap="square" stroke-linejoin="bevel" transform="matrix(1.004,0,0,1.004,0,0)"
font-family="Ubuntu" font-size="16" font-weight="400" font-style="normal" 
>
</g>

<g fill="none" stroke="#000000" stroke-opacity="1" stroke-width="1" stroke-linecap="square" stroke-linejoin="bevel" transform="matrix(0,-1.004,1.004,0,-6.526,229.916)"
font-family="Ubuntu" font-size="16" font-weight="400" font-style="normal" 
>
</g>

<g fill="none" stroke="#000000" stroke-opacity="1" stroke-width="1" stroke-linecap="square" stroke-linejoin="bevel" transform="matrix(0,-1.004,1.004,0,-6.526,229.916)"
font-family="Ubuntu" font-size="16" font-weight="400" font-style="normal" 
>
</g>

<g fill="none" stroke="#000000" stroke-opacity="1" stroke-width="1" stroke-linecap="square" stroke-linejoin="bevel" transform="matrix(0,-1.004,1.004,0,-6.526,229.916)"
font-family="Ubuntu" font-size="16" font-weight="400" font-style="normal" 
>
</g>

<g fill="none" stroke="#000000" stroke-opacity="1" stroke-width="1" stroke-linecap="square" stroke-linejoin="bevel" transform="matrix(0,-1.004,1.004,0,-6.526,229.916)"
font-family="Ubuntu" font-size="16" font-weight="400" font-style="normal" 
>
</g>

<g fill="none" stroke="#000000" stroke-opacity="1" stroke-width="1" stroke-linecap="square" stroke-linejoin="bevel" transform="matrix(1,0,0,1,0,0)"
font-family="Ubuntu" font-size="16" font-weight="400" font-style="normal" 
>
</g>

<g fill="none" stroke="#000000" stroke-opacity="1" stroke-width="1" stroke-linecap="square" stroke-linejoin="bevel" transform="matrix(0,-1.004,1.004,0,-6.526,229.916)"
font-family="Ubuntu" font-size="16" font-weight="400" font-style="normal" 
>
</g>

<g fill="none" stroke="#000000" stroke-opacity="1" stroke-width="1" stroke-linecap="square" stroke-linejoin="bevel" transform="matrix(0,-1.004,1.004,0,-6.526,229.916)"
font-family="Ubuntu" font-size="16" font-weight="400" font-style="normal" 
>
</g>

<g fill="none" stroke="#000000" stroke-opacity="1" stroke-width="1" stroke-linecap="square" stroke-linejoin="bevel" transform="matrix(0,-1.004,1.004,0,-6.526,229.916)"
font-family="Ubuntu" font-size="16" font-weight="400" font-style="normal" 
>
</g>

<g fill="none" stroke="#000000" stroke-opacity="1" stroke-width="1" stroke-linecap="square" stroke-linejoin="bevel" transform="matrix(1.004,0,0,1.004,217.335,470.374)"
font-family="Ubuntu" font-size="16" font-weight="400" font-style="normal" 
>
</g>

<g fill="none" stroke="#000000" stroke-opacity="1" stroke-width="1" stroke-linecap="square" stroke-linejoin="bevel" transform="matrix(1.004,0,0,1.004,217.335,470.374)"
font-family="Ubuntu" font-size="16" font-weight="400" font-style="normal" 
>
</g>

<g fill="none" stroke="#000000" stroke-opacity="1" stroke-width="1" stroke-linecap="square" stroke-linejoin="bevel" transform="matrix(1.004,0,0,1.004,217.335,470.374)"
font-family="Ubuntu" font-size="16" font-weight="400" font-style="normal" 
>
</g>

<g fill="none" stroke="#000000" stroke-opacity="1" stroke-width="1" stroke-linecap="square" stroke-linejoin="bevel" transform="matrix(1.004,0,0,1.004,217.335,470.374)"
font-family="Ubuntu" font-size="16" font-weight="400" font-style="normal" 
>
<text fill="#000000" fill-opacity="1" stroke="none" xml:space="preserve" x="4" y="22" font-family="Sans" font-size="14" font-weight="400" font-style="normal" 
 >Probability</text>
</g>

<g fill="none" stroke="#000000" stroke-opacity="1" stroke-width="1" stroke-linecap="square" stroke-linejoin="bevel" transform="matrix(1.004,0,0,1.004,217.335,470.374)"
font-family="Ubuntu" font-size="16" font-weight="400" font-style="normal" 
>
</g>

<g fill="none" stroke="#000000" stroke-opacity="1" stroke-width="1" stroke-linecap="square" stroke-linejoin="bevel" transform="matrix(1,0,0,1,0,0)"
font-family="Ubuntu" font-size="16" font-weight="400" font-style="normal" 
>
</g>

<g fill="none" stroke="#000000" stroke-opacity="1" stroke-width="1" stroke-linecap="square" stroke-linejoin="bevel" transform="matrix(1.004,0,0,1.004,217.335,470.374)"
font-family="Ubuntu" font-size="16" font-weight="400" font-style="normal" 
>
</g>

<g fill="none" stroke="#000000" stroke-opacity="1" stroke-width="1" stroke-linecap="square" stroke-linejoin="bevel" transform="matrix(1.004,0,0,1.004,217.335,470.374)"
font-family="Ubuntu" font-size="16" font-weight="400" font-style="normal" 
>
</g>

<g fill="none" stroke="#000000" stroke-opacity="1" stroke-width="1" stroke-linecap="square" stroke-linejoin="bevel" transform="matrix(1.004,0,0,1.004,217.335,470.374)"
font-family="Ubuntu" font-size="16" font-weight="400" font-style="normal" 
>
</g>

<g fill="none" stroke="#000000" stroke-opacity="1" stroke-width="1" stroke-linecap="square" stroke-linejoin="bevel" transform="matrix(1.004,0,0,1.004,93.372,357.926)"
font-family="Ubuntu" font-size="16" font-weight="400" font-style="normal" 
>
</g>

<g fill="none" stroke="#000000" stroke-opacity="1" stroke-width="1" stroke-linecap="square" stroke-linejoin="bevel" transform="matrix(1.004,0,0,1.004,93.372,357.926)"
font-family="Ubuntu" font-size="16" font-weight="400" font-style="normal" 
>
</g>

<g fill="none" stroke="#000000" stroke-opacity="1" stroke-width="1" stroke-linecap="square" stroke-linejoin="bevel" transform="matrix(1.004,0,0,1.004,93.372,357.926)"
font-family="Ubuntu" font-size="16" font-weight="400" font-style="normal" 
>
</g>

<g fill="none" stroke="#000000" stroke-opacity="1" stroke-width="1" stroke-linecap="square" stroke-linejoin="bevel" transform="matrix(1.004,0,0,1.004,93.372,357.926)"
font-family="Ubuntu" font-size="16" font-weight="400" font-style="normal" 
>
<text fill="#000000" fill-opacity="1" stroke="none" xml:space="preserve" x="4" y="19" font-family="Sans" font-size="12" font-weight="400" font-style="normal" 
 >inverseCdf(x, 0, pi)</text>
</g>

<g fill="none" stroke="#000000" stroke-opacity="1" stroke-width="1" stroke-linecap="square" stroke-linejoin="bevel" transform="matrix(1.004,0,0,1.004,93.372,357.926)"
font-family="Ubuntu" font-size="16" font-weight="400" font-style="normal" 
>
</g>

<g fill="none" stroke="#000000" stroke-opacity="1" stroke-width="1" stroke-linecap="square" stroke-linejoin="bevel" transform="matrix(1,0,0,1,0,0)"
font-family="Ubuntu" font-size="16" font-weight="400" font-style="normal" 
>
</g>

<g fill="none" stroke="#000000" stroke-opacity="1" stroke-width="1" stroke-linecap="square" stroke-linejoin="bevel" transform="matrix(1.004,0,0,1.004,93.372,357.926)"
font-family="Ubuntu" font-size="16" font-weight="400" font-style="normal" 
>
</g>

<g fill="none" stroke="#000000" stroke-opacity="1" stroke-width="1" stroke-linecap="square" stroke-linejoin="bevel" transform="matrix(1.004,0,0,1.004,93.372,357.926)"
font-family="Ubuntu" font-size="16" font-weight="400" font-style="normal" 
>
</g>

<g fill="none" stroke="#000000" stroke-opacity="1" stroke-width="1" stroke-linecap="square" stroke-linejoin="bevel" transform="matrix(1.004,0,0,1.004,93.372,357.926)"
font-family="Ubuntu" font-size="16" font-weight="400" font-style="normal" 
>
</g>

<g fill="none" stroke="#000000" stroke-opacity="1" stroke-width="1" stroke-linecap="square" stroke-linejoin="bevel" transform="matrix(1.004,0,0,1.004,0,0)"
font-family="Ubuntu" font-size="16" font-weight="400" font-style="normal" 
>
</g>

<g fill="none" stroke="#00c77e" stroke-opacity="1" stroke-width="3" stroke-linecap="round" stroke-linejoin="round" transform="matrix(1.004,0,0,1.004,0,0)"
font-family="Ubuntu" font-size="16" font-weight="400" font-style="normal" 
>
<path vector-effect="none" fill-rule="evenodd" d="M392.5,369.5 L441.5,369.5"/>
</g>

<g fill="none" stroke="#000000" stroke-opacity="1" stroke-width="1" stroke-linecap="square" stroke-linejoin="bevel" transform="matrix(1.004,0,0,1.004,0,0)"
font-family="Ubuntu" font-size="16" font-weight="400" font-style="normal" 
>
</g>

<g fill="none" stroke="#000000" stroke-opacity="1" stroke-width="1" stroke-linecap="square" stroke-linejoin="bevel" transform="matrix(1.004,0,0,1.004,0,0)"
font-family="Ubuntu" font-size="16" font-weight="400" font-style="normal" 
>
</g>

<g fill="none" stroke="#000000" stroke-opacity="1" stroke-width="1" stroke-linecap="square" stroke-linejoin="bevel" transform="matrix(1.004,0,0,1.004,0,0)"
font-family="Ubuntu" font-size="16" font-weight="400" font-style="normal" 
>
</g>

<g fill="none" stroke="#000000" stroke-opacity="1" stroke-width="1" stroke-linecap="square" stroke-linejoin="bevel" transform="matrix(1.004,0,0,1.004,0,0)"
font-family="Ubuntu" font-size="16" font-weight="400" font-style="normal" 
>
</g>

<g fill="none" stroke="#00c77e" stroke-opacity="1" stroke-width="3" stroke-linecap="round" stroke-linejoin="round" transform="matrix(1.004,0,0,1.004,0,0)"
font-family="Ubuntu" font-size="16" font-weight="400" font-style="normal" 
>
<polyline fill="none" vector-effect="none" points="78,426.3 78,426.3 78.4,418.2 78.8,414.8 79.2,412.2 79.5,410 79.9,408.1 80.3,406.4 80.7,404.8 81.1,403.3 81.5,401.9 81.9,400.6 82.2,399.3 82.6,398.1 83,396.9 83.4,395.8 83.8,394.8 84.2,393.7 84.6,392.7 85,391.7 85.3,390.8 85.7,389.8 86.1,388.9 86.5,388.1 86.9,387.2 87.3,386.3 87.7,385.5 88,384.7 88.4,383.9 88.8,383.1 89.2,382.3 89.6,381.6 90,380.8 90.4,380.1 90.7,379.4 91.1,378.7 91.5,378 91.9,377.3 92.3,376.6 92.7,375.9 93.1,375.2 93.5,374.6 93.8,373.9 94.2,373.3 94.6,372.6 95,372 95.4,371.4 95.8,370.8 96.2,370.2 96.5,369.6 96.9,369 97.3,368.4 97.7,367.8 98.1,367.2 98.5,366.6 98.9,366.1 99.2,365.5 99.6,364.9 100,364.4 100.4,363.8 100.8,363.3 101.2,362.7 101.6,362.2 101.9,361.7 102.3,361.1 102.7,360.6 103.1,360.1 103.5,359.6 103.9,359 104.3,358.5 104.7,358 105,357.5 105.4,357 105.8,356.5 106.2,356 106.6,355.5 107,355 107.4,354.6 107.7,354.1 108.1,353.6 108.5,353.1 108.9,352.6 109.3,352.2 109.7,351.7 110.1,351.2 110.4,350.8 110.8,350.3 111.2,349.8 111.6,349.4 112,348.9 112.4,348.5 112.8,348 113.2,347.6 113.5,347.1 113.9,346.7 114.3,346.3 114.7,345.8 115.1,345.4 115.5,344.9 115.9,344.5 116.2,344.1 116.6,343.6 117,343.2 117.4,342.8 117.8,342.4 118.2,342 118.6,341.5 118.9,341.1 119.3,340.7 119.7,340.3 120.1,339.9 120.5,339.5 120.9,339 121.3,338.6 121.7,338.2 122,337.8 122.4,337.4 122.8,337 123.2,336.6 123.6,336.2 124,335.8 124.4,335.4 124.7,335 125.1,334.6 125.5,334.3 125.9,333.9 126.3,333.5 126.7,333.1 127.1,332.7 127.4,332.3 127.8,331.9 128.2,331.5 128.6,331.2 129,330.8 129.4,330.4 129.8,330 130.1,329.7 130.5,329.3 130.9,328.9 131.3,328.5 131.7,328.2 132.1,327.8 132.5,327.4 132.9,327 133.2,326.7 133.6,326.3 134,325.9 134.4,325.6 134.8,325.2 135.2,324.9 135.6,324.5 135.9,324.1 136.3,323.8 136.7,323.4 137.1,323.1 137.5,322.7 137.9,322.4 138.3,322 138.6,321.6 139,321.3 139.4,320.9 139.8,320.6 140.2,320.2 140.6,319.9 141,319.5 141.4,319.2 141.7,318.8 142.1,318.5 142.5,318.2 142.9,317.8 143.3,317.5 143.7,317.1 144.1,316.8 144.4,316.4 144.8,316.1 145.2,315.8 145.6,315.4 146,315.1 146.4,314.8 146.8,314.4 147.1,314.1 147.5,313.7 147.9,313.4 148.3,313.1 148.7,312.7 149.1,312.4 149.5,312.1 149.8,311.8 150.2,311.4 150.6,311.1 151,310.8 151.4,310.4 151.8,310.1 152.2,309.8 152.6,309.5 152.9,309.1 153.3,308.8 153.7,308.5 154.1,308.2 154.5,307.8 154.9,307.5 155.3,307.2 155.6,306.9 156,306.6 156.4,306.2 156.8,305.9 157.2,305.6 157.6,305.3 158,305 158.3,304.6 158.7,304.3 159.1,304 159.5,303.7 159.9,303.4 160.3,303.1 160.7,302.8 161.1,302.4 161.4,302.1 161.8,301.8 162.2,301.5 162.6,301.2 163,300.9 163.4,300.6 163.8,300.3 164.1,300 164.5,299.6 164.9,299.3 165.3,299 165.7,298.7 166.1,298.4 166.5,298.1 166.8,297.8 167.2,297.5 167.6,297.2 168,296.9 168.4,296.6 168.8,296.3 169.2,296 169.5,295.7 169.9,295.4 170.3,295.1 170.7,294.8 171.1,294.5 171.5,294.2 171.9,293.9 172.3,293.6 172.6,293.3 173,293 173.4,292.7 173.8,292.4 174.2,292.1 174.6,291.8 175,291.5 175.3,291.2 175.7,290.9 176.1,290.6 176.5,290.3 176.9,290 177.3,289.7 177.7,289.4 178,289.1 178.4,288.8 178.8,288.6 179.2,288.3 179.6,288 180,287.7 180.4,287.4 180.8,287.1 181.1,286.8 181.5,286.5 181.9,286.2 182.3,285.9 182.7,285.6 183.1,285.4 183.5,285.1 183.8,284.8 184.2,284.5 184.6,284.2 185,283.9 185.4,283.6 185.8,283.3 186.2,283.1 186.5,282.8 186.9,282.5 187.3,282.2 187.7,281.9 188.1,281.6 188.5,281.3 188.9,281.1 189.3,280.8 189.6,280.5 190,280.2 190.4,279.9 190.8,279.6 191.2,279.4 191.6,279.1 192,278.8 192.3,278.5 192.7,278.2 193.1,278 193.5,277.7 193.9,277.4 194.3,277.1 194.7,276.8 195,276.6 195.4,276.3 195.8,276 196.2,275.7 196.6,275.4 197,275.2 197.4,274.9 197.7,274.6 198.1,274.3 198.5,274 198.9,273.8 199.3,273.5 199.7,273.2 200.1,272.9 200.5,272.7 200.8,272.4 201.2,272.1 201.6,271.8 202,271.6 202.4,271.3 202.8,271 203.2,270.7 203.5,270.5 203.9,270.2 204.3,269.9 204.7,269.6 205.1,269.4 205.5,269.1 205.9,268.8 206.2,268.5 206.6,268.3 207,268 207.4,267.7 207.8,267.5 208.2,267.2 208.6,266.9 209,266.6 209.3,266.4 209.7,266.1 210.1,265.8 210.5,265.6 210.9,265.3 211.3,265 211.7,264.7 212,264.5 212.4,264.2 212.8,263.9 213.2,263.7 213.6,263.4 214,263.1 214.4,262.9 214.7,262.6 215.1,262.3 215.5,262.1 215.9,261.8 216.3,261.5 216.7,261.3 217.1,261 217.4,260.7 217.8,260.5 218.2,260.2 218.6,259.9 219,259.6 219.4,259.4 219.8,259.1 220.2,258.8 220.5,258.6 220.9,258.3 221.3,258.1 221.7,257.8 222.1,257.5 222.5,257.3 222.9,257 223.2,256.7 223.6,256.5 224,256.2 224.4,255.9 224.8,255.7 225.2,255.4 225.6,255.1 225.9,254.9 226.3,254.6 226.7,254.3 227.1,254.1 227.5,253.8 227.9,253.5 228.3,253.3 228.7,253 229,252.8 229.4,252.5 229.8,252.2 230.2,252 230.6,251.7 231,251.4 231.4,251.2 231.7,250.9 232.1,250.7 232.5,250.4 232.9,250.1 233.3,249.9 233.7,249.6 234.1,249.3 234.4,249.1 234.8,248.8 235.2,248.6 235.6,248.3 236,248 236.4,247.8 236.8,247.5 237.1,247.3 237.5,247 237.9,246.7 238.3,246.5 238.7,246.2 239.1,246 239.5,245.7 239.9,245.4 240.2,245.2 240.6,244.9 241,244.6 241.4,244.4 241.8,244.1 242.2,243.9 242.6,243.6 242.9,243.3 243.3,243.1 243.7,242.8 244.1,242.6 244.5,242.3 244.9,242.1 245.3,241.8 245.6,241.5 246,241.3 246.4,241 246.8,240.8 247.2,240.5 247.6,240.2 248,240 248.4,239.7 248.7,239.5 249.1,239.2 249.5,238.9 249.9,238.7 250.3,238.4 250.7,238.2 251.1,237.9 251.4,237.7 251.8,237.4 252.2,237.1 252.6,236.9 253,236.6 253.4,236.4 253.8,236.1 254.1,235.8 254.5,235.6 254.9,235.3 255.3,235.1 255.7,234.8 256.1,234.6 256.5,234.3 256.9,234 257.2,233.8 257.6,233.5 258,233.3 258.4,233 258.8,232.8 259.2,232.5 259.6,232.2 259.9,232 260.3,231.7 260.7,231.5 261.1,231.2 261.5,230.9 261.9,230.7 262.3,230.4 262.6,230.2 263,229.9 263.4,229.7 263.8,229.4 264.2,229.1 264.6,228.9 265,228.6 265.3,228.4 265.7,228.1 266.1,227.9 266.5,227.6 266.9,227.3 267.3,227.1 267.7,226.8 268.1,226.6 268.4,226.3 268.8,226.1 269.2,225.8 269.6,225.5 270,225.3 270.4,225 270.8,224.8 271.1,224.5 271.5,224.3 271.9,224 272.3,223.8 272.7,223.5 273.1,223.2 273.5,223 273.8,222.7 274.2,222.5 274.6,222.2 275,222 275.4,221.7 275.8,221.4 276.2,221.2 276.6,220.9 276.9,220.7 277.3,220.4 277.7,220.2 278.1,219.9 278.5,219.6 278.9,219.4 279.3,219.1 279.6,218.9 280,218.6 280.4,218.4 280.8,218.1 281.2,217.8 281.6,217.6 282,217.3 282.3,217.1 282.7,216.8 283.1,216.5 283.5,216.3 283.9,216 284.3,215.8 284.7,215.5 285,215.3 285.4,215 285.8,214.7 286.2,214.5 286.6,214.2 287,214 287.4,213.7 287.8,213.5 288.1,213.2 288.5,212.9 288.9,212.7 289.3,212.4 289.7,212.2 290.1,211.9 290.5,211.6 290.8,211.4 291.2,211.1 291.6,210.9 292,210.6 292.4,210.4 292.8,210.1 293.2,209.8 293.5,209.6 293.9,209.3 294.3,209.1 294.7,208.8 295.1,208.5 295.5,208.3 295.9,208 296.3,207.8 296.6,207.5 297,207.2 297.4,207 297.8,206.7 298.2,206.5 298.6,206.2 299,206 299.3,205.7 299.7,205.4 300.1,205.2 300.5,204.9 300.9,204.7 301.3,204.4 301.7,204.1 302,203.9 302.4,203.6 302.8,203.3 303.2,203.1 303.6,202.8 304,202.6 304.4,202.3 304.8,202 305.1,201.8 305.5,201.5 305.9,201.3 306.3,201 306.7,200.7 307.1,200.5 307.5,200.2 307.8,200 308.2,199.7 308.6,199.4 309,199.2 309.4,198.9 309.8,198.6 310.2,198.4 310.5,198.1 310.9,197.9 311.3,197.6 311.7,197.3 312.1,197.1 312.5,196.8 312.9,196.5 313.2,196.3 313.6,196 314,195.8 314.4,195.5 314.8,195.2 315.2,195 315.6,194.7 316,194.4 316.3,194.2 316.7,193.9 317.1,193.6 317.5,193.4 317.9,193.1 318.3,192.8 318.7,192.6 319,192.3 319.4,192 319.8,191.8 320.2,191.5 320.6,191.2 321,191 321.4,190.7 321.7,190.5 322.1,190.2 322.5,189.9 322.9,189.7 323.3,189.4 323.7,189.1 324.1,188.8 324.5,188.6 324.8,188.3 325.2,188 325.6,187.8 326,187.5 326.4,187.2 326.8,187 327.2,186.7 327.5,186.4 327.9,186.2 328.3,185.9 328.7,185.6 329.1,185.4 329.5,185.1 329.9,184.8 330.2,184.6 330.6,184.3 331,184 331.4,183.7 331.8,183.5 332.2,183.2 332.6,182.9 332.9,182.7 333.3,182.4 333.7,182.1 334.1,181.8 334.5,181.6 334.9,181.3 335.3,181 335.7,180.8 336,180.5 336.4,180.2 336.8,179.9 337.2,179.7 337.6,179.4 338,179.1 338.4,178.8 338.7,178.6 339.1,178.3 339.5,178 339.9,177.7 340.3,177.5 340.7,177.2 341.1,176.9 341.4,176.6 341.8,176.4 342.2,176.1 342.6,175.8 343,175.5 343.4,175.3 343.8,175 344.2,174.7 344.5,174.4 344.9,174.1 345.3,173.9 345.7,173.6 346.1,173.3 346.5,173 346.9,172.7 347.2,172.5 347.6,172.2 348,171.9 348.4,171.6 348.8,171.3 349.2,171.1 349.6,170.8 349.9,170.5 350.3,170.2 350.7,169.9 351.1,169.7 351.5,169.4 351.9,169.1 352.3,168.8 352.6,168.5 353,168.2 353.4,168 353.8,167.7 354.2,167.4 354.6,167.1 355,166.8 355.4,166.5 355.7,166.2 356.1,166 356.5,165.7 356.9,165.4 357.3,165.1 357.7,164.8 358.1,164.5 358.4,164.2 358.8,163.9 359.2,163.7 359.6,163.4 360,163.1 360.4,162.8 360.8,162.5 361.1,162.2 361.5,161.9 361.9,161.6 362.3,161.3 362.7,161 363.1,160.7 363.5,160.5 363.9,160.2 364.2,159.9 364.6,159.6 365,159.3 365.4,159 365.8,158.7 366.2,158.4 366.6,158.1 366.9,157.8 367.3,157.5 367.7,157.2 368.1,156.9 368.5,156.6 368.9,156.3 369.3,156 369.6,155.7 370,155.4 370.4,155.1 370.8,154.8 371.2,154.5 371.6,154.2 372,153.9 372.4,153.6 372.7,153.3 373.1,153 373.5,152.7 373.9,152.4 374.3,152.1 374.7,151.8 375.1,151.5 375.4,151.2 375.8,150.9 376.2,150.6 376.6,150.3 377,150 377.4,149.7 377.8,149.3 378.1,149 378.5,148.7 378.9,148.4 379.3,148.1 379.7,147.8 380.1,147.5 380.5,147.2 380.8,146.9 381.2,146.5 381.6,146.2 382,145.9 382.4,145.6 382.8,145.3 383.2,145 383.6,144.7 383.9,144.3 384.3,144 384.7,143.7 385.1,143.4 385.5,143.1 385.9,142.7 386.3,142.4 386.6,142.1 387,141.8 387.4,141.5 387.8,141.1 388.2,140.8 388.6,140.5 389,140.2 389.3,139.8 389.7,139.5 390.1,139.2 390.5,138.9 390.9,138.5 391.3,138.2 391.7,137.9 392.1,137.5 392.4,137.2 392.8,136.9 393.2,136.6 393.6,136.2 394,135.9 394.4,135.6 394.8,135.2 395.1,134.9 395.5,134.5 395.9,134.2 396.3,133.9 396.7,133.5 397.1,133.2 397.5,132.9 397.8,132.5 398.2,132.2 398.6,131.8 399,131.5 399.4,131.1 399.8,130.8 400.2,130.5 400.5,130.1 400.9,129.8 401.3,129.4 401.7,129.1 402.1,128.7 402.5,128.4 402.9,128 403.3,127.7 403.6,127.3 404,126.9 404.4,126.6 404.8,126.2 405.2,125.9 405.6,125.5 406,125.2 406.3,124.8 406.7,124.4 407.1,124.1 407.5,123.7 407.9,123.4 408.3,123 408.7,122.6 409,122.3 409.4,121.9 409.8,121.5 410.2,121.1 410.6,120.8 411,120.4 411.4,120 411.8,119.6 412.1,119.3 412.5,118.9 412.9,118.5 413.3,118.1 413.7,117.8 414.1,117.4 414.5,117 414.8,116.6 415.2,116.2 415.6,115.8 416,115.4 416.4,115 416.8,114.7 417.2,114.3 417.5,113.9 417.9,113.5 418.3,113.1 418.7,112.7 419.1,112.3 419.5,111.9 419.9,111.5 420.2,111.1 420.6,110.7 421,110.3 421.4,109.8 421.8,109.4 422.2,109 422.6,108.6 423,108.2 423.3,107.8 423.7,107.3 424.1,106.9 424.5,106.5 424.9,106.1 425.3,105.7 425.7,105.2 426,104.8 426.4,104.4 426.8,103.9 427.2,103.5 427.6,103 428,102.6 428.4,102.2 428.7,101.7 429.1,101.3 429.5,100.8 429.9,100.4 430.3,99.9 430.7,99.5 431.1,99 431.5,98.5 431.8,98.1 432.2,97.6 432.6,97.1 433,96.7 433.4,96.2 433.8,95.7 434.2,95.2 434.5,94.7 434.9,94.3 435.3,93.8 435.7,93.3 436.1,92.8 436.5,92.3 436.9,91.8 437.2,91.3 437.6,90.8 438,90.3 438.4,89.7 438.8,89.2 439.2,88.7 439.6,88.2 440,87.6 440.3,87.1 440.7,86.6 441.1,86 441.5,85.5 441.9,84.9 442.3,84.4 442.7,83.8 443,83.2 443.4,82.7 443.8,82.1 444.2,81.5 444.6,80.9 445,80.3 445.4,79.7 445.7,79.1 446.1,78.5 446.5,77.9 446.9,77.3 447.3,76.7 447.7,76 448.1,75.4 448.4,74.7 448.8,74.1 449.2,73.4 449.6,72.7 450,72 450.4,71.3 450.8,70.6 451.2,69.9 451.5,69.2 451.9,68.5 452.3,67.7 452.7,67 453.1,66.2 453.5,65.4 453.9,64.6 454.2,63.8 454.6,63 455,62.1 455.4,61.2 455.8,60.4 456.2,59.5 456.6,58.5 456.9,57.6 457.3,56.6 457.7,55.6 458.1,54.5 458.5,53.5 458.9,52.4 459.3,51.2 459.7,50 460,48.7 460.4,47.4 460.8,46 461.2,44.5 461.6,42.9 462,41.2 462.4,39.3 462.7,37.1 463.1,34.5 463.5,31.1 463.9,23 " />
</g>

<g fill="none" stroke="#000000" stroke-opacity="1" stroke-width="1" stroke-linecap="square" stroke-linejoin="bevel" transform="matrix(1.004,0,0,1.004,0,0)"
font-family="Ubuntu" font-size="16" font-weight="400" font-style="normal" 
>
</g>

<g fill="none" stroke="#000000" stroke-opacity="1" stroke-width="1" stroke-linecap="square" stroke-linejoin="bevel" transform="matrix(1.004,0,0,1.004,93.372,377.002)"
font-family="Ubuntu" font-size="16" font-weight="400" font-style="normal" 
>
</g>

<g fill="none" stroke="#000000" stroke-opacity="1" stroke-width="1" stroke-linecap="square" stroke-linejoin="bevel" transform="matrix(1.004,0,0,1.004,93.372,377.002)"
font-family="Ubuntu" font-size="16" font-weight="400" font-style="normal" 
>
</g>

<g fill="none" stroke="#000000" stroke-opacity="1" stroke-width="1" stroke-linecap="square" stroke-linejoin="bevel" transform="matrix(1.004,0,0,1.004,93.372,377.002)"
font-family="Ubuntu" font-size="16" font-weight="400" font-style="normal" 
>
</g>

<g fill="none" stroke="#000000" stroke-opacity="1" stroke-width="1" stroke-linecap="square" stroke-linejoin="bevel" transform="matrix(1.004,0,0,1.004,93.372,377.002)"
font-family="Ubuntu" font-size="16" font-weight="400" font-style="normal" 
>
<text fill="#000000" fill-opacity="1" stroke="none" xml:space="preserve" x="4" y="19" font-family="Sans" font-size="12" font-weight="400" font-style="normal" 
 >inverseCdf(x, pi/4, 3*pi/4)</text>
</g>

<g fill="none" stroke="#000000" stroke-opacity="1" stroke-width="1" stroke-linecap="square" stroke-linejoin="bevel" transform="matrix(1.004,0,0,1.004,93.372,377.002)"
font-family="Ubuntu" font-size="16" font-weight="400" font-style="normal" 
>
</g>

<g fill="none" stroke="#000000" stroke-opacity="1" stroke-width="1" stroke-linecap="square" stroke-linejoin="bevel" transform="matrix(1,0,0,1,0,0)"
font-family="Ubuntu" font-size="16" font-weight="400" font-style="normal" 
>
</g>

<g fill="none" stroke="#000000" stroke-opacity="1" stroke-width="1" stroke-linecap="square" stroke-linejoin="bevel" transform="matrix(1.004,0,0,1.004,93.372,377.002)"
font-family="Ubuntu" font-size="16" font-weight="400" font-style="normal" 
>
</g>

<g fill="none" stroke="#000000" stroke-opacity="1" stroke-width="1" stroke-linecap="square" stroke-linejoin="bevel" transform="matrix(1.004,0,0,1.004,93.372,377.002)"
font-family="Ubuntu" font-size="16" font-weight="400" font-style="normal" 
>
</g>

<g fill="none" stroke="#000000" stroke-opacity="1" stroke-width="1" stroke-linecap="square" stroke-linejoin="bevel" transform="matrix(1.004,0,0,1.004,93.372,377.002)"
font-family="Ubuntu" font-size="16" font-weight="400" font-style="normal" 
>
</g>

<g fill="none" stroke="#000000" stroke-opacity="1" stroke-width="1" stroke-linecap="square" stroke-linejoin="bevel" transform="matrix(1.004,0,0,1.004,0,0)"
font-family="Ubuntu" font-size="16" font-weight="400" font-style="normal" 
>
</g>

<g fill="none" stroke="#7e00c7" stroke-opacity="1" stroke-width="3" stroke-linecap="round" stroke-linejoin="round" transform="matrix(1.004,0,0,1.004,0,0)"
font-family="Ubuntu" font-size="16" font-weight="400" font-style="normal" 
>
<path vector-effect="none" fill-rule="evenodd" d="M392.5,388.5 L441.5,388.5"/>
</g>

<g fill="none" stroke="#000000" stroke-opacity="1" stroke-width="1" stroke-linecap="square" stroke-linejoin="bevel" transform="matrix(1.004,0,0,1.004,0,0)"
font-family="Ubuntu" font-size="16" font-weight="400" font-style="normal" 
>
</g>

<g fill="none" stroke="#000000" stroke-opacity="1" stroke-width="1" stroke-linecap="square" stroke-linejoin="bevel" transform="matrix(1.004,0,0,1.004,0,0)"
font-family="Ubuntu" font-size="16" font-weight="400" font-style="normal" 
>
</g>

<g fill="none" stroke="#000000" stroke-opacity="1" stroke-width="1" stroke-linecap="square" stroke-linejoin="bevel" transform="matrix(1.004,0,0,1.004,0,0)"
font-family="Ubuntu" font-size="16" font-weight="400" font-style="normal" 
>
</g>

<g fill="none" stroke="#000000" stroke-opacity="1" stroke-width="1" stroke-linecap="square" stroke-linejoin="bevel" transform="matrix(1.004,0,0,1.004,0,0)"
font-family="Ubuntu" font-size="16" font-weight="400" font-style="normal" 
>
</g>

<g fill="none" stroke="#7e00c7" stroke-opacity="1" stroke-width="3" stroke-linecap="round" stroke-linejoin="round" transform="matrix(1.004,0,0,1.004,0,0)"
font-family="Ubuntu" font-size="16" font-weight="400" font-style="normal" 
>
<polyline fill="none" vector-effect="none" points="78,325.5 78,325.5 78.4,325.2 78.8,325 79.2,324.7 79.5,324.5 79.9,324.2 80.3,323.9 80.7,323.7 81.1,323.4 81.5,323.2 81.9,322.9 82.2,322.7 82.6,322.4 83,322.2 83.4,321.9 83.8,321.7 84.2,321.4 84.6,321.2 85,320.9 85.3,320.7 85.7,320.4 86.1,320.2 86.5,319.9 86.9,319.7 87.3,319.4 87.7,319.2 88,319 88.4,318.7 88.8,318.5 89.2,318.2 89.6,318 90,317.7 90.4,317.5 90.7,317.3 91.1,317 91.5,316.8 91.9,316.5 92.3,316.3 92.7,316 93.1,315.8 93.5,315.6 93.8,315.3 94.2,315.1 94.6,314.9 95,314.6 95.4,314.4 95.8,314.1 96.2,313.9 96.5,313.7 96.9,313.4 97.3,313.2 97.7,313 98.1,312.7 98.5,312.5 98.9,312.3 99.2,312 99.6,311.8 100,311.6 100.4,311.3 100.8,311.1 101.2,310.9 101.6,310.6 101.9,310.4 102.3,310.2 102.7,309.9 103.1,309.7 103.5,309.5 103.9,309.2 104.3,309 104.7,308.8 105,308.5 105.4,308.3 105.8,308.1 106.2,307.9 106.6,307.6 107,307.4 107.4,307.2 107.7,307 108.1,306.7 108.5,306.5 108.9,306.3 109.3,306.1 109.7,305.8 110.1,305.6 110.4,305.4 110.8,305.2 111.2,304.9 111.6,304.7 112,304.5 112.4,304.3 112.8,304 113.2,303.8 113.5,303.6 113.9,303.4 114.3,303.1 114.7,302.9 115.1,302.7 115.5,302.5 115.9,302.3 116.2,302 116.6,301.8 117,301.6 117.4,301.4 117.8,301.2 118.2,300.9 118.6,300.7 118.9,300.5 119.3,300.3 119.7,300.1 120.1,299.8 120.5,299.6 120.9,299.4 121.3,299.2 121.7,299 122,298.8 122.4,298.5 122.8,298.3 123.2,298.1 123.6,297.9 124,297.7 124.4,297.5 124.7,297.2 125.1,297 125.5,296.8 125.9,296.6 126.3,296.4 126.7,296.2 127.1,296 127.4,295.7 127.8,295.5 128.2,295.3 128.6,295.1 129,294.9 129.4,294.7 129.8,294.5 130.1,294.3 130.5,294 130.9,293.8 131.3,293.6 131.7,293.4 132.1,293.2 132.5,293 132.9,292.8 133.2,292.6 133.6,292.3 134,292.1 134.4,291.9 134.8,291.7 135.2,291.5 135.6,291.3 135.9,291.1 136.3,290.9 136.7,290.7 137.1,290.5 137.5,290.3 137.9,290 138.3,289.8 138.6,289.6 139,289.4 139.4,289.2 139.8,289 140.2,288.8 140.6,288.6 141,288.4 141.4,288.2 141.7,288 142.1,287.8 142.5,287.6 142.9,287.4 143.3,287.2 143.7,286.9 144.1,286.7 144.4,286.5 144.8,286.3 145.2,286.1 145.6,285.9 146,285.7 146.4,285.5 146.8,285.3 147.1,285.1 147.5,284.9 147.9,284.7 148.3,284.5 148.7,284.3 149.1,284.1 149.5,283.9 149.8,283.7 150.2,283.5 150.6,283.3 151,283.1 151.4,282.9 151.8,282.7 152.2,282.5 152.6,282.3 152.9,282.1 153.3,281.9 153.7,281.7 154.1,281.5 154.5,281.3 154.9,281.1 155.3,280.9 155.6,280.7 156,280.5 156.4,280.3 156.8,280.1 157.2,279.9 157.6,279.7 158,279.5 158.3,279.3 158.7,279.1 159.1,278.9 159.5,278.7 159.9,278.5 160.3,278.3 160.7,278.1 161.1,277.9 161.4,277.7 161.8,277.5 162.2,277.3 162.6,277.1 163,276.9 163.4,276.7 163.8,276.5 164.1,276.3 164.5,276.1 164.9,275.9 165.3,275.7 165.7,275.5 166.1,275.3 166.5,275.1 166.8,274.9 167.2,274.7 167.6,274.5 168,274.3 168.4,274.1 168.8,273.9 169.2,273.7 169.5,273.5 169.9,273.3 170.3,273.1 170.7,272.9 171.1,272.7 171.5,272.5 171.9,272.4 172.3,272.2 172.6,272 173,271.8 173.4,271.6 173.8,271.4 174.2,271.2 174.6,271 175,270.8 175.3,270.6 175.7,270.4 176.1,270.2 176.5,270 176.9,269.8 177.3,269.6 177.7,269.4 178,269.2 178.4,269.1 178.8,268.9 179.2,268.7 179.6,268.5 180,268.3 180.4,268.1 180.8,267.9 181.1,267.7 181.5,267.5 181.9,267.3 182.3,267.1 182.7,266.9 183.1,266.7 183.5,266.6 183.8,266.4 184.2,266.2 184.6,266 185,265.8 185.4,265.6 185.8,265.4 186.2,265.2 186.5,265 186.9,264.8 187.3,264.6 187.7,264.4 188.1,264.3 188.5,264.1 188.9,263.9 189.3,263.7 189.6,263.5 190,263.3 190.4,263.1 190.8,262.9 191.2,262.7 191.6,262.5 192,262.4 192.3,262.2 192.7,262 193.1,261.8 193.5,261.6 193.9,261.4 194.3,261.2 194.7,261 195,260.8 195.4,260.6 195.8,260.5 196.2,260.3 196.6,260.1 197,259.9 197.4,259.7 197.7,259.5 198.1,259.3 198.5,259.1 198.9,258.9 199.3,258.8 199.7,258.6 200.1,258.4 200.5,258.2 200.8,258 201.2,257.8 201.6,257.6 202,257.4 202.4,257.3 202.8,257.1 203.2,256.9 203.5,256.7 203.9,256.5 204.3,256.3 204.7,256.1 205.1,255.9 205.5,255.8 205.9,255.6 206.2,255.4 206.6,255.2 207,255 207.4,254.8 207.8,254.6 208.2,254.4 208.6,254.3 209,254.1 209.3,253.9 209.7,253.7 210.1,253.5 210.5,253.3 210.9,253.1 211.3,253 211.7,252.8 212,252.6 212.4,252.4 212.8,252.2 213.2,252 213.6,251.8 214,251.7 214.4,251.5 214.7,251.3 215.1,251.1 215.5,250.9 215.9,250.7 216.3,250.5 216.7,250.4 217.1,250.2 217.4,250 217.8,249.8 218.2,249.6 218.6,249.4 219,249.2 219.4,249.1 219.8,248.9 220.2,248.7 220.5,248.5 220.9,248.3 221.3,248.1 221.7,247.9 222.1,247.8 222.5,247.6 222.9,247.4 223.2,247.2 223.6,247 224,246.8 224.4,246.7 224.8,246.5 225.2,246.3 225.6,246.1 225.9,245.9 226.3,245.7 226.7,245.6 227.1,245.4 227.5,245.2 227.9,245 228.3,244.8 228.7,244.6 229,244.4 229.4,244.3 229.8,244.1 230.2,243.9 230.6,243.7 231,243.5 231.4,243.3 231.7,243.2 232.1,243 232.5,242.8 232.9,242.6 233.3,242.4 233.7,242.2 234.1,242.1 234.4,241.9 234.8,241.7 235.2,241.5 235.6,241.3 236,241.1 236.4,241 236.8,240.8 237.1,240.6 237.5,240.4 237.9,240.2 238.3,240 238.7,239.9 239.1,239.7 239.5,239.5 239.9,239.3 240.2,239.1 240.6,238.9 241,238.8 241.4,238.6 241.8,238.4 242.2,238.2 242.6,238 242.9,237.8 243.3,237.7 243.7,237.5 244.1,237.3 244.5,237.1 244.9,236.9 245.3,236.8 245.6,236.6 246,236.4 246.4,236.2 246.8,236 247.2,235.8 247.6,235.7 248,235.5 248.4,235.3 248.7,235.1 249.1,234.9 249.5,234.7 249.9,234.6 250.3,234.4 250.7,234.2 251.1,234 251.4,233.8 251.8,233.7 252.2,233.5 252.6,233.3 253,233.1 253.4,232.9 253.8,232.7 254.1,232.6 254.5,232.4 254.9,232.2 255.3,232 255.7,231.8 256.1,231.7 256.5,231.5 256.9,231.3 257.2,231.1 257.6,230.9 258,230.7 258.4,230.6 258.8,230.4 259.2,230.2 259.6,230 259.9,229.8 260.3,229.6 260.7,229.5 261.1,229.3 261.5,229.1 261.9,228.9 262.3,228.7 262.6,228.6 263,228.4 263.4,228.2 263.8,228 264.2,227.8 264.6,227.6 265,227.5 265.3,227.3 265.7,227.1 266.1,226.9 266.5,226.7 266.9,226.6 267.3,226.4 267.7,226.2 268.1,226 268.4,225.8 268.8,225.6 269.2,225.5 269.6,225.3 270,225.1 270.4,224.9 270.8,224.7 271.1,224.6 271.5,224.4 271.9,224.2 272.3,224 272.7,223.8 273.1,223.7 273.5,223.5 273.8,223.3 274.2,223.1 274.6,222.9 275,222.7 275.4,222.6 275.8,222.4 276.2,222.2 276.6,222 276.9,221.8 277.3,221.7 277.7,221.5 278.1,221.3 278.5,221.1 278.9,220.9 279.3,220.7 279.6,220.6 280,220.4 280.4,220.2 280.8,220 281.2,219.8 281.6,219.7 282,219.5 282.3,219.3 282.7,219.1 283.1,218.9 283.5,218.7 283.9,218.6 284.3,218.4 284.7,218.2 285,218 285.4,217.8 285.8,217.6 286.2,217.5 286.6,217.3 287,217.1 287.4,216.9 287.8,216.7 288.1,216.6 288.5,216.4 288.9,216.2 289.3,216 289.7,215.8 290.1,215.6 290.5,215.5 290.8,215.3 291.2,215.1 291.6,214.9 292,214.7 292.4,214.6 292.8,214.4 293.2,214.2 293.5,214 293.9,213.8 294.3,213.6 294.7,213.5 295.1,213.3 295.5,213.1 295.9,212.9 296.3,212.7 296.6,212.5 297,212.4 297.4,212.2 297.8,212 298.2,211.8 298.6,211.6 299,211.5 299.3,211.3 299.7,211.1 300.1,210.9 300.5,210.7 300.9,210.5 301.3,210.4 301.7,210.2 302,210 302.4,209.8 302.8,209.6 303.2,209.4 303.6,209.3 304,209.1 304.4,208.9 304.8,208.7 305.1,208.5 305.5,208.3 305.9,208.2 306.3,208 306.7,207.8 307.1,207.6 307.5,207.4 307.8,207.2 308.2,207.1 308.6,206.9 309,206.7 309.4,206.5 309.8,206.3 310.2,206.1 310.5,206 310.9,205.8 311.3,205.6 311.7,205.4 312.1,205.2 312.5,205 312.9,204.9 313.2,204.7 313.6,204.5 314,204.3 314.4,204.1 314.8,203.9 315.2,203.7 315.6,203.6 316,203.4 316.3,203.2 316.7,203 317.1,202.8 317.5,202.6 317.9,202.5 318.3,202.3 318.7,202.1 319,201.9 319.4,201.7 319.8,201.5 320.2,201.4 320.6,201.2 321,201 321.4,200.8 321.7,200.6 322.1,200.4 322.5,200.2 322.9,200.1 323.3,199.9 323.7,199.7 324.1,199.5 324.5,199.3 324.8,199.1 325.2,198.9 325.6,198.8 326,198.6 326.4,198.4 326.8,198.2 327.2,198 327.5,197.8 327.9,197.6 328.3,197.5 328.7,197.3 329.1,197.1 329.5,196.9 329.9,196.7 330.2,196.5 330.6,196.3 331,196.2 331.4,196 331.8,195.8 332.2,195.6 332.6,195.4 332.9,195.2 333.3,195 333.7,194.9 334.1,194.7 334.5,194.5 334.9,194.3 335.3,194.1 335.7,193.9 336,193.7 336.4,193.5 336.8,193.4 337.2,193.2 337.6,193 338,192.8 338.4,192.6 338.7,192.4 339.1,192.2 339.5,192 339.9,191.9 340.3,191.7 340.7,191.5 341.1,191.3 341.4,191.1 341.8,190.9 342.2,190.7 342.6,190.5 343,190.4 343.4,190.2 343.8,190 344.2,189.8 344.5,189.6 344.9,189.4 345.3,189.2 345.7,189 346.1,188.8 346.5,188.7 346.9,188.5 347.2,188.3 347.6,188.1 348,187.9 348.4,187.7 348.8,187.5 349.2,187.3 349.6,187.1 349.9,186.9 350.3,186.8 350.7,186.6 351.1,186.4 351.5,186.2 351.9,186 352.3,185.8 352.6,185.6 353,185.4 353.4,185.2 353.8,185 354.2,184.9 354.6,184.7 355,184.5 355.4,184.3 355.7,184.1 356.1,183.9 356.5,183.7 356.9,183.5 357.3,183.3 357.7,183.1 358.1,182.9 358.4,182.7 358.8,182.6 359.2,182.4 359.6,182.2 360,182 360.4,181.8 360.8,181.6 361.1,181.4 361.5,181.2 361.9,181 362.3,180.8 362.7,180.6 363.1,180.4 363.5,180.2 363.9,180.1 364.2,179.9 364.6,179.7 365,179.5 365.4,179.3 365.8,179.1 366.2,178.9 366.6,178.7 366.9,178.5 367.3,178.3 367.7,178.1 368.1,177.9 368.5,177.7 368.9,177.5 369.3,177.3 369.6,177.1 370,176.9 370.4,176.8 370.8,176.6 371.2,176.4 371.6,176.2 372,176 372.4,175.8 372.7,175.6 373.1,175.4 373.5,175.2 373.9,175 374.3,174.8 374.7,174.6 375.1,174.4 375.4,174.2 375.8,174 376.2,173.8 376.6,173.6 377,173.4 377.4,173.2 377.8,173 378.1,172.8 378.5,172.6 378.9,172.4 379.3,172.2 379.7,172 380.1,171.8 380.5,171.6 380.8,171.4 381.2,171.2 381.6,171 382,170.8 382.4,170.6 382.8,170.4 383.2,170.2 383.6,170 383.9,169.8 384.3,169.6 384.7,169.4 385.1,169.2 385.5,169 385.9,168.8 386.3,168.6 386.6,168.4 387,168.2 387.4,168 387.8,167.8 388.2,167.6 388.6,167.4 389,167.2 389.3,167 389.7,166.8 390.1,166.6 390.5,166.4 390.9,166.2 391.3,166 391.7,165.8 392.1,165.6 392.4,165.4 392.8,165.2 393.2,165 393.6,164.8 394,164.6 394.4,164.4 394.8,164.2 395.1,164 395.5,163.8 395.9,163.6 396.3,163.4 396.7,163.2 397.1,163 397.5,162.8 397.8,162.6 398.2,162.4 398.6,162.1 399,161.9 399.4,161.7 399.8,161.5 400.2,161.3 400.5,161.1 400.9,160.9 401.3,160.7 401.7,160.5 402.1,160.3 402.5,160.1 402.9,159.9 403.3,159.7 403.6,159.5 404,159.3 404.4,159 404.8,158.8 405.2,158.6 405.6,158.4 406,158.2 406.3,158 406.7,157.8 407.1,157.6 407.5,157.4 407.9,157.2 408.3,157 408.7,156.7 409,156.5 409.4,156.3 409.8,156.1 410.2,155.9 410.6,155.7 411,155.5 411.4,155.3 411.8,155 412.1,154.8 412.5,154.6 412.9,154.4 413.3,154.2 413.7,154 414.1,153.8 414.5,153.6 414.8,153.3 415.2,153.1 415.6,152.9 416,152.7 416.4,152.5 416.8,152.3 417.2,152.1 417.5,151.8 417.9,151.6 418.3,151.4 418.7,151.2 419.1,151 419.5,150.8 419.9,150.5 420.2,150.3 420.6,150.1 421,149.9 421.4,149.7 421.8,149.5 422.2,149.2 422.6,149 423,148.8 423.3,148.6 423.7,148.4 424.1,148.1 424.5,147.9 424.9,147.7 425.3,147.5 425.7,147.3 426,147 426.4,146.8 426.8,146.6 427.2,146.4 427.6,146.2 428,145.9 428.4,145.7 428.7,145.5 429.1,145.3 429.5,145 429.9,144.8 430.3,144.6 430.7,144.4 431.1,144.1 431.5,143.9 431.8,143.7 432.2,143.5 432.6,143.2 433,143 433.4,142.8 433.8,142.6 434.2,142.3 434.5,142.1 434.9,141.9 435.3,141.7 435.7,141.4 436.1,141.2 436.5,141 436.9,140.8 437.2,140.5 437.6,140.3 438,140.1 438.4,139.8 438.8,139.6 439.2,139.4 439.6,139.1 440,138.9 440.3,138.7 440.7,138.4 441.1,138.2 441.5,138 441.9,137.7 442.3,137.5 442.7,137.3 443,137 443.4,136.8 443.8,136.6 444.2,136.3 444.6,136.1 445,135.9 445.4,135.6 445.7,135.4 446.1,135.2 446.5,134.9 446.9,134.7 447.3,134.4 447.7,134.2 448.1,134 448.4,133.7 448.8,133.5 449.2,133.3 449.6,133 450,132.8 450.4,132.5 450.8,132.3 451.2,132 451.5,131.8 451.9,131.6 452.3,131.3 452.7,131.1 453.1,130.8 453.5,130.6 453.9,130.3 454.2,130.1 454.6,129.9 455,129.6 455.4,129.4 455.8,129.1 456.2,128.9 456.6,128.6 456.9,128.4 457.3,128.1 457.7,127.9 458.1,127.6 458.5,127.4 458.9,127.1 459.3,126.9 459.7,126.6 460,126.4 460.4,126.1 460.8,125.9 461.2,125.6 461.6,125.4 462,125.1 462.4,124.8 462.7,124.6 463.1,124.3 463.5,124.1 463.9,123.8 " />
</g>

<g fill="none" stroke="#000000" stroke-opacity="1" stroke-width="1" stroke-linecap="square" stroke-linejoin="bevel" transform="matrix(1.004,0,0,1.004,0,0)"
font-family="Ubuntu" font-size="16" font-weight="400" font-style="normal" 
>
</g>

<g fill="none" stroke="#000000" stroke-opacity="1" stroke-width="1" stroke-linecap="square" stroke-linejoin="bevel" transform="matrix(1.004,0,0,1.004,93.372,396.078)"
font-family="Ubuntu" font-size="16" font-weight="400" font-style="normal" 
>
</g>

<g fill="none" stroke="#000000" stroke-opacity="1" stroke-width="1" stroke-linecap="square" stroke-linejoin="bevel" transform="matrix(1.004,0,0,1.004,93.372,396.078)"
font-family="Ubuntu" font-size="16" font-weight="400" font-style="normal" 
>
</g>

<g fill="none" stroke="#000000" stroke-opacity="1" stroke-width="1" stroke-linecap="square" stroke-linejoin="bevel" transform="matrix(1.004,0,0,1.004,93.372,396.078)"
font-family="Ubuntu" font-size="16" font-weight="400" font-style="normal" 
>
</g>

<g fill="none" stroke="#000000" stroke-opacity="1" stroke-width="1" stroke-linecap="square" stroke-linejoin="bevel" transform="matrix(1.004,0,0,1.004,93.372,396.078)"
font-family="Ubuntu" font-size="16" font-weight="400" font-style="normal" 
>
<text fill="#000000" fill-opacity="1" stroke="none" xml:space="preserve" x="4" y="19" font-family="Sans" font-size="12" font-weight="400" font-style="normal" 
 >inverseCdf(x, pi/2-pi/10, pi/2+pi/10)</text>
</g>

<g fill="none" stroke="#000000" stroke-opacity="1" stroke-width="1" stroke-linecap="square" stroke-linejoin="bevel" transform="matrix(1.004,0,0,1.004,93.372,396.078)"
font-family="Ubuntu" font-size="16" font-weight="400" font-style="normal" 
>
</g>

<g fill="none" stroke="#000000" stroke-opacity="1" stroke-width="1" stroke-linecap="square" stroke-linejoin="bevel" transform="matrix(1,0,0,1,0,0)"
font-family="Ubuntu" font-size="16" font-weight="400" font-style="normal" 
>
</g>

<g fill="none" stroke="#000000" stroke-opacity="1" stroke-width="1" stroke-linecap="square" stroke-linejoin="bevel" transform="matrix(1.004,0,0,1.004,93.372,396.078)"
font-family="Ubuntu" font-size="16" font-weight="400" font-style="normal" 
>
</g>

<g fill="none" stroke="#000000" stroke-opacity="1" stroke-width="1" stroke-linecap="square" stroke-linejoin="bevel" transform="matrix(1.004,0,0,1.004,93.372,396.078)"
font-family="Ubuntu" font-size="16" font-weight="400" font-style="normal" 
>
</g>

<g fill="none" stroke="#000000" stroke-opacity="1" stroke-width="1" stroke-linecap="square" stroke-linejoin="bevel" transform="matrix(1.004,0,0,1.004,93.372,396.078)"
font-family="Ubuntu" font-size="16" font-weight="400" font-style="normal" 
>
</g>

<g fill="none" stroke="#000000" stroke-opacity="1" stroke-width="1" stroke-linecap="square" stroke-linejoin="bevel" transform="matrix(1.004,0,0,1.004,0,0)"
font-family="Ubuntu" font-size="16" font-weight="400" font-style="normal" 
>
</g>

<g fill="none" stroke="#c77e00" stroke-opacity="1" stroke-width="3" stroke-linecap="round" stroke-linejoin="round" transform="matrix(1.004,0,0,1.004,0,0)"
font-family="Ubuntu" font-size="16" font-weight="400" font-style="normal" 
>
<path vector-effect="none" fill-rule="evenodd" d="M392.5,407.5 L441.5,407.5"/>
</g>

<g fill="none" stroke="#000000" stroke-opacity="1" stroke-width="1" stroke-linecap="square" stroke-linejoin="bevel" transform="matrix(1.004,0,0,1.004,0,0)"
font-family="Ubuntu" font-size="16" font-weight="400" font-style="normal" 
>
</g>

<g fill="none" stroke="#000000" stroke-opacity="1" stroke-width="1" stroke-linecap="square" stroke-linejoin="bevel" transform="matrix(1.004,0,0,1.004,0,0)"
font-family="Ubuntu" font-size="16" font-weight="400" font-style="normal" 
>
</g>

<g fill="none" stroke="#000000" stroke-opacity="1" stroke-width="1" stroke-linecap="square" stroke-linejoin="bevel" transform="matrix(1.004,0,0,1.004,0,0)"
font-family="Ubuntu" font-size="16" font-weight="400" font-style="normal" 
>
</g>

<g fill="none" stroke="#000000" stroke-opacity="1" stroke-width="1" stroke-linecap="square" stroke-linejoin="bevel" transform="matrix(1.004,0,0,1.004,0,0)"
font-family="Ubuntu" font-size="16" font-weight="400" font-style="normal" 
>
</g>

<g fill="none" stroke="#c77e00" stroke-opacity="1" stroke-width="3" stroke-linecap="round" stroke-linejoin="round" transform="matrix(1.004,0,0,1.004,0,0)"
font-family="Ubuntu" font-size="16" font-weight="400" font-style="normal" 
>
<polyline fill="none" vector-effect="none" points="78,265 78,265 78.4,264.9 78.8,264.8 79.2,264.7 79.5,264.6 79.9,264.6 80.3,264.5 80.7,264.4 81.1,264.3 81.5,264.2 81.9,264.1 82.2,264.1 82.6,264 83,263.9 83.4,263.8 83.8,263.7 84.2,263.6 84.6,263.6 85,263.5 85.3,263.4 85.7,263.3 86.1,263.2 86.5,263.1 86.9,263.1 87.3,263 87.7,262.9 88,262.8 88.4,262.7 88.8,262.6 89.2,262.6 89.6,262.5 90,262.4 90.4,262.3 90.7,262.2 91.1,262.2 91.5,262.1 91.9,262 92.3,261.9 92.7,261.8 93.1,261.7 93.5,261.7 93.8,261.6 94.2,261.5 94.6,261.4 95,261.3 95.4,261.2 95.8,261.2 96.2,261.1 96.5,261 96.9,260.9 97.3,260.8 97.7,260.7 98.1,260.7 98.5,260.6 98.9,260.5 99.2,260.4 99.6,260.3 100,260.2 100.4,260.2 100.8,260.1 101.2,260 101.6,259.9 101.9,259.8 102.3,259.8 102.7,259.7 103.1,259.6 103.5,259.5 103.9,259.4 104.3,259.3 104.7,259.3 105,259.2 105.4,259.1 105.8,259 106.2,258.9 106.6,258.8 107,258.8 107.4,258.7 107.7,258.6 108.1,258.5 108.5,258.4 108.9,258.4 109.3,258.3 109.7,258.2 110.1,258.1 110.4,258 110.8,257.9 111.2,257.9 111.6,257.8 112,257.7 112.4,257.6 112.8,257.5 113.2,257.4 113.5,257.4 113.9,257.3 114.3,257.2 114.7,257.1 115.1,257 115.5,257 115.9,256.9 116.2,256.8 116.6,256.7 117,256.6 117.4,256.5 117.8,256.5 118.2,256.4 118.6,256.3 118.9,256.2 119.3,256.1 119.7,256.1 120.1,256 120.5,255.9 120.9,255.8 121.3,255.7 121.7,255.6 122,255.6 122.4,255.5 122.8,255.4 123.2,255.3 123.6,255.2 124,255.2 124.4,255.1 124.7,255 125.1,254.9 125.5,254.8 125.9,254.7 126.3,254.7 126.7,254.6 127.1,254.5 127.4,254.4 127.8,254.3 128.2,254.3 128.6,254.2 129,254.1 129.4,254 129.8,253.9 130.1,253.8 130.5,253.8 130.9,253.7 131.3,253.6 131.7,253.5 132.1,253.4 132.5,253.4 132.9,253.3 133.2,253.2 133.6,253.1 134,253 134.4,253 134.8,252.9 135.2,252.8 135.6,252.7 135.9,252.6 136.3,252.5 136.7,252.5 137.1,252.4 137.5,252.3 137.9,252.2 138.3,252.1 138.6,252.1 139,252 139.4,251.9 139.8,251.8 140.2,251.7 140.6,251.7 141,251.6 141.4,251.5 141.7,251.4 142.1,251.3 142.5,251.2 142.9,251.2 143.3,251.1 143.7,251 144.1,250.9 144.4,250.8 144.8,250.8 145.2,250.7 145.6,250.6 146,250.5 146.4,250.4 146.8,250.4 147.1,250.3 147.5,250.2 147.9,250.1 148.3,250 148.7,249.9 149.1,249.9 149.5,249.8 149.8,249.7 150.2,249.6 150.6,249.5 151,249.5 151.4,249.4 151.8,249.3 152.2,249.2 152.6,249.1 152.9,249.1 153.3,249 153.7,248.9 154.1,248.8 154.5,248.7 154.9,248.7 155.3,248.6 155.6,248.5 156,248.4 156.4,248.3 156.8,248.3 157.2,248.2 157.6,248.1 158,248 158.3,247.9 158.7,247.8 159.1,247.8 159.5,247.7 159.9,247.6 160.3,247.5 160.7,247.4 161.1,247.4 161.4,247.3 161.8,247.2 162.2,247.1 162.6,247 163,247 163.4,246.9 163.8,246.8 164.1,246.7 164.5,246.6 164.9,246.6 165.3,246.5 165.7,246.4 166.1,246.3 166.5,246.2 166.8,246.2 167.2,246.1 167.6,246 168,245.9 168.4,245.8 168.8,245.8 169.2,245.7 169.5,245.6 169.9,245.5 170.3,245.4 170.7,245.3 171.1,245.3 171.5,245.2 171.9,245.1 172.3,245 172.6,244.9 173,244.9 173.4,244.8 173.8,244.7 174.2,244.6 174.6,244.5 175,244.5 175.3,244.4 175.7,244.3 176.1,244.2 176.5,244.1 176.9,244.1 177.3,244 177.7,243.9 178,243.8 178.4,243.7 178.8,243.7 179.2,243.6 179.6,243.5 180,243.4 180.4,243.3 180.8,243.3 181.1,243.2 181.5,243.1 181.9,243 182.3,242.9 182.7,242.9 183.1,242.8 183.5,242.7 183.8,242.6 184.2,242.5 184.6,242.5 185,242.4 185.4,242.3 185.8,242.2 186.2,242.1 186.5,242.1 186.9,242 187.3,241.9 187.7,241.8 188.1,241.7 188.5,241.7 188.9,241.6 189.3,241.5 189.6,241.4 190,241.3 190.4,241.3 190.8,241.2 191.2,241.1 191.6,241 192,240.9 192.3,240.9 192.7,240.8 193.1,240.7 193.5,240.6 193.9,240.5 194.3,240.5 194.7,240.4 195,240.3 195.4,240.2 195.8,240.1 196.2,240.1 196.6,240 197,239.9 197.4,239.8 197.7,239.7 198.1,239.7 198.5,239.6 198.9,239.5 199.3,239.4 199.7,239.3 200.1,239.3 200.5,239.2 200.8,239.1 201.2,239 201.6,238.9 202,238.9 202.4,238.8 202.8,238.7 203.2,238.6 203.5,238.5 203.9,238.5 204.3,238.4 204.7,238.3 205.1,238.2 205.5,238.1 205.9,238.1 206.2,238 206.6,237.9 207,237.8 207.4,237.7 207.8,237.7 208.2,237.6 208.6,237.5 209,237.4 209.3,237.3 209.7,237.3 210.1,237.2 210.5,237.1 210.9,237 211.3,236.9 211.7,236.9 212,236.8 212.4,236.7 212.8,236.6 213.2,236.5 213.6,236.5 214,236.4 214.4,236.3 214.7,236.2 215.1,236.1 215.5,236.1 215.9,236 216.3,235.9 216.7,235.8 217.1,235.7 217.4,235.7 217.8,235.6 218.2,235.5 218.6,235.4 219,235.3 219.4,235.3 219.8,235.2 220.2,235.1 220.5,235 220.9,234.9 221.3,234.9 221.7,234.8 222.1,234.7 222.5,234.6 222.9,234.5 223.2,234.5 223.6,234.4 224,234.3 224.4,234.2 224.8,234.1 225.2,234.1 225.6,234 225.9,233.9 226.3,233.8 226.7,233.8 227.1,233.7 227.5,233.6 227.9,233.5 228.3,233.4 228.7,233.4 229,233.3 229.4,233.2 229.8,233.1 230.2,233 230.6,233 231,232.9 231.4,232.8 231.7,232.7 232.1,232.6 232.5,232.6 232.9,232.5 233.3,232.4 233.7,232.3 234.1,232.2 234.4,232.2 234.8,232.1 235.2,232 235.6,231.9 236,231.8 236.4,231.8 236.8,231.7 237.1,231.6 237.5,231.5 237.9,231.4 238.3,231.4 238.7,231.3 239.1,231.2 239.5,231.1 239.9,231 240.2,231 240.6,230.9 241,230.8 241.4,230.7 241.8,230.6 242.2,230.6 242.6,230.5 242.9,230.4 243.3,230.3 243.7,230.3 244.1,230.2 244.5,230.1 244.9,230 245.3,229.9 245.6,229.9 246,229.8 246.4,229.7 246.8,229.6 247.2,229.5 247.6,229.5 248,229.4 248.4,229.3 248.7,229.2 249.1,229.1 249.5,229.1 249.9,229 250.3,228.9 250.7,228.8 251.1,228.7 251.4,228.7 251.8,228.6 252.2,228.5 252.6,228.4 253,228.3 253.4,228.3 253.8,228.2 254.1,228.1 254.5,228 254.9,227.9 255.3,227.9 255.7,227.8 256.1,227.7 256.5,227.6 256.9,227.5 257.2,227.5 257.6,227.4 258,227.3 258.4,227.2 258.8,227.2 259.2,227.1 259.6,227 259.9,226.9 260.3,226.8 260.7,226.8 261.1,226.7 261.5,226.6 261.9,226.5 262.3,226.4 262.6,226.4 263,226.3 263.4,226.2 263.8,226.1 264.2,226 264.6,226 265,225.9 265.3,225.8 265.7,225.7 266.1,225.6 266.5,225.6 266.9,225.5 267.3,225.4 267.7,225.3 268.1,225.2 268.4,225.2 268.8,225.1 269.2,225 269.6,224.9 270,224.8 270.4,224.8 270.8,224.7 271.1,224.6 271.5,224.5 271.9,224.5 272.3,224.4 272.7,224.3 273.1,224.2 273.5,224.1 273.8,224.1 274.2,224 274.6,223.9 275,223.8 275.4,223.7 275.8,223.7 276.2,223.6 276.6,223.5 276.9,223.4 277.3,223.3 277.7,223.3 278.1,223.2 278.5,223.1 278.9,223 279.3,222.9 279.6,222.9 280,222.8 280.4,222.7 280.8,222.6 281.2,222.5 281.6,222.5 282,222.4 282.3,222.3 282.7,222.2 283.1,222.1 283.5,222.1 283.9,222 284.3,221.9 284.7,221.8 285,221.8 285.4,221.7 285.8,221.6 286.2,221.5 286.6,221.4 287,221.4 287.4,221.3 287.8,221.2 288.1,221.1 288.5,221 288.9,221 289.3,220.9 289.7,220.8 290.1,220.7 290.5,220.6 290.8,220.6 291.2,220.5 291.6,220.4 292,220.3 292.4,220.2 292.8,220.2 293.2,220.1 293.5,220 293.9,219.9 294.3,219.8 294.7,219.8 295.1,219.7 295.5,219.6 295.9,219.5 296.3,219.4 296.6,219.4 297,219.3 297.4,219.2 297.8,219.1 298.2,219 298.6,219 299,218.9 299.3,218.8 299.7,218.7 300.1,218.7 300.5,218.6 300.9,218.5 301.3,218.4 301.7,218.3 302,218.3 302.4,218.2 302.8,218.1 303.2,218 303.6,217.9 304,217.9 304.4,217.8 304.8,217.7 305.1,217.6 305.5,217.5 305.9,217.5 306.3,217.4 306.7,217.3 307.1,217.2 307.5,217.1 307.8,217.1 308.2,217 308.6,216.9 309,216.8 309.4,216.7 309.8,216.7 310.2,216.6 310.5,216.5 310.9,216.4 311.3,216.3 311.7,216.3 312.1,216.2 312.5,216.1 312.9,216 313.2,215.9 313.6,215.9 314,215.8 314.4,215.7 314.8,215.6 315.2,215.5 315.6,215.5 316,215.4 316.3,215.3 316.7,215.2 317.1,215.2 317.5,215.1 317.9,215 318.3,214.9 318.7,214.8 319,214.8 319.4,214.7 319.8,214.6 320.2,214.5 320.6,214.4 321,214.4 321.4,214.3 321.7,214.2 322.1,214.1 322.5,214 322.9,214 323.3,213.9 323.7,213.8 324.1,213.7 324.5,213.6 324.8,213.6 325.2,213.5 325.6,213.4 326,213.3 326.4,213.2 326.8,213.2 327.2,213.1 327.5,213 327.9,212.9 328.3,212.8 328.7,212.8 329.1,212.7 329.5,212.6 329.9,212.5 330.2,212.4 330.6,212.4 331,212.3 331.4,212.2 331.8,212.1 332.2,212 332.6,212 332.9,211.9 333.3,211.8 333.7,211.7 334.1,211.6 334.5,211.6 334.9,211.5 335.3,211.4 335.7,211.3 336,211.2 336.4,211.2 336.8,211.1 337.2,211 337.6,210.9 338,210.8 338.4,210.8 338.7,210.7 339.1,210.6 339.5,210.5 339.9,210.4 340.3,210.4 340.7,210.3 341.1,210.2 341.4,210.1 341.8,210 342.2,210 342.6,209.9 343,209.8 343.4,209.7 343.8,209.6 344.2,209.6 344.5,209.5 344.9,209.4 345.3,209.3 345.7,209.2 346.1,209.2 346.5,209.1 346.9,209 347.2,208.9 347.6,208.8 348,208.8 348.4,208.7 348.8,208.6 349.2,208.5 349.6,208.4 349.9,208.4 350.3,208.3 350.7,208.2 351.1,208.1 351.5,208 351.9,208 352.3,207.9 352.6,207.8 353,207.7 353.4,207.6 353.8,207.6 354.2,207.5 354.6,207.4 355,207.3 355.4,207.2 355.7,207.2 356.1,207.1 356.5,207 356.9,206.9 357.3,206.8 357.7,206.8 358.1,206.7 358.4,206.6 358.8,206.5 359.2,206.4 359.6,206.4 360,206.3 360.4,206.2 360.8,206.1 361.1,206 361.5,206 361.9,205.9 362.3,205.8 362.7,205.7 363.1,205.6 363.5,205.6 363.9,205.5 364.2,205.4 364.6,205.3 365,205.2 365.4,205.2 365.8,205.1 366.2,205 366.6,204.9 366.9,204.8 367.3,204.8 367.7,204.7 368.1,204.6 368.5,204.5 368.9,204.4 369.3,204.4 369.6,204.3 370,204.2 370.4,204.1 370.8,204 371.2,204 371.6,203.9 372,203.8 372.4,203.7 372.7,203.6 373.1,203.5 373.5,203.5 373.9,203.4 374.3,203.3 374.7,203.2 375.1,203.1 375.4,203.1 375.8,203 376.2,202.9 376.6,202.8 377,202.7 377.4,202.7 377.8,202.6 378.1,202.5 378.5,202.4 378.9,202.3 379.3,202.3 379.7,202.2 380.1,202.1 380.5,202 380.8,201.9 381.2,201.9 381.6,201.8 382,201.7 382.4,201.6 382.8,201.5 383.2,201.5 383.6,201.4 383.9,201.3 384.3,201.2 384.7,201.1 385.1,201 385.5,201 385.9,200.9 386.3,200.8 386.6,200.7 387,200.6 387.4,200.6 387.8,200.5 388.2,200.4 388.6,200.3 389,200.2 389.3,200.2 389.7,200.1 390.1,200 390.5,199.9 390.9,199.8 391.3,199.8 391.7,199.7 392.1,199.6 392.4,199.5 392.8,199.4 393.2,199.4 393.6,199.3 394,199.2 394.4,199.1 394.8,199 395.1,198.9 395.5,198.9 395.9,198.8 396.3,198.7 396.7,198.6 397.1,198.5 397.5,198.5 397.8,198.4 398.2,198.3 398.6,198.2 399,198.1 399.4,198.1 399.8,198 400.2,197.9 400.5,197.8 400.9,197.7 401.3,197.6 401.7,197.6 402.1,197.5 402.5,197.4 402.9,197.3 403.3,197.2 403.6,197.2 404,197.1 404.4,197 404.8,196.9 405.2,196.8 405.6,196.8 406,196.7 406.3,196.6 406.7,196.5 407.1,196.4 407.5,196.3 407.9,196.3 408.3,196.2 408.7,196.1 409,196 409.4,195.9 409.8,195.9 410.2,195.8 410.6,195.7 411,195.6 411.4,195.5 411.8,195.5 412.1,195.4 412.5,195.3 412.9,195.2 413.3,195.1 413.7,195 414.1,195 414.5,194.9 414.8,194.8 415.2,194.7 415.6,194.6 416,194.6 416.4,194.5 416.8,194.4 417.2,194.3 417.5,194.2 417.9,194.1 418.3,194.1 418.7,194 419.1,193.9 419.5,193.8 419.9,193.7 420.2,193.7 420.6,193.6 421,193.5 421.4,193.4 421.8,193.3 422.2,193.2 422.6,193.2 423,193.1 423.3,193 423.7,192.9 424.1,192.8 424.5,192.8 424.9,192.7 425.3,192.6 425.7,192.5 426,192.4 426.4,192.3 426.8,192.3 427.2,192.2 427.6,192.1 428,192 428.4,191.9 428.7,191.9 429.1,191.8 429.5,191.7 429.9,191.6 430.3,191.5 430.7,191.4 431.1,191.4 431.5,191.3 431.8,191.2 432.2,191.1 432.6,191 433,190.9 433.4,190.9 433.8,190.8 434.2,190.7 434.5,190.6 434.9,190.5 435.3,190.5 435.7,190.4 436.1,190.3 436.5,190.2 436.9,190.1 437.2,190 437.6,190 438,189.9 438.4,189.8 438.8,189.7 439.2,189.6 439.6,189.5 440,189.5 440.3,189.4 440.7,189.3 441.1,189.2 441.5,189.1 441.9,189.1 442.3,189 442.7,188.9 443,188.8 443.4,188.7 443.8,188.6 444.2,188.6 444.6,188.5 445,188.4 445.4,188.3 445.7,188.2 446.1,188.1 446.5,188.1 446.9,188 447.3,187.9 447.7,187.8 448.1,187.7 448.4,187.6 448.8,187.6 449.2,187.5 449.6,187.4 450,187.3 450.4,187.2 450.8,187.1 451.2,187.1 451.5,187 451.9,186.9 452.3,186.8 452.7,186.7 453.1,186.7 453.5,186.6 453.9,186.5 454.2,186.4 454.6,186.3 455,186.2 455.4,186.2 455.8,186.1 456.2,186 456.6,185.9 456.9,185.8 457.3,185.7 457.7,185.7 458.1,185.6 458.5,185.5 458.9,185.4 459.3,185.3 459.7,185.2 460,185.2 460.4,185.1 460.8,185 461.2,184.9 461.6,184.8 462,184.7 462.4,184.7 462.7,184.6 463.1,184.5 463.5,184.4 463.9,184.3 " />
</g>

<g fill="none" stroke="#000000" stroke-opacity="1" stroke-width="1" stroke-linecap="square" stroke-linejoin="bevel" transform="matrix(1.004,0,0,1.004,0,0)"
font-family="Ubuntu" font-size="16" font-weight="400" font-style="normal" 
>
</g>

<g fill="none" stroke="#000000" stroke-opacity="1" stroke-width="1" stroke-linecap="square" stroke-linejoin="bevel" transform="matrix(1.004,0,0,1.004,0,0)"
font-family="Ubuntu" font-size="16" font-weight="400" font-style="normal" 
>
</g>

<g fill="none" stroke="#000000" stroke-opacity="1" stroke-width="1" stroke-linecap="round" stroke-linejoin="round" transform="matrix(1.004,0,0,1.004,0,0)"
font-family="Ubuntu" font-size="16" font-weight="400" font-style="normal" 
>
<polyline fill="none" vector-effect="none" points="78.5,23.5 78.5,426.5 463.5,426.5 463.5,23.5 78.5,23.5 " />
</g>

<g fill="none" stroke="#000000" stroke-opacity="1" stroke-width="1" stroke-linecap="square" stroke-linejoin="bevel" transform="matrix(1.004,0,0,1.004,0,0)"
font-family="Ubuntu" font-size="16" font-weight="400" font-style="normal" 
>
</g>

<g fill="none" stroke="#000000" stroke-opacity="1" stroke-width="1" stroke-linecap="square" stroke-linejoin="bevel" transform="matrix(1,0,0,1,0,0)"
font-family="Ubuntu" font-size="16" font-weight="400" font-style="normal" 
>
</g>
</g>
</svg>
