<?xml version="1.0" encoding="UTF-8" standalone="no"?>
<svg width="177.094mm" height="177.094mm"
 viewBox="0 0 502 502"
 xmlns="http://www.w3.org/2000/svg" xmlns:xlink="http://www.w3.org/1999/xlink"  version="1.2" baseProfile="tiny">
<title>Qt SVG Document</title>
<desc>Generated with Qt</desc>
<defs>
</defs>
<g fill="none" stroke="black" stroke-width="1" fill-rule="evenodd" stroke-linecap="square" stroke-linejoin="bevel" >

<g fill="none" stroke="#000000" stroke-opacity="1" stroke-width="1" stroke-linecap="square" stroke-linejoin="bevel" transform="matrix(1,0,0,1,0,0)"
font-family="Ubuntu" font-size="16" font-weight="400" font-style="normal" 
>
</g>

<g fill="none" stroke="#000000" stroke-opacity="1" stroke-width="1" stroke-linecap="square" stroke-linejoin="bevel" transform="matrix(1.004,0,0,1.004,0,0)"
font-family="Ubuntu" font-size="16" font-weight="400" font-style="normal" 
>
</g>

<g fill="none" stroke="#a0a0a4" stroke-opacity="1" stroke-dasharray="2,4" stroke-dashoffset="0" stroke-width="2" stroke-linecap="round" stroke-linejoin="round" transform="matrix(1.004,0,0,1.004,0,0)"
font-family="Ubuntu" font-size="16" font-weight="400" font-style="normal" 
>
<polyline fill="none" vector-effect="none" points="66.5,426.5 463.5,426.5 " />
</g>

<g fill="none" stroke="#000000" stroke-opacity="1" stroke-width="1" stroke-linecap="round" stroke-linejoin="round" transform="matrix(1.004,0,0,1.004,0,0)"
font-family="Ubuntu" font-size="16" font-weight="400" font-style="normal" 
>
<polyline fill="none" vector-effect="none" points="66.5,426.5 75.5,426.5 " />
<polyline fill="none" vector-effect="none" points="463.5,426.5 454.5,426.5 " />
</g>

<g fill="none" stroke="#000000" stroke-opacity="1" stroke-width="1" stroke-linecap="square" stroke-linejoin="bevel" transform="matrix(1.004,0,0,1.004,0,0)"
font-family="Ubuntu" font-size="16" font-weight="400" font-style="normal" 
>
</g>

<g fill="none" stroke="#000000" stroke-opacity="1" stroke-width="1" stroke-linecap="square" stroke-linejoin="bevel" transform="matrix(1.004,0,0,1.004,28.0022,412.142)"
font-family="Ubuntu" font-size="16" font-weight="400" font-style="normal" 
>
</g>

<g fill="none" stroke="#000000" stroke-opacity="1" stroke-width="1" stroke-linecap="square" stroke-linejoin="bevel" transform="matrix(1.004,0,0,1.004,28.0022,412.142)"
font-family="Ubuntu" font-size="16" font-weight="400" font-style="normal" 
>
</g>

<g fill="none" stroke="#000000" stroke-opacity="1" stroke-width="1" stroke-linecap="square" stroke-linejoin="bevel" transform="matrix(1.004,0,0,1.004,28.0022,412.142)"
font-family="Ubuntu" font-size="16" font-weight="400" font-style="normal" 
>
</g>

<g fill="none" stroke="#000000" stroke-opacity="1" stroke-width="1" stroke-linecap="square" stroke-linejoin="bevel" transform="matrix(1.004,0,0,1.004,28.0022,412.142)"
font-family="Ubuntu" font-size="16" font-weight="400" font-style="normal" 
>
<text fill="#000000" fill-opacity="1" stroke="none" xml:space="preserve" x="4" y="22" font-family="Sans" font-size="14" font-weight="400" font-style="normal" 
 > 0</text>
</g>

<g fill="none" stroke="#000000" stroke-opacity="1" stroke-width="1" stroke-linecap="square" stroke-linejoin="bevel" transform="matrix(1.004,0,0,1.004,28.0022,412.142)"
font-family="Ubuntu" font-size="16" font-weight="400" font-style="normal" 
>
</g>

<g fill="none" stroke="#000000" stroke-opacity="1" stroke-width="1" stroke-linecap="square" stroke-linejoin="bevel" transform="matrix(1,0,0,1,0,0)"
font-family="Ubuntu" font-size="16" font-weight="400" font-style="normal" 
>
</g>

<g fill="none" stroke="#000000" stroke-opacity="1" stroke-width="1" stroke-linecap="square" stroke-linejoin="bevel" transform="matrix(1.004,0,0,1.004,28.0022,412.142)"
font-family="Ubuntu" font-size="16" font-weight="400" font-style="normal" 
>
</g>

<g fill="none" stroke="#000000" stroke-opacity="1" stroke-width="1" stroke-linecap="square" stroke-linejoin="bevel" transform="matrix(1.004,0,0,1.004,28.0022,412.142)"
font-family="Ubuntu" font-size="16" font-weight="400" font-style="normal" 
>
</g>

<g fill="none" stroke="#000000" stroke-opacity="1" stroke-width="1" stroke-linecap="square" stroke-linejoin="bevel" transform="matrix(1.004,0,0,1.004,28.0022,412.142)"
font-family="Ubuntu" font-size="16" font-weight="400" font-style="normal" 
>
</g>

<g fill="none" stroke="#000000" stroke-opacity="1" stroke-width="1" stroke-linecap="square" stroke-linejoin="bevel" transform="matrix(1.004,0,0,1.004,0,0)"
font-family="Ubuntu" font-size="16" font-weight="400" font-style="normal" 
>
</g>

<g fill="none" stroke="#a0a0a4" stroke-opacity="1" stroke-dasharray="2,4" stroke-dashoffset="0" stroke-width="2" stroke-linecap="round" stroke-linejoin="round" transform="matrix(1.004,0,0,1.004,0,0)"
font-family="Ubuntu" font-size="16" font-weight="400" font-style="normal" 
>
<polyline fill="none" vector-effect="none" points="66.5,345.5 463.5,345.5 " />
</g>

<g fill="none" stroke="#000000" stroke-opacity="1" stroke-width="1" stroke-linecap="round" stroke-linejoin="round" transform="matrix(1.004,0,0,1.004,0,0)"
font-family="Ubuntu" font-size="16" font-weight="400" font-style="normal" 
>
<polyline fill="none" vector-effect="none" points="66.5,345.5 75.5,345.5 " />
<polyline fill="none" vector-effect="none" points="463.5,345.5 454.5,345.5 " />
</g>

<g fill="none" stroke="#000000" stroke-opacity="1" stroke-width="1" stroke-linecap="square" stroke-linejoin="bevel" transform="matrix(1.004,0,0,1.004,0,0)"
font-family="Ubuntu" font-size="16" font-weight="400" font-style="normal" 
>
</g>

<g fill="none" stroke="#000000" stroke-opacity="1" stroke-width="1" stroke-linecap="square" stroke-linejoin="bevel" transform="matrix(1.004,0,0,1.004,28.0022,331.822)"
font-family="Ubuntu" font-size="16" font-weight="400" font-style="normal" 
>
</g>

<g fill="none" stroke="#000000" stroke-opacity="1" stroke-width="1" stroke-linecap="square" stroke-linejoin="bevel" transform="matrix(1.004,0,0,1.004,28.0022,331.822)"
font-family="Ubuntu" font-size="16" font-weight="400" font-style="normal" 
>
</g>

<g fill="none" stroke="#000000" stroke-opacity="1" stroke-width="1" stroke-linecap="square" stroke-linejoin="bevel" transform="matrix(1.004,0,0,1.004,28.0022,331.822)"
font-family="Ubuntu" font-size="16" font-weight="400" font-style="normal" 
>
</g>

<g fill="none" stroke="#000000" stroke-opacity="1" stroke-width="1" stroke-linecap="square" stroke-linejoin="bevel" transform="matrix(1.004,0,0,1.004,28.0022,331.822)"
font-family="Ubuntu" font-size="16" font-weight="400" font-style="normal" 
>
<text fill="#000000" fill-opacity="1" stroke="none" xml:space="preserve" x="4" y="22" font-family="Sans" font-size="14" font-weight="400" font-style="normal" 
 > 2</text>
</g>

<g fill="none" stroke="#000000" stroke-opacity="1" stroke-width="1" stroke-linecap="square" stroke-linejoin="bevel" transform="matrix(1.004,0,0,1.004,28.0022,331.822)"
font-family="Ubuntu" font-size="16" font-weight="400" font-style="normal" 
>
</g>

<g fill="none" stroke="#000000" stroke-opacity="1" stroke-width="1" stroke-linecap="square" stroke-linejoin="bevel" transform="matrix(1,0,0,1,0,0)"
font-family="Ubuntu" font-size="16" font-weight="400" font-style="normal" 
>
</g>

<g fill="none" stroke="#000000" stroke-opacity="1" stroke-width="1" stroke-linecap="square" stroke-linejoin="bevel" transform="matrix(1.004,0,0,1.004,28.0022,331.822)"
font-family="Ubuntu" font-size="16" font-weight="400" font-style="normal" 
>
</g>

<g fill="none" stroke="#000000" stroke-opacity="1" stroke-width="1" stroke-linecap="square" stroke-linejoin="bevel" transform="matrix(1.004,0,0,1.004,28.0022,331.822)"
font-family="Ubuntu" font-size="16" font-weight="400" font-style="normal" 
>
</g>

<g fill="none" stroke="#000000" stroke-opacity="1" stroke-width="1" stroke-linecap="square" stroke-linejoin="bevel" transform="matrix(1.004,0,0,1.004,28.0022,331.822)"
font-family="Ubuntu" font-size="16" font-weight="400" font-style="normal" 
>
</g>

<g fill="none" stroke="#000000" stroke-opacity="1" stroke-width="1" stroke-linecap="square" stroke-linejoin="bevel" transform="matrix(1.004,0,0,1.004,0,0)"
font-family="Ubuntu" font-size="16" font-weight="400" font-style="normal" 
>
</g>

<g fill="none" stroke="#a0a0a4" stroke-opacity="1" stroke-dasharray="2,4" stroke-dashoffset="0" stroke-width="2" stroke-linecap="round" stroke-linejoin="round" transform="matrix(1.004,0,0,1.004,0,0)"
font-family="Ubuntu" font-size="16" font-weight="400" font-style="normal" 
>
<polyline fill="none" vector-effect="none" points="66.5,265.5 463.5,265.5 " />
</g>

<g fill="none" stroke="#000000" stroke-opacity="1" stroke-width="1" stroke-linecap="round" stroke-linejoin="round" transform="matrix(1.004,0,0,1.004,0,0)"
font-family="Ubuntu" font-size="16" font-weight="400" font-style="normal" 
>
<polyline fill="none" vector-effect="none" points="66.5,265.5 75.5,265.5 " />
<polyline fill="none" vector-effect="none" points="463.5,265.5 454.5,265.5 " />
</g>

<g fill="none" stroke="#000000" stroke-opacity="1" stroke-width="1" stroke-linecap="square" stroke-linejoin="bevel" transform="matrix(1.004,0,0,1.004,0,0)"
font-family="Ubuntu" font-size="16" font-weight="400" font-style="normal" 
>
</g>

<g fill="none" stroke="#000000" stroke-opacity="1" stroke-width="1" stroke-linecap="square" stroke-linejoin="bevel" transform="matrix(1.004,0,0,1.004,28.0022,250.498)"
font-family="Ubuntu" font-size="16" font-weight="400" font-style="normal" 
>
</g>

<g fill="none" stroke="#000000" stroke-opacity="1" stroke-width="1" stroke-linecap="square" stroke-linejoin="bevel" transform="matrix(1.004,0,0,1.004,28.0022,250.498)"
font-family="Ubuntu" font-size="16" font-weight="400" font-style="normal" 
>
</g>

<g fill="none" stroke="#000000" stroke-opacity="1" stroke-width="1" stroke-linecap="square" stroke-linejoin="bevel" transform="matrix(1.004,0,0,1.004,28.0022,250.498)"
font-family="Ubuntu" font-size="16" font-weight="400" font-style="normal" 
>
</g>

<g fill="none" stroke="#000000" stroke-opacity="1" stroke-width="1" stroke-linecap="square" stroke-linejoin="bevel" transform="matrix(1.004,0,0,1.004,28.0022,250.498)"
font-family="Ubuntu" font-size="16" font-weight="400" font-style="normal" 
>
<text fill="#000000" fill-opacity="1" stroke="none" xml:space="preserve" x="4" y="22" font-family="Sans" font-size="14" font-weight="400" font-style="normal" 
 > 4</text>
</g>

<g fill="none" stroke="#000000" stroke-opacity="1" stroke-width="1" stroke-linecap="square" stroke-linejoin="bevel" transform="matrix(1.004,0,0,1.004,28.0022,250.498)"
font-family="Ubuntu" font-size="16" font-weight="400" font-style="normal" 
>
</g>

<g fill="none" stroke="#000000" stroke-opacity="1" stroke-width="1" stroke-linecap="square" stroke-linejoin="bevel" transform="matrix(1,0,0,1,0,0)"
font-family="Ubuntu" font-size="16" font-weight="400" font-style="normal" 
>
</g>

<g fill="none" stroke="#000000" stroke-opacity="1" stroke-width="1" stroke-linecap="square" stroke-linejoin="bevel" transform="matrix(1.004,0,0,1.004,28.0022,250.498)"
font-family="Ubuntu" font-size="16" font-weight="400" font-style="normal" 
>
</g>

<g fill="none" stroke="#000000" stroke-opacity="1" stroke-width="1" stroke-linecap="square" stroke-linejoin="bevel" transform="matrix(1.004,0,0,1.004,28.0022,250.498)"
font-family="Ubuntu" font-size="16" font-weight="400" font-style="normal" 
>
</g>

<g fill="none" stroke="#000000" stroke-opacity="1" stroke-width="1" stroke-linecap="square" stroke-linejoin="bevel" transform="matrix(1.004,0,0,1.004,28.0022,250.498)"
font-family="Ubuntu" font-size="16" font-weight="400" font-style="normal" 
>
</g>

<g fill="none" stroke="#000000" stroke-opacity="1" stroke-width="1" stroke-linecap="square" stroke-linejoin="bevel" transform="matrix(1.004,0,0,1.004,0,0)"
font-family="Ubuntu" font-size="16" font-weight="400" font-style="normal" 
>
</g>

<g fill="none" stroke="#a0a0a4" stroke-opacity="1" stroke-dasharray="2,4" stroke-dashoffset="0" stroke-width="2" stroke-linecap="round" stroke-linejoin="round" transform="matrix(1.004,0,0,1.004,0,0)"
font-family="Ubuntu" font-size="16" font-weight="400" font-style="normal" 
>
<polyline fill="none" vector-effect="none" points="66.5,184.5 463.5,184.5 " />
</g>

<g fill="none" stroke="#000000" stroke-opacity="1" stroke-width="1" stroke-linecap="round" stroke-linejoin="round" transform="matrix(1.004,0,0,1.004,0,0)"
font-family="Ubuntu" font-size="16" font-weight="400" font-style="normal" 
>
<polyline fill="none" vector-effect="none" points="66.5,184.5 75.5,184.5 " />
<polyline fill="none" vector-effect="none" points="463.5,184.5 454.5,184.5 " />
</g>

<g fill="none" stroke="#000000" stroke-opacity="1" stroke-width="1" stroke-linecap="square" stroke-linejoin="bevel" transform="matrix(1.004,0,0,1.004,0,0)"
font-family="Ubuntu" font-size="16" font-weight="400" font-style="normal" 
>
</g>

<g fill="none" stroke="#000000" stroke-opacity="1" stroke-width="1" stroke-linecap="square" stroke-linejoin="bevel" transform="matrix(1.004,0,0,1.004,28.0022,169.174)"
font-family="Ubuntu" font-size="16" font-weight="400" font-style="normal" 
>
</g>

<g fill="none" stroke="#000000" stroke-opacity="1" stroke-width="1" stroke-linecap="square" stroke-linejoin="bevel" transform="matrix(1.004,0,0,1.004,28.0022,169.174)"
font-family="Ubuntu" font-size="16" font-weight="400" font-style="normal" 
>
</g>

<g fill="none" stroke="#000000" stroke-opacity="1" stroke-width="1" stroke-linecap="square" stroke-linejoin="bevel" transform="matrix(1.004,0,0,1.004,28.0022,169.174)"
font-family="Ubuntu" font-size="16" font-weight="400" font-style="normal" 
>
</g>

<g fill="none" stroke="#000000" stroke-opacity="1" stroke-width="1" stroke-linecap="square" stroke-linejoin="bevel" transform="matrix(1.004,0,0,1.004,28.0022,169.174)"
font-family="Ubuntu" font-size="16" font-weight="400" font-style="normal" 
>
<text fill="#000000" fill-opacity="1" stroke="none" xml:space="preserve" x="4" y="22" font-family="Sans" font-size="14" font-weight="400" font-style="normal" 
 > 6</text>
</g>

<g fill="none" stroke="#000000" stroke-opacity="1" stroke-width="1" stroke-linecap="square" stroke-linejoin="bevel" transform="matrix(1.004,0,0,1.004,28.0022,169.174)"
font-family="Ubuntu" font-size="16" font-weight="400" font-style="normal" 
>
</g>

<g fill="none" stroke="#000000" stroke-opacity="1" stroke-width="1" stroke-linecap="square" stroke-linejoin="bevel" transform="matrix(1,0,0,1,0,0)"
font-family="Ubuntu" font-size="16" font-weight="400" font-style="normal" 
>
</g>

<g fill="none" stroke="#000000" stroke-opacity="1" stroke-width="1" stroke-linecap="square" stroke-linejoin="bevel" transform="matrix(1.004,0,0,1.004,28.0022,169.174)"
font-family="Ubuntu" font-size="16" font-weight="400" font-style="normal" 
>
</g>

<g fill="none" stroke="#000000" stroke-opacity="1" stroke-width="1" stroke-linecap="square" stroke-linejoin="bevel" transform="matrix(1.004,0,0,1.004,28.0022,169.174)"
font-family="Ubuntu" font-size="16" font-weight="400" font-style="normal" 
>
</g>

<g fill="none" stroke="#000000" stroke-opacity="1" stroke-width="1" stroke-linecap="square" stroke-linejoin="bevel" transform="matrix(1.004,0,0,1.004,28.0022,169.174)"
font-family="Ubuntu" font-size="16" font-weight="400" font-style="normal" 
>
</g>

<g fill="none" stroke="#000000" stroke-opacity="1" stroke-width="1" stroke-linecap="square" stroke-linejoin="bevel" transform="matrix(1.004,0,0,1.004,0,0)"
font-family="Ubuntu" font-size="16" font-weight="400" font-style="normal" 
>
</g>

<g fill="none" stroke="#a0a0a4" stroke-opacity="1" stroke-dasharray="2,4" stroke-dashoffset="0" stroke-width="2" stroke-linecap="round" stroke-linejoin="round" transform="matrix(1.004,0,0,1.004,0,0)"
font-family="Ubuntu" font-size="16" font-weight="400" font-style="normal" 
>
<polyline fill="none" vector-effect="none" points="66.5,103.5 463.5,103.5 " />
</g>

<g fill="none" stroke="#000000" stroke-opacity="1" stroke-width="1" stroke-linecap="round" stroke-linejoin="round" transform="matrix(1.004,0,0,1.004,0,0)"
font-family="Ubuntu" font-size="16" font-weight="400" font-style="normal" 
>
<polyline fill="none" vector-effect="none" points="66.5,103.5 75.5,103.5 " />
<polyline fill="none" vector-effect="none" points="463.5,103.5 454.5,103.5 " />
</g>

<g fill="none" stroke="#000000" stroke-opacity="1" stroke-width="1" stroke-linecap="square" stroke-linejoin="bevel" transform="matrix(1.004,0,0,1.004,0,0)"
font-family="Ubuntu" font-size="16" font-weight="400" font-style="normal" 
>
</g>

<g fill="none" stroke="#000000" stroke-opacity="1" stroke-width="1" stroke-linecap="square" stroke-linejoin="bevel" transform="matrix(1.004,0,0,1.004,28.0022,88.854)"
font-family="Ubuntu" font-size="16" font-weight="400" font-style="normal" 
>
</g>

<g fill="none" stroke="#000000" stroke-opacity="1" stroke-width="1" stroke-linecap="square" stroke-linejoin="bevel" transform="matrix(1.004,0,0,1.004,28.0022,88.854)"
font-family="Ubuntu" font-size="16" font-weight="400" font-style="normal" 
>
</g>

<g fill="none" stroke="#000000" stroke-opacity="1" stroke-width="1" stroke-linecap="square" stroke-linejoin="bevel" transform="matrix(1.004,0,0,1.004,28.0022,88.854)"
font-family="Ubuntu" font-size="16" font-weight="400" font-style="normal" 
>
</g>

<g fill="none" stroke="#000000" stroke-opacity="1" stroke-width="1" stroke-linecap="square" stroke-linejoin="bevel" transform="matrix(1.004,0,0,1.004,28.0022,88.854)"
font-family="Ubuntu" font-size="16" font-weight="400" font-style="normal" 
>
<text fill="#000000" fill-opacity="1" stroke="none" xml:space="preserve" x="4" y="22" font-family="Sans" font-size="14" font-weight="400" font-style="normal" 
 > 8</text>
</g>

<g fill="none" stroke="#000000" stroke-opacity="1" stroke-width="1" stroke-linecap="square" stroke-linejoin="bevel" transform="matrix(1.004,0,0,1.004,28.0022,88.854)"
font-family="Ubuntu" font-size="16" font-weight="400" font-style="normal" 
>
</g>

<g fill="none" stroke="#000000" stroke-opacity="1" stroke-width="1" stroke-linecap="square" stroke-linejoin="bevel" transform="matrix(1,0,0,1,0,0)"
font-family="Ubuntu" font-size="16" font-weight="400" font-style="normal" 
>
</g>

<g fill="none" stroke="#000000" stroke-opacity="1" stroke-width="1" stroke-linecap="square" stroke-linejoin="bevel" transform="matrix(1.004,0,0,1.004,28.0022,88.854)"
font-family="Ubuntu" font-size="16" font-weight="400" font-style="normal" 
>
</g>

<g fill="none" stroke="#000000" stroke-opacity="1" stroke-width="1" stroke-linecap="square" stroke-linejoin="bevel" transform="matrix(1.004,0,0,1.004,28.0022,88.854)"
font-family="Ubuntu" font-size="16" font-weight="400" font-style="normal" 
>
</g>

<g fill="none" stroke="#000000" stroke-opacity="1" stroke-width="1" stroke-linecap="square" stroke-linejoin="bevel" transform="matrix(1.004,0,0,1.004,28.0022,88.854)"
font-family="Ubuntu" font-size="16" font-weight="400" font-style="normal" 
>
</g>

<g fill="none" stroke="#000000" stroke-opacity="1" stroke-width="1" stroke-linecap="square" stroke-linejoin="bevel" transform="matrix(1.004,0,0,1.004,0,0)"
font-family="Ubuntu" font-size="16" font-weight="400" font-style="normal" 
>
</g>

<g fill="none" stroke="#a0a0a4" stroke-opacity="1" stroke-dasharray="2,4" stroke-dashoffset="0" stroke-width="2" stroke-linecap="round" stroke-linejoin="round" transform="matrix(1.004,0,0,1.004,0,0)"
font-family="Ubuntu" font-size="16" font-weight="400" font-style="normal" 
>
<polyline fill="none" vector-effect="none" points="66.5,23.5 463.5,23.5 " />
</g>

<g fill="none" stroke="#000000" stroke-opacity="1" stroke-width="1" stroke-linecap="round" stroke-linejoin="round" transform="matrix(1.004,0,0,1.004,0,0)"
font-family="Ubuntu" font-size="16" font-weight="400" font-style="normal" 
>
<polyline fill="none" vector-effect="none" points="66.5,23.5 75.5,23.5 " />
<polyline fill="none" vector-effect="none" points="463.5,23.5 454.5,23.5 " />
</g>

<g fill="none" stroke="#000000" stroke-opacity="1" stroke-width="1" stroke-linecap="square" stroke-linejoin="bevel" transform="matrix(1.004,0,0,1.004,0,0)"
font-family="Ubuntu" font-size="16" font-weight="400" font-style="normal" 
>
</g>

<g fill="none" stroke="#000000" stroke-opacity="1" stroke-width="1" stroke-linecap="square" stroke-linejoin="bevel" transform="matrix(1.004,0,0,1.004,15.8758,7.53)"
font-family="Ubuntu" font-size="16" font-weight="400" font-style="normal" 
>
</g>

<g fill="none" stroke="#000000" stroke-opacity="1" stroke-width="1" stroke-linecap="square" stroke-linejoin="bevel" transform="matrix(1.004,0,0,1.004,15.8758,7.53)"
font-family="Ubuntu" font-size="16" font-weight="400" font-style="normal" 
>
</g>

<g fill="none" stroke="#000000" stroke-opacity="1" stroke-width="1" stroke-linecap="square" stroke-linejoin="bevel" transform="matrix(1.004,0,0,1.004,15.8758,7.53)"
font-family="Ubuntu" font-size="16" font-weight="400" font-style="normal" 
>
</g>

<g fill="none" stroke="#000000" stroke-opacity="1" stroke-width="1" stroke-linecap="square" stroke-linejoin="bevel" transform="matrix(1.004,0,0,1.004,15.8758,7.53)"
font-family="Ubuntu" font-size="16" font-weight="400" font-style="normal" 
>
<text fill="#000000" fill-opacity="1" stroke="none" xml:space="preserve" x="4" y="22" font-family="Sans" font-size="14" font-weight="400" font-style="normal" 
 > 10</text>
</g>

<g fill="none" stroke="#000000" stroke-opacity="1" stroke-width="1" stroke-linecap="square" stroke-linejoin="bevel" transform="matrix(1.004,0,0,1.004,15.8758,7.53)"
font-family="Ubuntu" font-size="16" font-weight="400" font-style="normal" 
>
</g>

<g fill="none" stroke="#000000" stroke-opacity="1" stroke-width="1" stroke-linecap="square" stroke-linejoin="bevel" transform="matrix(1,0,0,1,0,0)"
font-family="Ubuntu" font-size="16" font-weight="400" font-style="normal" 
>
</g>

<g fill="none" stroke="#000000" stroke-opacity="1" stroke-width="1" stroke-linecap="square" stroke-linejoin="bevel" transform="matrix(1.004,0,0,1.004,15.8758,7.53)"
font-family="Ubuntu" font-size="16" font-weight="400" font-style="normal" 
>
</g>

<g fill="none" stroke="#000000" stroke-opacity="1" stroke-width="1" stroke-linecap="square" stroke-linejoin="bevel" transform="matrix(1.004,0,0,1.004,15.8758,7.53)"
font-family="Ubuntu" font-size="16" font-weight="400" font-style="normal" 
>
</g>

<g fill="none" stroke="#000000" stroke-opacity="1" stroke-width="1" stroke-linecap="square" stroke-linejoin="bevel" transform="matrix(1.004,0,0,1.004,15.8758,7.53)"
font-family="Ubuntu" font-size="16" font-weight="400" font-style="normal" 
>
</g>

<g fill="none" stroke="#000000" stroke-opacity="1" stroke-width="1" stroke-linecap="square" stroke-linejoin="bevel" transform="matrix(1.004,0,0,1.004,0,0)"
font-family="Ubuntu" font-size="16" font-weight="400" font-style="normal" 
>
</g>

<g fill="none" stroke="#a0a0a4" stroke-opacity="1" stroke-dasharray="2,4" stroke-dashoffset="0" stroke-width="2" stroke-linecap="round" stroke-linejoin="round" transform="matrix(1.004,0,0,1.004,0,0)"
font-family="Ubuntu" font-size="16" font-weight="400" font-style="normal" 
>
<polyline fill="none" vector-effect="none" points="66.5,426.5 66.5,23.5 " />
</g>

<g fill="none" stroke="#000000" stroke-opacity="1" stroke-width="1" stroke-linecap="round" stroke-linejoin="round" transform="matrix(1.004,0,0,1.004,0,0)"
font-family="Ubuntu" font-size="16" font-weight="400" font-style="normal" 
>
<polyline fill="none" vector-effect="none" points="66.5,426.5 66.5,417.5 " />
<polyline fill="none" vector-effect="none" points="66.5,23.5 66.5,32.5 " />
</g>

<g fill="none" stroke="#000000" stroke-opacity="1" stroke-width="1" stroke-linecap="square" stroke-linejoin="bevel" transform="matrix(1.004,0,0,1.004,0,0)"
font-family="Ubuntu" font-size="16" font-weight="400" font-style="normal" 
>
</g>

<g fill="none" stroke="#000000" stroke-opacity="1" stroke-width="1" stroke-linecap="square" stroke-linejoin="bevel" transform="matrix(1.004,0,0,1.004,53.1571,435.234)"
font-family="Ubuntu" font-size="16" font-weight="400" font-style="normal" 
>
</g>

<g fill="none" stroke="#000000" stroke-opacity="1" stroke-width="1" stroke-linecap="square" stroke-linejoin="bevel" transform="matrix(1.004,0,0,1.004,53.1571,435.234)"
font-family="Ubuntu" font-size="16" font-weight="400" font-style="normal" 
>
</g>

<g fill="none" stroke="#000000" stroke-opacity="1" stroke-width="1" stroke-linecap="square" stroke-linejoin="bevel" transform="matrix(1.004,0,0,1.004,53.1571,435.234)"
font-family="Ubuntu" font-size="16" font-weight="400" font-style="normal" 
>
</g>

<g fill="none" stroke="#000000" stroke-opacity="1" stroke-width="1" stroke-linecap="square" stroke-linejoin="bevel" transform="matrix(1.004,0,0,1.004,53.1571,435.234)"
font-family="Ubuntu" font-size="16" font-weight="400" font-style="normal" 
>
<text fill="#000000" fill-opacity="1" stroke="none" xml:space="preserve" x="4" y="22" font-family="Sans" font-size="14" font-weight="400" font-style="normal" 
 > 0</text>
</g>

<g fill="none" stroke="#000000" stroke-opacity="1" stroke-width="1" stroke-linecap="square" stroke-linejoin="bevel" transform="matrix(1.004,0,0,1.004,53.1571,435.234)"
font-family="Ubuntu" font-size="16" font-weight="400" font-style="normal" 
>
</g>

<g fill="none" stroke="#000000" stroke-opacity="1" stroke-width="1" stroke-linecap="square" stroke-linejoin="bevel" transform="matrix(1,0,0,1,0,0)"
font-family="Ubuntu" font-size="16" font-weight="400" font-style="normal" 
>
</g>

<g fill="none" stroke="#000000" stroke-opacity="1" stroke-width="1" stroke-linecap="square" stroke-linejoin="bevel" transform="matrix(1.004,0,0,1.004,53.1571,435.234)"
font-family="Ubuntu" font-size="16" font-weight="400" font-style="normal" 
>
</g>

<g fill="none" stroke="#000000" stroke-opacity="1" stroke-width="1" stroke-linecap="square" stroke-linejoin="bevel" transform="matrix(1.004,0,0,1.004,53.1571,435.234)"
font-family="Ubuntu" font-size="16" font-weight="400" font-style="normal" 
>
</g>

<g fill="none" stroke="#000000" stroke-opacity="1" stroke-width="1" stroke-linecap="square" stroke-linejoin="bevel" transform="matrix(1.004,0,0,1.004,53.1571,435.234)"
font-family="Ubuntu" font-size="16" font-weight="400" font-style="normal" 
>
</g>

<g fill="none" stroke="#000000" stroke-opacity="1" stroke-width="1" stroke-linecap="square" stroke-linejoin="bevel" transform="matrix(1.004,0,0,1.004,0,0)"
font-family="Ubuntu" font-size="16" font-weight="400" font-style="normal" 
>
</g>

<g fill="none" stroke="#a0a0a4" stroke-opacity="1" stroke-dasharray="2,4" stroke-dashoffset="0" stroke-width="2" stroke-linecap="round" stroke-linejoin="round" transform="matrix(1.004,0,0,1.004,0,0)"
font-family="Ubuntu" font-size="16" font-weight="400" font-style="normal" 
>
<polyline fill="none" vector-effect="none" points="145.5,426.5 145.5,23.5 " />
</g>

<g fill="none" stroke="#000000" stroke-opacity="1" stroke-width="1" stroke-linecap="round" stroke-linejoin="round" transform="matrix(1.004,0,0,1.004,0,0)"
font-family="Ubuntu" font-size="16" font-weight="400" font-style="normal" 
>
<polyline fill="none" vector-effect="none" points="145.5,426.5 145.5,417.5 " />
<polyline fill="none" vector-effect="none" points="145.5,23.5 145.5,32.5 " />
</g>

<g fill="none" stroke="#000000" stroke-opacity="1" stroke-width="1" stroke-linecap="square" stroke-linejoin="bevel" transform="matrix(1.004,0,0,1.004,0,0)"
font-family="Ubuntu" font-size="16" font-weight="400" font-style="normal" 
>
</g>

<g fill="none" stroke="#000000" stroke-opacity="1" stroke-width="1" stroke-linecap="square" stroke-linejoin="bevel" transform="matrix(1.004,0,0,1.004,124.386,435.234)"
font-family="Ubuntu" font-size="16" font-weight="400" font-style="normal" 
>
</g>

<g fill="none" stroke="#000000" stroke-opacity="1" stroke-width="1" stroke-linecap="square" stroke-linejoin="bevel" transform="matrix(1.004,0,0,1.004,124.386,435.234)"
font-family="Ubuntu" font-size="16" font-weight="400" font-style="normal" 
>
</g>

<g fill="none" stroke="#000000" stroke-opacity="1" stroke-width="1" stroke-linecap="square" stroke-linejoin="bevel" transform="matrix(1.004,0,0,1.004,124.386,435.234)"
font-family="Ubuntu" font-size="16" font-weight="400" font-style="normal" 
>
</g>

<g fill="none" stroke="#000000" stroke-opacity="1" stroke-width="1" stroke-linecap="square" stroke-linejoin="bevel" transform="matrix(1.004,0,0,1.004,124.386,435.234)"
font-family="Ubuntu" font-size="16" font-weight="400" font-style="normal" 
>
<text fill="#000000" fill-opacity="1" stroke="none" xml:space="preserve" x="4" y="22" font-family="Sans" font-size="14" font-weight="400" font-style="normal" 
 > 0.2</text>
</g>

<g fill="none" stroke="#000000" stroke-opacity="1" stroke-width="1" stroke-linecap="square" stroke-linejoin="bevel" transform="matrix(1.004,0,0,1.004,124.386,435.234)"
font-family="Ubuntu" font-size="16" font-weight="400" font-style="normal" 
>
</g>

<g fill="none" stroke="#000000" stroke-opacity="1" stroke-width="1" stroke-linecap="square" stroke-linejoin="bevel" transform="matrix(1,0,0,1,0,0)"
font-family="Ubuntu" font-size="16" font-weight="400" font-style="normal" 
>
</g>

<g fill="none" stroke="#000000" stroke-opacity="1" stroke-width="1" stroke-linecap="square" stroke-linejoin="bevel" transform="matrix(1.004,0,0,1.004,124.386,435.234)"
font-family="Ubuntu" font-size="16" font-weight="400" font-style="normal" 
>
</g>

<g fill="none" stroke="#000000" stroke-opacity="1" stroke-width="1" stroke-linecap="square" stroke-linejoin="bevel" transform="matrix(1.004,0,0,1.004,124.386,435.234)"
font-family="Ubuntu" font-size="16" font-weight="400" font-style="normal" 
>
</g>

<g fill="none" stroke="#000000" stroke-opacity="1" stroke-width="1" stroke-linecap="square" stroke-linejoin="bevel" transform="matrix(1.004,0,0,1.004,124.386,435.234)"
font-family="Ubuntu" font-size="16" font-weight="400" font-style="normal" 
>
</g>

<g fill="none" stroke="#000000" stroke-opacity="1" stroke-width="1" stroke-linecap="square" stroke-linejoin="bevel" transform="matrix(1.004,0,0,1.004,0,0)"
font-family="Ubuntu" font-size="16" font-weight="400" font-style="normal" 
>
</g>

<g fill="none" stroke="#a0a0a4" stroke-opacity="1" stroke-dasharray="2,4" stroke-dashoffset="0" stroke-width="2" stroke-linecap="round" stroke-linejoin="round" transform="matrix(1.004,0,0,1.004,0,0)"
font-family="Ubuntu" font-size="16" font-weight="400" font-style="normal" 
>
<polyline fill="none" vector-effect="none" points="225.5,426.5 225.5,417.5 " />
<polyline fill="none" vector-effect="none" points="225.5,348.5 225.5,23.5 " />
</g>

<g fill="none" stroke="#000000" stroke-opacity="1" stroke-width="1" stroke-linecap="round" stroke-linejoin="round" transform="matrix(1.004,0,0,1.004,0,0)"
font-family="Ubuntu" font-size="16" font-weight="400" font-style="normal" 
>
<polyline fill="none" vector-effect="none" points="225.5,426.5 225.5,417.5 " />
<polyline fill="none" vector-effect="none" points="225.5,23.5 225.5,32.5 " />
</g>

<g fill="none" stroke="#000000" stroke-opacity="1" stroke-width="1" stroke-linecap="square" stroke-linejoin="bevel" transform="matrix(1.004,0,0,1.004,0,0)"
font-family="Ubuntu" font-size="16" font-weight="400" font-style="normal" 
>
</g>

<g fill="none" stroke="#000000" stroke-opacity="1" stroke-width="1" stroke-linecap="square" stroke-linejoin="bevel" transform="matrix(1.004,0,0,1.004,203.702,435.234)"
font-family="Ubuntu" font-size="16" font-weight="400" font-style="normal" 
>
</g>

<g fill="none" stroke="#000000" stroke-opacity="1" stroke-width="1" stroke-linecap="square" stroke-linejoin="bevel" transform="matrix(1.004,0,0,1.004,203.702,435.234)"
font-family="Ubuntu" font-size="16" font-weight="400" font-style="normal" 
>
</g>

<g fill="none" stroke="#000000" stroke-opacity="1" stroke-width="1" stroke-linecap="square" stroke-linejoin="bevel" transform="matrix(1.004,0,0,1.004,203.702,435.234)"
font-family="Ubuntu" font-size="16" font-weight="400" font-style="normal" 
>
</g>

<g fill="none" stroke="#000000" stroke-opacity="1" stroke-width="1" stroke-linecap="square" stroke-linejoin="bevel" transform="matrix(1.004,0,0,1.004,203.702,435.234)"
font-family="Ubuntu" font-size="16" font-weight="400" font-style="normal" 
>
<text fill="#000000" fill-opacity="1" stroke="none" xml:space="preserve" x="4" y="22" font-family="Sans" font-size="14" font-weight="400" font-style="normal" 
 > 0.4</text>
</g>

<g fill="none" stroke="#000000" stroke-opacity="1" stroke-width="1" stroke-linecap="square" stroke-linejoin="bevel" transform="matrix(1.004,0,0,1.004,203.702,435.234)"
font-family="Ubuntu" font-size="16" font-weight="400" font-style="normal" 
>
</g>

<g fill="none" stroke="#000000" stroke-opacity="1" stroke-width="1" stroke-linecap="square" stroke-linejoin="bevel" transform="matrix(1,0,0,1,0,0)"
font-family="Ubuntu" font-size="16" font-weight="400" font-style="normal" 
>
</g>

<g fill="none" stroke="#000000" stroke-opacity="1" stroke-width="1" stroke-linecap="square" stroke-linejoin="bevel" transform="matrix(1.004,0,0,1.004,203.702,435.234)"
font-family="Ubuntu" font-size="16" font-weight="400" font-style="normal" 
>
</g>

<g fill="none" stroke="#000000" stroke-opacity="1" stroke-width="1" stroke-linecap="square" stroke-linejoin="bevel" transform="matrix(1.004,0,0,1.004,203.702,435.234)"
font-family="Ubuntu" font-size="16" font-weight="400" font-style="normal" 
>
</g>

<g fill="none" stroke="#000000" stroke-opacity="1" stroke-width="1" stroke-linecap="square" stroke-linejoin="bevel" transform="matrix(1.004,0,0,1.004,203.702,435.234)"
font-family="Ubuntu" font-size="16" font-weight="400" font-style="normal" 
>
</g>

<g fill="none" stroke="#000000" stroke-opacity="1" stroke-width="1" stroke-linecap="square" stroke-linejoin="bevel" transform="matrix(1.004,0,0,1.004,0,0)"
font-family="Ubuntu" font-size="16" font-weight="400" font-style="normal" 
>
</g>

<g fill="none" stroke="#a0a0a4" stroke-opacity="1" stroke-dasharray="2,4" stroke-dashoffset="0" stroke-width="2" stroke-linecap="round" stroke-linejoin="round" transform="matrix(1.004,0,0,1.004,0,0)"
font-family="Ubuntu" font-size="16" font-weight="400" font-style="normal" 
>
<polyline fill="none" vector-effect="none" points="304.5,426.5 304.5,417.5 " />
<polyline fill="none" vector-effect="none" points="304.5,348.5 304.5,23.5 " />
</g>

<g fill="none" stroke="#000000" stroke-opacity="1" stroke-width="1" stroke-linecap="round" stroke-linejoin="round" transform="matrix(1.004,0,0,1.004,0,0)"
font-family="Ubuntu" font-size="16" font-weight="400" font-style="normal" 
>
<polyline fill="none" vector-effect="none" points="304.5,426.5 304.5,417.5 " />
<polyline fill="none" vector-effect="none" points="304.5,23.5 304.5,32.5 " />
</g>

<g fill="none" stroke="#000000" stroke-opacity="1" stroke-width="1" stroke-linecap="square" stroke-linejoin="bevel" transform="matrix(1.004,0,0,1.004,0,0)"
font-family="Ubuntu" font-size="16" font-weight="400" font-style="normal" 
>
</g>

<g fill="none" stroke="#000000" stroke-opacity="1" stroke-width="1" stroke-linecap="square" stroke-linejoin="bevel" transform="matrix(1.004,0,0,1.004,284.022,435.234)"
font-family="Ubuntu" font-size="16" font-weight="400" font-style="normal" 
>
</g>

<g fill="none" stroke="#000000" stroke-opacity="1" stroke-width="1" stroke-linecap="square" stroke-linejoin="bevel" transform="matrix(1.004,0,0,1.004,284.022,435.234)"
font-family="Ubuntu" font-size="16" font-weight="400" font-style="normal" 
>
</g>

<g fill="none" stroke="#000000" stroke-opacity="1" stroke-width="1" stroke-linecap="square" stroke-linejoin="bevel" transform="matrix(1.004,0,0,1.004,284.022,435.234)"
font-family="Ubuntu" font-size="16" font-weight="400" font-style="normal" 
>
</g>

<g fill="none" stroke="#000000" stroke-opacity="1" stroke-width="1" stroke-linecap="square" stroke-linejoin="bevel" transform="matrix(1.004,0,0,1.004,284.022,435.234)"
font-family="Ubuntu" font-size="16" font-weight="400" font-style="normal" 
>
<text fill="#000000" fill-opacity="1" stroke="none" xml:space="preserve" x="4" y="22" font-family="Sans" font-size="14" font-weight="400" font-style="normal" 
 > 0.6</text>
</g>

<g fill="none" stroke="#000000" stroke-opacity="1" stroke-width="1" stroke-linecap="square" stroke-linejoin="bevel" transform="matrix(1.004,0,0,1.004,284.022,435.234)"
font-family="Ubuntu" font-size="16" font-weight="400" font-style="normal" 
>
</g>

<g fill="none" stroke="#000000" stroke-opacity="1" stroke-width="1" stroke-linecap="square" stroke-linejoin="bevel" transform="matrix(1,0,0,1,0,0)"
font-family="Ubuntu" font-size="16" font-weight="400" font-style="normal" 
>
</g>

<g fill="none" stroke="#000000" stroke-opacity="1" stroke-width="1" stroke-linecap="square" stroke-linejoin="bevel" transform="matrix(1.004,0,0,1.004,284.022,435.234)"
font-family="Ubuntu" font-size="16" font-weight="400" font-style="normal" 
>
</g>

<g fill="none" stroke="#000000" stroke-opacity="1" stroke-width="1" stroke-linecap="square" stroke-linejoin="bevel" transform="matrix(1.004,0,0,1.004,284.022,435.234)"
font-family="Ubuntu" font-size="16" font-weight="400" font-style="normal" 
>
</g>

<g fill="none" stroke="#000000" stroke-opacity="1" stroke-width="1" stroke-linecap="square" stroke-linejoin="bevel" transform="matrix(1.004,0,0,1.004,284.022,435.234)"
font-family="Ubuntu" font-size="16" font-weight="400" font-style="normal" 
>
</g>

<g fill="none" stroke="#000000" stroke-opacity="1" stroke-width="1" stroke-linecap="square" stroke-linejoin="bevel" transform="matrix(1.004,0,0,1.004,0,0)"
font-family="Ubuntu" font-size="16" font-weight="400" font-style="normal" 
>
</g>

<g fill="none" stroke="#a0a0a4" stroke-opacity="1" stroke-dasharray="2,4" stroke-dashoffset="0" stroke-width="2" stroke-linecap="round" stroke-linejoin="round" transform="matrix(1.004,0,0,1.004,0,0)"
font-family="Ubuntu" font-size="16" font-weight="400" font-style="normal" 
>
<polyline fill="none" vector-effect="none" points="384.5,426.5 384.5,417.5 " />
<polyline fill="none" vector-effect="none" points="384.5,348.5 384.5,23.5 " />
</g>

<g fill="none" stroke="#000000" stroke-opacity="1" stroke-width="1" stroke-linecap="round" stroke-linejoin="round" transform="matrix(1.004,0,0,1.004,0,0)"
font-family="Ubuntu" font-size="16" font-weight="400" font-style="normal" 
>
<polyline fill="none" vector-effect="none" points="384.5,426.5 384.5,417.5 " />
<polyline fill="none" vector-effect="none" points="384.5,23.5 384.5,32.5 " />
</g>

<g fill="none" stroke="#000000" stroke-opacity="1" stroke-width="1" stroke-linecap="square" stroke-linejoin="bevel" transform="matrix(1.004,0,0,1.004,0,0)"
font-family="Ubuntu" font-size="16" font-weight="400" font-style="normal" 
>
</g>

<g fill="none" stroke="#000000" stroke-opacity="1" stroke-width="1" stroke-linecap="square" stroke-linejoin="bevel" transform="matrix(1.004,0,0,1.004,363.338,435.234)"
font-family="Ubuntu" font-size="16" font-weight="400" font-style="normal" 
>
</g>

<g fill="none" stroke="#000000" stroke-opacity="1" stroke-width="1" stroke-linecap="square" stroke-linejoin="bevel" transform="matrix(1.004,0,0,1.004,363.338,435.234)"
font-family="Ubuntu" font-size="16" font-weight="400" font-style="normal" 
>
</g>

<g fill="none" stroke="#000000" stroke-opacity="1" stroke-width="1" stroke-linecap="square" stroke-linejoin="bevel" transform="matrix(1.004,0,0,1.004,363.338,435.234)"
font-family="Ubuntu" font-size="16" font-weight="400" font-style="normal" 
>
</g>

<g fill="none" stroke="#000000" stroke-opacity="1" stroke-width="1" stroke-linecap="square" stroke-linejoin="bevel" transform="matrix(1.004,0,0,1.004,363.338,435.234)"
font-family="Ubuntu" font-size="16" font-weight="400" font-style="normal" 
>
<text fill="#000000" fill-opacity="1" stroke="none" xml:space="preserve" x="4" y="22" font-family="Sans" font-size="14" font-weight="400" font-style="normal" 
 > 0.8</text>
</g>

<g fill="none" stroke="#000000" stroke-opacity="1" stroke-width="1" stroke-linecap="square" stroke-linejoin="bevel" transform="matrix(1.004,0,0,1.004,363.338,435.234)"
font-family="Ubuntu" font-size="16" font-weight="400" font-style="normal" 
>
</g>

<g fill="none" stroke="#000000" stroke-opacity="1" stroke-width="1" stroke-linecap="square" stroke-linejoin="bevel" transform="matrix(1,0,0,1,0,0)"
font-family="Ubuntu" font-size="16" font-weight="400" font-style="normal" 
>
</g>

<g fill="none" stroke="#000000" stroke-opacity="1" stroke-width="1" stroke-linecap="square" stroke-linejoin="bevel" transform="matrix(1.004,0,0,1.004,363.338,435.234)"
font-family="Ubuntu" font-size="16" font-weight="400" font-style="normal" 
>
</g>

<g fill="none" stroke="#000000" stroke-opacity="1" stroke-width="1" stroke-linecap="square" stroke-linejoin="bevel" transform="matrix(1.004,0,0,1.004,363.338,435.234)"
font-family="Ubuntu" font-size="16" font-weight="400" font-style="normal" 
>
</g>

<g fill="none" stroke="#000000" stroke-opacity="1" stroke-width="1" stroke-linecap="square" stroke-linejoin="bevel" transform="matrix(1.004,0,0,1.004,363.338,435.234)"
font-family="Ubuntu" font-size="16" font-weight="400" font-style="normal" 
>
</g>

<g fill="none" stroke="#000000" stroke-opacity="1" stroke-width="1" stroke-linecap="square" stroke-linejoin="bevel" transform="matrix(1.004,0,0,1.004,0,0)"
font-family="Ubuntu" font-size="16" font-weight="400" font-style="normal" 
>
</g>

<g fill="none" stroke="#a0a0a4" stroke-opacity="1" stroke-dasharray="2,4" stroke-dashoffset="0" stroke-width="2" stroke-linecap="round" stroke-linejoin="round" transform="matrix(1.004,0,0,1.004,0,0)"
font-family="Ubuntu" font-size="16" font-weight="400" font-style="normal" 
>
<polyline fill="none" vector-effect="none" points="463.5,426.5 463.5,23.5 " />
</g>

<g fill="none" stroke="#000000" stroke-opacity="1" stroke-width="1" stroke-linecap="round" stroke-linejoin="round" transform="matrix(1.004,0,0,1.004,0,0)"
font-family="Ubuntu" font-size="16" font-weight="400" font-style="normal" 
>
<polyline fill="none" vector-effect="none" points="463.5,426.5 463.5,417.5 " />
<polyline fill="none" vector-effect="none" points="463.5,23.5 463.5,32.5 " />
</g>

<g fill="none" stroke="#000000" stroke-opacity="1" stroke-width="1" stroke-linecap="square" stroke-linejoin="bevel" transform="matrix(1.004,0,0,1.004,0,0)"
font-family="Ubuntu" font-size="16" font-weight="400" font-style="normal" 
>
</g>

<g fill="none" stroke="#000000" stroke-opacity="1" stroke-width="1" stroke-linecap="square" stroke-linejoin="bevel" transform="matrix(1.004,0,0,1.004,452.749,435.234)"
font-family="Ubuntu" font-size="16" font-weight="400" font-style="normal" 
>
</g>

<g fill="none" stroke="#000000" stroke-opacity="1" stroke-width="1" stroke-linecap="square" stroke-linejoin="bevel" transform="matrix(1.004,0,0,1.004,452.749,435.234)"
font-family="Ubuntu" font-size="16" font-weight="400" font-style="normal" 
>
</g>

<g fill="none" stroke="#000000" stroke-opacity="1" stroke-width="1" stroke-linecap="square" stroke-linejoin="bevel" transform="matrix(1.004,0,0,1.004,452.749,435.234)"
font-family="Ubuntu" font-size="16" font-weight="400" font-style="normal" 
>
</g>

<g fill="none" stroke="#000000" stroke-opacity="1" stroke-width="1" stroke-linecap="square" stroke-linejoin="bevel" transform="matrix(1.004,0,0,1.004,452.749,435.234)"
font-family="Ubuntu" font-size="16" font-weight="400" font-style="normal" 
>
<text fill="#000000" fill-opacity="1" stroke="none" xml:space="preserve" x="4" y="22" font-family="Sans" font-size="14" font-weight="400" font-style="normal" 
 > 1</text>
</g>

<g fill="none" stroke="#000000" stroke-opacity="1" stroke-width="1" stroke-linecap="square" stroke-linejoin="bevel" transform="matrix(1.004,0,0,1.004,452.749,435.234)"
font-family="Ubuntu" font-size="16" font-weight="400" font-style="normal" 
>
</g>

<g fill="none" stroke="#000000" stroke-opacity="1" stroke-width="1" stroke-linecap="square" stroke-linejoin="bevel" transform="matrix(1,0,0,1,0,0)"
font-family="Ubuntu" font-size="16" font-weight="400" font-style="normal" 
>
</g>

<g fill="none" stroke="#000000" stroke-opacity="1" stroke-width="1" stroke-linecap="square" stroke-linejoin="bevel" transform="matrix(1.004,0,0,1.004,452.749,435.234)"
font-family="Ubuntu" font-size="16" font-weight="400" font-style="normal" 
>
</g>

<g fill="none" stroke="#000000" stroke-opacity="1" stroke-width="1" stroke-linecap="square" stroke-linejoin="bevel" transform="matrix(1.004,0,0,1.004,452.749,435.234)"
font-family="Ubuntu" font-size="16" font-weight="400" font-style="normal" 
>
</g>

<g fill="none" stroke="#000000" stroke-opacity="1" stroke-width="1" stroke-linecap="square" stroke-linejoin="bevel" transform="matrix(1.004,0,0,1.004,452.749,435.234)"
font-family="Ubuntu" font-size="16" font-weight="400" font-style="normal" 
>
</g>

<g fill="none" stroke="#000000" stroke-opacity="1" stroke-width="1" stroke-linecap="square" stroke-linejoin="bevel" transform="matrix(1.004,0,0,1.004,0,0)"
font-family="Ubuntu" font-size="16" font-weight="400" font-style="normal" 
>
</g>

<g fill="none" stroke="#000000" stroke-opacity="1" stroke-width="1" stroke-linecap="round" stroke-linejoin="round" transform="matrix(1.004,0,0,1.004,0,0)"
font-family="Ubuntu" font-size="16" font-weight="400" font-style="normal" 
>
<polyline fill="none" vector-effect="none" points="66.5,23.5 66.5,426.5 463.5,426.5 463.5,23.5 66.5,23.5 " />
</g>

<g fill="none" stroke="#000000" stroke-opacity="1" stroke-width="1" stroke-linecap="square" stroke-linejoin="bevel" transform="matrix(1.004,0,0,1.004,0,0)"
font-family="Ubuntu" font-size="16" font-weight="400" font-style="normal" 
>
</g>

<g fill="none" stroke="#000000" stroke-opacity="1" stroke-width="1" stroke-linecap="square" stroke-linejoin="bevel" transform="matrix(0,-1.004,1.004,0,-6.526,229.916)"
font-family="Ubuntu" font-size="16" font-weight="400" font-style="normal" 
>
</g>

<g fill="none" stroke="#000000" stroke-opacity="1" stroke-width="1" stroke-linecap="square" stroke-linejoin="bevel" transform="matrix(0,-1.004,1.004,0,-6.526,229.916)"
font-family="Ubuntu" font-size="16" font-weight="400" font-style="normal" 
>
</g>

<g fill="none" stroke="#000000" stroke-opacity="1" stroke-width="1" stroke-linecap="square" stroke-linejoin="bevel" transform="matrix(0,-1.004,1.004,0,-6.526,229.916)"
font-family="Ubuntu" font-size="16" font-weight="400" font-style="normal" 
>
</g>

<g fill="none" stroke="#000000" stroke-opacity="1" stroke-width="1" stroke-linecap="square" stroke-linejoin="bevel" transform="matrix(0,-1.004,1.004,0,-6.526,229.916)"
font-family="Ubuntu" font-size="16" font-weight="400" font-style="normal" 
>
</g>

<g fill="none" stroke="#000000" stroke-opacity="1" stroke-width="1" stroke-linecap="square" stroke-linejoin="bevel" transform="matrix(1,0,0,1,0,0)"
font-family="Ubuntu" font-size="16" font-weight="400" font-style="normal" 
>
</g>

<g fill="none" stroke="#000000" stroke-opacity="1" stroke-width="1" stroke-linecap="square" stroke-linejoin="bevel" transform="matrix(0,-1.004,1.004,0,-6.526,229.916)"
font-family="Ubuntu" font-size="16" font-weight="400" font-style="normal" 
>
</g>

<g fill="none" stroke="#000000" stroke-opacity="1" stroke-width="1" stroke-linecap="square" stroke-linejoin="bevel" transform="matrix(0,-1.004,1.004,0,-6.526,229.916)"
font-family="Ubuntu" font-size="16" font-weight="400" font-style="normal" 
>
</g>

<g fill="none" stroke="#000000" stroke-opacity="1" stroke-width="1" stroke-linecap="square" stroke-linejoin="bevel" transform="matrix(0,-1.004,1.004,0,-6.526,229.916)"
font-family="Ubuntu" font-size="16" font-weight="400" font-style="normal" 
>
</g>

<g fill="none" stroke="#000000" stroke-opacity="1" stroke-width="1" stroke-linecap="square" stroke-linejoin="bevel" transform="matrix(1.004,0,0,1.004,211.311,470.374)"
font-family="Ubuntu" font-size="16" font-weight="400" font-style="normal" 
>
</g>

<g fill="none" stroke="#000000" stroke-opacity="1" stroke-width="1" stroke-linecap="square" stroke-linejoin="bevel" transform="matrix(1.004,0,0,1.004,211.311,470.374)"
font-family="Ubuntu" font-size="16" font-weight="400" font-style="normal" 
>
</g>

<g fill="none" stroke="#000000" stroke-opacity="1" stroke-width="1" stroke-linecap="square" stroke-linejoin="bevel" transform="matrix(1.004,0,0,1.004,211.311,470.374)"
font-family="Ubuntu" font-size="16" font-weight="400" font-style="normal" 
>
</g>

<g fill="none" stroke="#000000" stroke-opacity="1" stroke-width="1" stroke-linecap="square" stroke-linejoin="bevel" transform="matrix(1.004,0,0,1.004,211.311,470.374)"
font-family="Ubuntu" font-size="16" font-weight="400" font-style="normal" 
>
<text fill="#000000" fill-opacity="1" stroke="none" xml:space="preserve" x="4" y="22" font-family="Sans" font-size="14" font-weight="400" font-style="normal" 
 >Probability</text>
</g>

<g fill="none" stroke="#000000" stroke-opacity="1" stroke-width="1" stroke-linecap="square" stroke-linejoin="bevel" transform="matrix(1.004,0,0,1.004,211.311,470.374)"
font-family="Ubuntu" font-size="16" font-weight="400" font-style="normal" 
>
</g>

<g fill="none" stroke="#000000" stroke-opacity="1" stroke-width="1" stroke-linecap="square" stroke-linejoin="bevel" transform="matrix(1,0,0,1,0,0)"
font-family="Ubuntu" font-size="16" font-weight="400" font-style="normal" 
>
</g>

<g fill="none" stroke="#000000" stroke-opacity="1" stroke-width="1" stroke-linecap="square" stroke-linejoin="bevel" transform="matrix(1.004,0,0,1.004,211.311,470.374)"
font-family="Ubuntu" font-size="16" font-weight="400" font-style="normal" 
>
</g>

<g fill="none" stroke="#000000" stroke-opacity="1" stroke-width="1" stroke-linecap="square" stroke-linejoin="bevel" transform="matrix(1.004,0,0,1.004,211.311,470.374)"
font-family="Ubuntu" font-size="16" font-weight="400" font-style="normal" 
>
</g>

<g fill="none" stroke="#000000" stroke-opacity="1" stroke-width="1" stroke-linecap="square" stroke-linejoin="bevel" transform="matrix(1.004,0,0,1.004,211.311,470.374)"
font-family="Ubuntu" font-size="16" font-weight="400" font-style="normal" 
>
</g>

<g fill="none" stroke="#000000" stroke-opacity="1" stroke-width="1" stroke-linecap="square" stroke-linejoin="bevel" transform="matrix(1.004,0,0,1.004,179.716,345.878)"
font-family="Ubuntu" font-size="16" font-weight="400" font-style="normal" 
>
</g>

<g fill="none" stroke="#000000" stroke-opacity="1" stroke-width="1" stroke-linecap="square" stroke-linejoin="bevel" transform="matrix(1.004,0,0,1.004,179.716,345.878)"
font-family="Ubuntu" font-size="16" font-weight="400" font-style="normal" 
>
</g>

<g fill="none" stroke="#000000" stroke-opacity="1" stroke-width="1" stroke-linecap="square" stroke-linejoin="bevel" transform="matrix(1.004,0,0,1.004,179.716,345.878)"
font-family="Ubuntu" font-size="16" font-weight="400" font-style="normal" 
>
</g>

<g fill="none" stroke="#000000" stroke-opacity="1" stroke-width="1" stroke-linecap="square" stroke-linejoin="bevel" transform="matrix(1.004,0,0,1.004,179.716,345.878)"
font-family="Ubuntu" font-size="16" font-weight="400" font-style="normal" 
>
<text fill="#000000" fill-opacity="1" stroke="none" xml:space="preserve" x="4" y="22" font-family="Sans" font-size="14" font-weight="400" font-style="normal" 
 >inverseCdf(x, 0, 10)</text>
</g>

<g fill="none" stroke="#000000" stroke-opacity="1" stroke-width="1" stroke-linecap="square" stroke-linejoin="bevel" transform="matrix(1.004,0,0,1.004,179.716,345.878)"
font-family="Ubuntu" font-size="16" font-weight="400" font-style="normal" 
>
</g>

<g fill="none" stroke="#000000" stroke-opacity="1" stroke-width="1" stroke-linecap="square" stroke-linejoin="bevel" transform="matrix(1,0,0,1,0,0)"
font-family="Ubuntu" font-size="16" font-weight="400" font-style="normal" 
>
</g>

<g fill="none" stroke="#000000" stroke-opacity="1" stroke-width="1" stroke-linecap="square" stroke-linejoin="bevel" transform="matrix(1.004,0,0,1.004,179.716,345.878)"
font-family="Ubuntu" font-size="16" font-weight="400" font-style="normal" 
>
</g>

<g fill="none" stroke="#000000" stroke-opacity="1" stroke-width="1" stroke-linecap="square" stroke-linejoin="bevel" transform="matrix(1.004,0,0,1.004,179.716,345.878)"
font-family="Ubuntu" font-size="16" font-weight="400" font-style="normal" 
>
</g>

<g fill="none" stroke="#000000" stroke-opacity="1" stroke-width="1" stroke-linecap="square" stroke-linejoin="bevel" transform="matrix(1.004,0,0,1.004,179.716,345.878)"
font-family="Ubuntu" font-size="16" font-weight="400" font-style="normal" 
>
</g>

<g fill="none" stroke="#000000" stroke-opacity="1" stroke-width="1" stroke-linecap="square" stroke-linejoin="bevel" transform="matrix(1.004,0,0,1.004,0,0)"
font-family="Ubuntu" font-size="16" font-weight="400" font-style="normal" 
>
</g>

<g fill="none" stroke="#00c77e" stroke-opacity="1" stroke-width="3" stroke-linecap="round" stroke-linejoin="round" transform="matrix(1.004,0,0,1.004,0,0)"
font-family="Ubuntu" font-size="16" font-weight="400" font-style="normal" 
>
<path vector-effect="none" fill-rule="evenodd" d="M382.5,359.5 L439.5,359.5"/>
</g>

<g fill="none" stroke="#000000" stroke-opacity="1" stroke-width="1" stroke-linecap="square" stroke-linejoin="bevel" transform="matrix(1.004,0,0,1.004,0,0)"
font-family="Ubuntu" font-size="16" font-weight="400" font-style="normal" 
>
</g>

<g fill="none" stroke="#000000" stroke-opacity="1" stroke-width="1" stroke-linecap="square" stroke-linejoin="bevel" transform="matrix(1.004,0,0,1.004,0,0)"
font-family="Ubuntu" font-size="16" font-weight="400" font-style="normal" 
>
</g>

<g fill="none" stroke="#000000" stroke-opacity="1" stroke-width="1" stroke-linecap="square" stroke-linejoin="bevel" transform="matrix(1.004,0,0,1.004,0,0)"
font-family="Ubuntu" font-size="16" font-weight="400" font-style="normal" 
>
</g>

<g fill="none" stroke="#000000" stroke-opacity="1" stroke-width="1" stroke-linecap="square" stroke-linejoin="bevel" transform="matrix(1.004,0,0,1.004,0,0)"
font-family="Ubuntu" font-size="16" font-weight="400" font-style="normal" 
>
</g>

<g fill="none" stroke="#00c77e" stroke-opacity="1" stroke-width="3" stroke-linecap="round" stroke-linejoin="round" transform="matrix(1.004,0,0,1.004,0,0)"
font-family="Ubuntu" font-size="16" font-weight="400" font-style="normal" 
>
<polyline fill="none" vector-effect="none" points="66,426.3 66,426.3 66.4,413.5 66.8,408.3 67.2,404.2 67.6,400.8 68,397.8 68.4,395 68.8,392.5 69.2,390.2 69.6,388 70,385.9 70.4,384 70.8,382.1 71.2,380.3 71.6,378.6 72,376.9 72.4,375.3 72.8,373.7 73.2,372.2 73.6,370.7 74,369.2 74.4,367.8 74.8,366.5 75.2,365.1 75.6,363.8 76,362.5 76.4,361.2 76.8,360 77.2,358.8 77.6,357.6 77.9,356.4 78.3,355.3 78.7,354.1 79.1,353 79.5,351.9 79.9,350.8 80.3,349.7 80.7,348.7 81.1,347.6 81.5,346.6 81.9,345.6 82.3,344.6 82.7,343.6 83.1,342.6 83.5,341.7 83.9,340.7 84.3,339.8 84.7,338.8 85.1,337.9 85.5,337 85.9,336.1 86.3,335.2 86.7,334.3 87.1,333.4 87.5,332.5 87.9,331.7 88.3,330.8 88.7,330 89.1,329.1 89.5,328.3 89.9,327.5 90.3,326.6 90.7,325.8 91.1,325 91.5,324.2 91.9,323.4 92.3,322.6 92.7,321.9 93.1,321.1 93.5,320.3 93.9,319.5 94.3,318.8 94.7,318 95.1,317.3 95.5,316.5 95.9,315.8 96.3,315.1 96.7,314.3 97.1,313.6 97.5,312.9 97.9,312.2 98.3,311.5 98.7,310.8 99.1,310.1 99.5,309.4 99.9,308.7 100.3,308 100.7,307.3 101.1,306.6 101.4,305.9 101.8,305.2 102.2,304.6 102.6,303.9 103,303.2 103.4,302.6 103.8,301.9 104.2,301.3 104.6,300.6 105,300 105.4,299.3 105.8,298.7 106.2,298.1 106.6,297.4 107,296.8 107.4,296.2 107.8,295.6 108.2,294.9 108.6,294.3 109,293.7 109.4,293.1 109.8,292.5 110.2,291.9 110.6,291.3 111,290.7 111.4,290.1 111.8,289.5 112.2,288.9 112.6,288.3 113,287.7 113.4,287.1 113.8,286.5 114.2,285.9 114.6,285.4 115,284.8 115.4,284.2 115.8,283.6 116.2,283.1 116.6,282.5 117,281.9 117.4,281.4 117.8,280.8 118.2,280.3 118.6,279.7 119,279.1 119.4,278.6 119.8,278 120.2,277.5 120.6,276.9 121,276.4 121.4,275.9 121.8,275.3 122.2,274.8 122.6,274.2 123,273.7 123.4,273.2 123.8,272.7 124.2,272.1 124.5,271.6 124.9,271.1 125.3,270.5 125.7,270 126.1,269.5 126.5,269 126.9,268.5 127.3,268 127.7,267.4 128.1,266.9 128.5,266.4 128.9,265.9 129.3,265.4 129.7,264.9 130.1,264.4 130.5,263.9 130.9,263.4 131.3,262.9 131.7,262.4 132.1,261.9 132.5,261.4 132.9,260.9 133.3,260.4 133.7,259.9 134.1,259.4 134.5,259 134.9,258.5 135.3,258 135.7,257.5 136.1,257 136.5,256.5 136.9,256.1 137.3,255.6 137.7,255.1 138.1,254.6 138.5,254.2 138.9,253.7 139.3,253.2 139.7,252.7 140.1,252.3 140.5,251.8 140.9,251.3 141.3,250.9 141.7,250.4 142.1,250 142.5,249.5 142.9,249 143.3,248.6 143.7,248.1 144.1,247.7 144.5,247.2 144.9,246.8 145.3,246.3 145.7,245.8 146.1,245.4 146.5,244.9 146.9,244.5 147.3,244.1 147.7,243.6 148,243.2 148.4,242.7 148.8,242.3 149.2,241.8 149.6,241.4 150,241 150.4,240.5 150.8,240.1 151.2,239.6 151.6,239.2 152,238.8 152.4,238.3 152.8,237.9 153.2,237.5 153.6,237 154,236.6 154.4,236.2 154.8,235.8 155.2,235.3 155.6,234.9 156,234.5 156.4,234.1 156.8,233.6 157.2,233.2 157.6,232.8 158,232.4 158.4,231.9 158.8,231.5 159.2,231.1 159.6,230.7 160,230.3 160.4,229.9 160.8,229.5 161.2,229 161.6,228.6 162,228.2 162.4,227.8 162.8,227.4 163.2,227 163.6,226.6 164,226.2 164.4,225.8 164.8,225.4 165.2,225 165.6,224.5 166,224.1 166.4,223.7 166.8,223.3 167.2,222.9 167.6,222.5 168,222.1 168.4,221.7 168.8,221.3 169.2,220.9 169.6,220.6 170,220.2 170.4,219.8 170.8,219.4 171.2,219 171.5,218.6 171.9,218.2 172.3,217.8 172.7,217.4 173.1,217 173.5,216.6 173.9,216.2 174.3,215.9 174.7,215.5 175.1,215.1 175.5,214.7 175.9,214.3 176.3,213.9 176.7,213.6 177.1,213.2 177.5,212.8 177.9,212.4 178.3,212 178.7,211.6 179.1,211.3 179.5,210.9 179.9,210.5 180.3,210.1 180.7,209.8 181.1,209.4 181.5,209 181.9,208.6 182.3,208.3 182.7,207.9 183.1,207.5 183.5,207.1 183.9,206.8 184.3,206.4 184.7,206 185.1,205.7 185.5,205.3 185.9,204.9 186.3,204.6 186.7,204.2 187.1,203.8 187.5,203.5 187.9,203.1 188.3,202.7 188.7,202.4 189.1,202 189.5,201.6 189.9,201.3 190.3,200.9 190.7,200.6 191.1,200.2 191.5,199.8 191.9,199.5 192.3,199.1 192.7,198.8 193.1,198.4 193.5,198 193.9,197.7 194.3,197.3 194.7,197 195,196.6 195.4,196.3 195.8,195.9 196.2,195.6 196.6,195.2 197,194.9 197.4,194.5 197.8,194.2 198.2,193.8 198.6,193.5 199,193.1 199.4,192.8 199.8,192.4 200.2,192.1 200.6,191.7 201,191.4 201.4,191 201.8,190.7 202.2,190.3 202.6,190 203,189.6 203.4,189.3 203.8,189 204.2,188.6 204.6,188.3 205,187.9 205.4,187.6 205.8,187.2 206.2,186.9 206.6,186.6 207,186.2 207.4,185.9 207.8,185.5 208.2,185.2 208.6,184.9 209,184.5 209.4,184.2 209.8,183.9 210.2,183.5 210.6,183.2 211,182.9 211.4,182.5 211.8,182.2 212.2,181.9 212.6,181.5 213,181.2 213.4,180.9 213.8,180.5 214.2,180.2 214.6,179.9 215,179.5 215.4,179.2 215.8,178.9 216.2,178.5 216.6,178.2 217,177.9 217.4,177.6 217.8,177.2 218.1,176.9 218.5,176.6 218.9,176.3 219.3,175.9 219.7,175.6 220.1,175.3 220.5,175 220.9,174.6 221.3,174.3 221.7,174 222.1,173.7 222.5,173.3 222.9,173 223.3,172.7 223.7,172.4 224.1,172.1 224.5,171.7 224.9,171.4 225.3,171.1 225.7,170.8 226.1,170.5 226.5,170.1 226.9,169.8 227.3,169.5 227.7,169.2 228.1,168.9 228.5,168.6 228.9,168.2 229.3,167.9 229.7,167.6 230.1,167.3 230.5,167 230.9,166.7 231.3,166.4 231.7,166 232.1,165.7 232.5,165.4 232.9,165.1 233.3,164.8 233.7,164.5 234.1,164.2 234.5,163.9 234.9,163.6 235.3,163.2 235.7,162.9 236.1,162.6 236.5,162.3 236.9,162 237.3,161.7 237.7,161.4 238.1,161.1 238.5,160.8 238.9,160.5 239.3,160.2 239.7,159.9 240.1,159.6 240.5,159.3 240.9,159 241.3,158.6 241.6,158.3 242,158 242.4,157.7 242.8,157.4 243.2,157.1 243.6,156.8 244,156.5 244.4,156.2 244.8,155.9 245.2,155.6 245.6,155.3 246,155 246.4,154.7 246.8,154.4 247.2,154.1 247.6,153.8 248,153.5 248.4,153.2 248.8,152.9 249.2,152.6 249.6,152.3 250,152 250.4,151.7 250.8,151.4 251.2,151.1 251.6,150.9 252,150.6 252.4,150.3 252.8,150 253.2,149.7 253.6,149.4 254,149.1 254.4,148.8 254.8,148.5 255.2,148.2 255.6,147.9 256,147.6 256.4,147.3 256.8,147 257.2,146.7 257.6,146.5 258,146.2 258.4,145.9 258.8,145.6 259.2,145.3 259.6,145 260,144.7 260.4,144.4 260.8,144.1 261.2,143.8 261.6,143.6 262,143.3 262.4,143 262.8,142.7 263.2,142.4 263.6,142.1 264,141.8 264.4,141.6 264.8,141.3 265.1,141 265.5,140.7 265.9,140.4 266.3,140.1 266.7,139.8 267.1,139.6 267.5,139.3 267.9,139 268.3,138.7 268.7,138.4 269.1,138.1 269.5,137.9 269.9,137.6 270.3,137.3 270.7,137 271.1,136.7 271.5,136.5 271.9,136.2 272.3,135.9 272.7,135.6 273.1,135.3 273.5,135.1 273.9,134.8 274.3,134.5 274.7,134.2 275.1,133.9 275.5,133.7 275.9,133.4 276.3,133.1 276.7,132.8 277.1,132.5 277.5,132.3 277.9,132 278.3,131.7 278.7,131.4 279.1,131.2 279.5,130.9 279.9,130.6 280.3,130.3 280.7,130.1 281.1,129.8 281.5,129.5 281.9,129.2 282.3,129 282.7,128.7 283.1,128.4 283.5,128.1 283.9,127.9 284.3,127.6 284.7,127.3 285.1,127.1 285.5,126.8 285.9,126.5 286.3,126.2 286.7,126 287.1,125.7 287.5,125.4 287.9,125.2 288.3,124.9 288.6,124.6 289,124.3 289.4,124.1 289.8,123.8 290.2,123.5 290.6,123.3 291,123 291.4,122.7 291.8,122.5 292.2,122.2 292.6,121.9 293,121.7 293.4,121.4 293.8,121.1 294.2,120.9 294.6,120.6 295,120.3 295.4,120.1 295.8,119.8 296.2,119.5 296.6,119.3 297,119 297.4,118.7 297.8,118.5 298.2,118.2 298.6,117.9 299,117.7 299.4,117.4 299.8,117.2 300.2,116.9 300.6,116.6 301,116.4 301.4,116.1 301.8,115.8 302.2,115.6 302.6,115.3 303,115.1 303.4,114.8 303.8,114.5 304.2,114.3 304.6,114 305,113.7 305.4,113.5 305.8,113.2 306.2,113 306.6,112.7 307,112.4 307.4,112.2 307.8,111.9 308.2,111.7 308.6,111.4 309,111.2 309.4,110.9 309.8,110.6 310.2,110.4 310.6,110.1 311,109.9 311.4,109.6 311.8,109.4 312.1,109.1 312.5,108.8 312.9,108.6 313.3,108.3 313.7,108.1 314.1,107.8 314.5,107.6 314.9,107.3 315.3,107 315.7,106.8 316.1,106.5 316.5,106.3 316.9,106 317.3,105.8 317.7,105.5 318.1,105.3 318.5,105 318.9,104.8 319.3,104.5 319.7,104.3 320.1,104 320.5,103.8 320.9,103.5 321.3,103.2 321.7,103 322.1,102.7 322.5,102.5 322.9,102.2 323.3,102 323.7,101.7 324.1,101.5 324.5,101.2 324.9,101 325.3,100.7 325.7,100.5 326.1,100.2 326.5,100 326.9,99.7 327.3,99.5 327.7,99.2 328.1,99 328.5,98.7 328.9,98.5 329.3,98.2 329.7,98 330.1,97.7 330.5,97.5 330.9,97.3 331.3,97 331.7,96.8 332.1,96.5 332.5,96.3 332.9,96 333.3,95.8 333.7,95.5 334.1,95.3 334.5,95 334.9,94.8 335.2,94.5 335.6,94.3 336,94.1 336.4,93.8 336.8,93.6 337.2,93.3 337.6,93.1 338,92.8 338.4,92.6 338.8,92.3 339.2,92.1 339.6,91.9 340,91.6 340.4,91.4 340.8,91.1 341.2,90.9 341.6,90.6 342,90.4 342.4,90.2 342.8,89.9 343.2,89.7 343.6,89.4 344,89.2 344.4,88.9 344.8,88.7 345.2,88.5 345.6,88.2 346,88 346.4,87.7 346.8,87.5 347.2,87.3 347.6,87 348,86.8 348.4,86.5 348.8,86.3 349.2,86.1 349.6,85.8 350,85.6 350.4,85.3 350.8,85.1 351.2,84.9 351.6,84.6 352,84.4 352.4,84.2 352.8,83.9 353.2,83.7 353.6,83.4 354,83.2 354.4,83 354.8,82.7 355.2,82.5 355.6,82.3 356,82 356.4,81.8 356.8,81.5 357.2,81.3 357.6,81.1 358,80.8 358.4,80.6 358.7,80.4 359.1,80.1 359.5,79.9 359.9,79.7 360.3,79.4 360.7,79.2 361.1,79 361.5,78.7 361.9,78.5 362.3,78.3 362.7,78 363.1,77.8 363.5,77.6 363.9,77.3 364.3,77.1 364.7,76.9 365.1,76.6 365.5,76.4 365.9,76.2 366.3,75.9 366.7,75.7 367.1,75.5 367.5,75.2 367.9,75 368.3,74.8 368.7,74.5 369.1,74.3 369.5,74.1 369.9,73.8 370.3,73.6 370.7,73.4 371.1,73.1 371.5,72.9 371.9,72.7 372.3,72.5 372.7,72.2 373.1,72 373.5,71.8 373.9,71.5 374.3,71.3 374.7,71.1 375.1,70.9 375.5,70.6 375.9,70.4 376.3,70.2 376.7,69.9 377.1,69.7 377.5,69.5 377.9,69.3 378.3,69 378.7,68.8 379.1,68.6 379.5,68.3 379.9,68.1 380.3,67.9 380.7,67.7 381.1,67.4 381.5,67.2 381.9,67 382.2,66.8 382.6,66.5 383,66.3 383.4,66.1 383.8,65.8 384.2,65.6 384.6,65.4 385,65.2 385.4,64.9 385.8,64.7 386.2,64.5 386.6,64.3 387,64 387.4,63.8 387.8,63.6 388.2,63.4 388.6,63.1 389,62.9 389.4,62.7 389.8,62.5 390.2,62.3 390.6,62 391,61.8 391.4,61.6 391.8,61.4 392.2,61.1 392.6,60.9 393,60.7 393.4,60.5 393.8,60.2 394.2,60 394.6,59.8 395,59.6 395.4,59.4 395.8,59.1 396.2,58.9 396.6,58.7 397,58.5 397.4,58.2 397.8,58 398.2,57.8 398.6,57.6 399,57.4 399.4,57.1 399.8,56.9 400.2,56.7 400.6,56.5 401,56.3 401.4,56 401.8,55.8 402.2,55.6 402.6,55.4 403,55.2 403.4,54.9 403.8,54.7 404.2,54.5 404.6,54.3 405,54.1 405.4,53.9 405.7,53.6 406.1,53.4 406.5,53.2 406.9,53 407.3,52.8 407.7,52.5 408.1,52.3 408.5,52.1 408.9,51.9 409.3,51.7 409.7,51.5 410.1,51.2 410.5,51 410.9,50.8 411.3,50.6 411.7,50.4 412.1,50.2 412.5,49.9 412.9,49.7 413.3,49.5 413.7,49.3 414.1,49.1 414.5,48.9 414.9,48.6 415.3,48.4 415.7,48.2 416.1,48 416.5,47.8 416.9,47.6 417.3,47.4 417.7,47.1 418.1,46.9 418.5,46.7 418.9,46.5 419.3,46.3 419.7,46.1 420.1,45.9 420.5,45.6 420.9,45.4 421.3,45.2 421.7,45 422.1,44.8 422.5,44.6 422.9,44.4 423.3,44.1 423.7,43.9 424.1,43.7 424.5,43.5 424.9,43.3 425.3,43.1 425.7,42.9 426.1,42.7 426.5,42.4 426.9,42.2 427.3,42 427.7,41.8 428.1,41.6 428.5,41.4 428.8,41.2 429.2,41 429.6,40.7 430,40.5 430.4,40.3 430.8,40.1 431.2,39.9 431.6,39.7 432,39.5 432.4,39.3 432.8,39.1 433.2,38.9 433.6,38.6 434,38.4 434.4,38.2 434.8,38 435.2,37.8 435.6,37.6 436,37.4 436.4,37.2 436.8,37 437.2,36.8 437.6,36.5 438,36.3 438.4,36.1 438.8,35.9 439.2,35.7 439.6,35.5 440,35.3 440.4,35.1 440.8,34.9 441.2,34.7 441.6,34.5 442,34.3 442.4,34.1 442.8,33.8 443.2,33.6 443.6,33.4 444,33.2 444.4,33 444.8,32.8 445.2,32.6 445.6,32.4 446,32.2 446.4,32 446.8,31.8 447.2,31.6 447.6,31.4 448,31.2 448.4,31 448.8,30.7 449.2,30.5 449.6,30.3 450,30.1 450.4,29.9 450.8,29.7 451.2,29.5 451.6,29.3 452,29.1 452.3,28.9 452.7,28.7 453.1,28.5 453.5,28.3 453.9,28.1 454.3,27.9 454.7,27.7 455.1,27.5 455.5,27.3 455.9,27.1 456.3,26.9 456.7,26.6 457.1,26.4 457.5,26.2 457.9,26 458.3,25.8 458.7,25.6 459.1,25.4 459.5,25.2 459.9,25 460.3,24.8 460.7,24.6 461.1,24.4 461.5,24.2 461.9,24 462.3,23.8 462.7,23.6 463.1,23.4 463.5,23.2 463.9,23 " />
</g>

<g fill="none" stroke="#000000" stroke-opacity="1" stroke-width="1" stroke-linecap="square" stroke-linejoin="bevel" transform="matrix(1.004,0,0,1.004,0,0)"
font-family="Ubuntu" font-size="16" font-weight="400" font-style="normal" 
>
</g>

<g fill="none" stroke="#000000" stroke-opacity="1" stroke-width="1" stroke-linecap="square" stroke-linejoin="bevel" transform="matrix(1.004,0,0,1.004,179.716,368.97)"
font-family="Ubuntu" font-size="16" font-weight="400" font-style="normal" 
>
</g>

<g fill="none" stroke="#000000" stroke-opacity="1" stroke-width="1" stroke-linecap="square" stroke-linejoin="bevel" transform="matrix(1.004,0,0,1.004,179.716,368.97)"
font-family="Ubuntu" font-size="16" font-weight="400" font-style="normal" 
>
</g>

<g fill="none" stroke="#000000" stroke-opacity="1" stroke-width="1" stroke-linecap="square" stroke-linejoin="bevel" transform="matrix(1.004,0,0,1.004,179.716,368.97)"
font-family="Ubuntu" font-size="16" font-weight="400" font-style="normal" 
>
</g>

<g fill="none" stroke="#000000" stroke-opacity="1" stroke-width="1" stroke-linecap="square" stroke-linejoin="bevel" transform="matrix(1.004,0,0,1.004,179.716,368.97)"
font-family="Ubuntu" font-size="16" font-weight="400" font-style="normal" 
>
<text fill="#000000" fill-opacity="1" stroke="none" xml:space="preserve" x="4" y="22" font-family="Sans" font-size="14" font-weight="400" font-style="normal" 
 >inverseCdf(x, 2, 8)</text>
</g>

<g fill="none" stroke="#000000" stroke-opacity="1" stroke-width="1" stroke-linecap="square" stroke-linejoin="bevel" transform="matrix(1.004,0,0,1.004,179.716,368.97)"
font-family="Ubuntu" font-size="16" font-weight="400" font-style="normal" 
>
</g>

<g fill="none" stroke="#000000" stroke-opacity="1" stroke-width="1" stroke-linecap="square" stroke-linejoin="bevel" transform="matrix(1,0,0,1,0,0)"
font-family="Ubuntu" font-size="16" font-weight="400" font-style="normal" 
>
</g>

<g fill="none" stroke="#000000" stroke-opacity="1" stroke-width="1" stroke-linecap="square" stroke-linejoin="bevel" transform="matrix(1.004,0,0,1.004,179.716,368.97)"
font-family="Ubuntu" font-size="16" font-weight="400" font-style="normal" 
>
</g>

<g fill="none" stroke="#000000" stroke-opacity="1" stroke-width="1" stroke-linecap="square" stroke-linejoin="bevel" transform="matrix(1.004,0,0,1.004,179.716,368.97)"
font-family="Ubuntu" font-size="16" font-weight="400" font-style="normal" 
>
</g>

<g fill="none" stroke="#000000" stroke-opacity="1" stroke-width="1" stroke-linecap="square" stroke-linejoin="bevel" transform="matrix(1.004,0,0,1.004,179.716,368.97)"
font-family="Ubuntu" font-size="16" font-weight="400" font-style="normal" 
>
</g>

<g fill="none" stroke="#000000" stroke-opacity="1" stroke-width="1" stroke-linecap="square" stroke-linejoin="bevel" transform="matrix(1.004,0,0,1.004,0,0)"
font-family="Ubuntu" font-size="16" font-weight="400" font-style="normal" 
>
</g>

<g fill="none" stroke="#7e00c7" stroke-opacity="1" stroke-width="3" stroke-linecap="round" stroke-linejoin="round" transform="matrix(1.004,0,0,1.004,0,0)"
font-family="Ubuntu" font-size="16" font-weight="400" font-style="normal" 
>
<path vector-effect="none" fill-rule="evenodd" d="M382.5,382.5 L439.5,382.5"/>
</g>

<g fill="none" stroke="#000000" stroke-opacity="1" stroke-width="1" stroke-linecap="square" stroke-linejoin="bevel" transform="matrix(1.004,0,0,1.004,0,0)"
font-family="Ubuntu" font-size="16" font-weight="400" font-style="normal" 
>
</g>

<g fill="none" stroke="#000000" stroke-opacity="1" stroke-width="1" stroke-linecap="square" stroke-linejoin="bevel" transform="matrix(1.004,0,0,1.004,0,0)"
font-family="Ubuntu" font-size="16" font-weight="400" font-style="normal" 
>
</g>

<g fill="none" stroke="#000000" stroke-opacity="1" stroke-width="1" stroke-linecap="square" stroke-linejoin="bevel" transform="matrix(1.004,0,0,1.004,0,0)"
font-family="Ubuntu" font-size="16" font-weight="400" font-style="normal" 
>
</g>

<g fill="none" stroke="#000000" stroke-opacity="1" stroke-width="1" stroke-linecap="square" stroke-linejoin="bevel" transform="matrix(1.004,0,0,1.004,0,0)"
font-family="Ubuntu" font-size="16" font-weight="400" font-style="normal" 
>
</g>

<g fill="none" stroke="#7e00c7" stroke-opacity="1" stroke-width="3" stroke-linecap="round" stroke-linejoin="round" transform="matrix(1.004,0,0,1.004,0,0)"
font-family="Ubuntu" font-size="16" font-weight="400" font-style="normal" 
>
<polyline fill="none" vector-effect="none" points="66,345.6 66,345.6 66.4,338 66.8,334.8 67.2,332.4 67.6,330.3 68,328.5 68.4,326.9 68.8,325.4 69.2,324 69.6,322.7 70,321.4 70.4,320.2 70.8,319.1 71.2,318 71.6,317 72,316 72.4,315 72.8,314.1 73.2,313.2 73.6,312.3 74,311.4 74.4,310.6 74.8,309.7 75.2,308.9 75.6,308.1 76,307.4 76.4,306.6 76.8,305.9 77.2,305.1 77.6,304.4 77.9,303.7 78.3,303 78.7,302.3 79.1,301.7 79.5,301 79.9,300.3 80.3,299.7 80.7,299.1 81.1,298.4 81.5,297.8 81.9,297.2 82.3,296.6 82.7,296 83.1,295.4 83.5,294.9 83.9,294.3 84.3,293.7 84.7,293.2 85.1,292.6 85.5,292 85.9,291.5 86.3,291 86.7,290.4 87.1,289.9 87.5,289.4 87.9,288.9 88.3,288.3 88.7,287.8 89.1,287.3 89.5,286.8 89.9,286.3 90.3,285.8 90.7,285.4 91.1,284.9 91.5,284.4 91.9,283.9 92.3,283.4 92.7,283 93.1,282.5 93.5,282 93.9,281.6 94.3,281.1 94.7,280.7 95.1,280.2 95.5,279.8 95.9,279.3 96.3,278.9 96.7,278.5 97.1,278 97.5,277.6 97.9,277.2 98.3,276.7 98.7,276.3 99.1,275.9 99.5,275.5 99.9,275.1 100.3,274.6 100.7,274.2 101.1,273.8 101.4,273.4 101.8,273 102.2,272.6 102.6,272.2 103,271.8 103.4,271.4 103.8,271 104.2,270.6 104.6,270.2 105,269.9 105.4,269.5 105.8,269.1 106.2,268.7 106.6,268.3 107,267.9 107.4,267.6 107.8,267.2 108.2,266.8 108.6,266.4 109,266.1 109.4,265.7 109.8,265.3 110.2,265 110.6,264.6 111,264.3 111.4,263.9 111.8,263.5 112.2,263.2 112.6,262.8 113,262.5 113.4,262.1 113.8,261.8 114.2,261.4 114.6,261.1 115,260.7 115.4,260.4 115.8,260 116.2,259.7 116.6,259.4 117,259 117.4,258.7 117.8,258.3 118.2,258 118.6,257.7 119,257.3 119.4,257 119.8,256.7 120.2,256.4 120.6,256 121,255.7 121.4,255.4 121.8,255.1 122.2,254.7 122.6,254.4 123,254.1 123.4,253.8 123.8,253.5 124.2,253.1 124.5,252.8 124.9,252.5 125.3,252.2 125.7,251.9 126.1,251.6 126.5,251.3 126.9,250.9 127.3,250.6 127.7,250.3 128.1,250 128.5,249.7 128.9,249.4 129.3,249.1 129.7,248.8 130.1,248.5 130.5,248.2 130.9,247.9 131.3,247.6 131.7,247.3 132.1,247 132.5,246.7 132.9,246.4 133.3,246.1 133.7,245.8 134.1,245.5 134.5,245.2 134.9,244.9 135.3,244.7 135.7,244.4 136.1,244.1 136.5,243.8 136.9,243.5 137.3,243.2 137.7,242.9 138.1,242.6 138.5,242.4 138.9,242.1 139.3,241.8 139.7,241.5 140.1,241.2 140.5,240.9 140.9,240.7 141.3,240.4 141.7,240.1 142.1,239.8 142.5,239.6 142.9,239.3 143.3,239 143.7,238.7 144.1,238.5 144.5,238.2 144.9,237.9 145.3,237.6 145.7,237.4 146.1,237.1 146.5,236.8 146.9,236.6 147.3,236.3 147.7,236 148,235.8 148.4,235.5 148.8,235.2 149.2,235 149.6,234.7 150,234.4 150.4,234.2 150.8,233.9 151.2,233.6 151.6,233.4 152,233.1 152.4,232.9 152.8,232.6 153.2,232.3 153.6,232.1 154,231.8 154.4,231.6 154.8,231.3 155.2,231.1 155.6,230.8 156,230.5 156.4,230.3 156.8,230 157.2,229.8 157.6,229.5 158,229.3 158.4,229 158.8,228.8 159.2,228.5 159.6,228.3 160,228 160.4,227.8 160.8,227.5 161.2,227.3 161.6,227 162,226.8 162.4,226.5 162.8,226.3 163.2,226.1 163.6,225.8 164,225.6 164.4,225.3 164.8,225.1 165.2,224.8 165.6,224.6 166,224.3 166.4,224.1 166.8,223.9 167.2,223.6 167.6,223.4 168,223.1 168.4,222.9 168.8,222.7 169.2,222.4 169.6,222.2 170,222 170.4,221.7 170.8,221.5 171.2,221.2 171.5,221 171.9,220.8 172.3,220.5 172.7,220.3 173.1,220.1 173.5,219.8 173.9,219.6 174.3,219.4 174.7,219.1 175.1,218.9 175.5,218.7 175.9,218.5 176.3,218.2 176.7,218 177.1,217.8 177.5,217.5 177.9,217.3 178.3,217.1 178.7,216.8 179.1,216.6 179.5,216.4 179.9,216.2 180.3,215.9 180.7,215.7 181.1,215.5 181.5,215.3 181.9,215 182.3,214.8 182.7,214.6 183.1,214.4 183.5,214.1 183.9,213.9 184.3,213.7 184.7,213.5 185.1,213.3 185.5,213 185.9,212.8 186.3,212.6 186.7,212.4 187.1,212.2 187.5,211.9 187.9,211.7 188.3,211.5 188.7,211.3 189.1,211.1 189.5,210.8 189.9,210.6 190.3,210.4 190.7,210.2 191.1,210 191.5,209.8 191.9,209.5 192.3,209.3 192.7,209.1 193.1,208.9 193.5,208.7 193.9,208.5 194.3,208.3 194.7,208 195,207.8 195.4,207.6 195.8,207.4 196.2,207.2 196.6,207 197,206.8 197.4,206.6 197.8,206.4 198.2,206.1 198.6,205.9 199,205.7 199.4,205.5 199.8,205.3 200.2,205.1 200.6,204.9 201,204.7 201.4,204.5 201.8,204.3 202.2,204.1 202.6,203.9 203,203.6 203.4,203.4 203.8,203.2 204.2,203 204.6,202.8 205,202.6 205.4,202.4 205.8,202.2 206.2,202 206.6,201.8 207,201.6 207.4,201.4 207.8,201.2 208.2,201 208.6,200.8 209,200.6 209.4,200.4 209.8,200.2 210.2,200 210.6,199.8 211,199.6 211.4,199.4 211.8,199.2 212.2,199 212.6,198.8 213,198.6 213.4,198.4 213.8,198.2 214.2,198 214.6,197.8 215,197.6 215.4,197.4 215.8,197.2 216.2,197 216.6,196.8 217,196.6 217.4,196.4 217.8,196.2 218.1,196 218.5,195.8 218.9,195.6 219.3,195.4 219.7,195.2 220.1,195 220.5,194.8 220.9,194.6 221.3,194.4 221.7,194.3 222.1,194.1 222.5,193.9 222.9,193.7 223.3,193.5 223.7,193.3 224.1,193.1 224.5,192.9 224.9,192.7 225.3,192.5 225.7,192.3 226.1,192.1 226.5,191.9 226.9,191.8 227.3,191.6 227.7,191.4 228.1,191.2 228.5,191 228.9,190.8 229.3,190.6 229.7,190.4 230.1,190.2 230.5,190.1 230.9,189.9 231.3,189.7 231.7,189.5 232.1,189.3 232.5,189.1 232.9,188.9 233.3,188.7 233.7,188.6 234.1,188.4 234.5,188.2 234.9,188 235.3,187.8 235.7,187.6 236.1,187.4 236.5,187.3 236.9,187.1 237.3,186.9 237.7,186.7 238.1,186.5 238.5,186.3 238.9,186.1 239.3,186 239.7,185.8 240.1,185.6 240.5,185.4 240.9,185.2 241.3,185 241.6,184.9 242,184.7 242.4,184.5 242.8,184.3 243.2,184.1 243.6,184 244,183.8 244.4,183.6 244.8,183.4 245.2,183.2 245.6,183.1 246,182.9 246.4,182.7 246.8,182.5 247.2,182.3 247.6,182.2 248,182 248.4,181.8 248.8,181.6 249.2,181.4 249.6,181.3 250,181.1 250.4,180.9 250.8,180.7 251.2,180.5 251.6,180.4 252,180.2 252.4,180 252.8,179.8 253.2,179.7 253.6,179.5 254,179.3 254.4,179.1 254.8,179 255.2,178.8 255.6,178.6 256,178.4 256.4,178.3 256.8,178.1 257.2,177.9 257.6,177.7 258,177.6 258.4,177.4 258.8,177.2 259.2,177 259.6,176.9 260,176.7 260.4,176.5 260.8,176.3 261.2,176.2 261.6,176 262,175.8 262.4,175.7 262.8,175.5 263.2,175.3 263.6,175.1 264,175 264.4,174.8 264.8,174.6 265.1,174.4 265.5,174.3 265.9,174.1 266.3,173.9 266.7,173.8 267.1,173.6 267.5,173.4 267.9,173.3 268.3,173.1 268.7,172.9 269.1,172.7 269.5,172.6 269.9,172.4 270.3,172.2 270.7,172.1 271.1,171.9 271.5,171.7 271.9,171.6 272.3,171.4 272.7,171.2 273.1,171.1 273.5,170.9 273.9,170.7 274.3,170.6 274.7,170.4 275.1,170.2 275.5,170.1 275.9,169.9 276.3,169.7 276.7,169.6 277.1,169.4 277.5,169.2 277.9,169.1 278.3,168.9 278.7,168.7 279.1,168.6 279.5,168.4 279.9,168.2 280.3,168.1 280.7,167.9 281.1,167.7 281.5,167.6 281.9,167.4 282.3,167.2 282.7,167.1 283.1,166.9 283.5,166.7 283.9,166.6 284.3,166.4 284.7,166.3 285.1,166.1 285.5,165.9 285.9,165.8 286.3,165.6 286.7,165.4 287.1,165.3 287.5,165.1 287.9,165 288.3,164.8 288.6,164.6 289,164.5 289.4,164.3 289.8,164.1 290.2,164 290.6,163.8 291,163.7 291.4,163.5 291.8,163.3 292.2,163.2 292.6,163 293,162.9 293.4,162.7 293.8,162.5 294.2,162.4 294.6,162.2 295,162.1 295.4,161.9 295.8,161.7 296.2,161.6 296.6,161.4 297,161.3 297.4,161.1 297.8,160.9 298.2,160.8 298.6,160.6 299,160.5 299.4,160.3 299.8,160.2 300.2,160 300.6,159.8 301,159.7 301.4,159.5 301.8,159.4 302.2,159.2 302.6,159 303,158.9 303.4,158.7 303.8,158.6 304.2,158.4 304.6,158.3 305,158.1 305.4,158 305.8,157.8 306.2,157.6 306.6,157.5 307,157.3 307.4,157.2 307.8,157 308.2,156.9 308.6,156.7 309,156.6 309.4,156.4 309.8,156.2 310.2,156.1 310.6,155.9 311,155.8 311.4,155.6 311.8,155.5 312.1,155.3 312.5,155.2 312.9,155 313.3,154.9 313.7,154.7 314.1,154.5 314.5,154.4 314.9,154.2 315.3,154.1 315.7,153.9 316.1,153.8 316.5,153.6 316.9,153.5 317.3,153.3 317.7,153.2 318.1,153 318.5,152.9 318.9,152.7 319.3,152.6 319.7,152.4 320.1,152.3 320.5,152.1 320.9,152 321.3,151.8 321.7,151.7 322.1,151.5 322.5,151.4 322.9,151.2 323.3,151.1 323.7,150.9 324.1,150.8 324.5,150.6 324.9,150.5 325.3,150.3 325.7,150.2 326.1,150 326.5,149.9 326.9,149.7 327.3,149.6 327.7,149.4 328.1,149.3 328.5,149.1 328.9,149 329.3,148.8 329.7,148.7 330.1,148.5 330.5,148.4 330.9,148.2 331.3,148.1 331.7,147.9 332.1,147.8 332.5,147.6 332.9,147.5 333.3,147.3 333.7,147.2 334.1,147 334.5,146.9 334.9,146.7 335.2,146.6 335.6,146.4 336,146.3 336.4,146.1 336.8,146 337.2,145.9 337.6,145.7 338,145.6 338.4,145.4 338.8,145.3 339.2,145.1 339.6,145 340,144.8 340.4,144.7 340.8,144.5 341.2,144.4 341.6,144.2 342,144.1 342.4,144 342.8,143.8 343.2,143.7 343.6,143.5 344,143.4 344.4,143.2 344.8,143.1 345.2,142.9 345.6,142.8 346,142.7 346.4,142.5 346.8,142.4 347.2,142.2 347.6,142.1 348,141.9 348.4,141.8 348.8,141.6 349.2,141.5 349.6,141.4 350,141.2 350.4,141.1 350.8,140.9 351.2,140.8 351.6,140.6 352,140.5 352.4,140.4 352.8,140.2 353.2,140.1 353.6,139.9 354,139.8 354.4,139.6 354.8,139.5 355.2,139.4 355.6,139.2 356,139.1 356.4,138.9 356.8,138.8 357.2,138.6 357.6,138.5 358,138.4 358.4,138.2 358.7,138.1 359.1,137.9 359.5,137.8 359.9,137.7 360.3,137.5 360.7,137.4 361.1,137.2 361.5,137.1 361.9,137 362.3,136.8 362.7,136.7 363.1,136.5 363.5,136.4 363.9,136.3 364.3,136.1 364.7,136 365.1,135.8 365.5,135.7 365.9,135.6 366.3,135.4 366.7,135.3 367.1,135.1 367.5,135 367.9,134.9 368.3,134.7 368.7,134.6 369.1,134.4 369.5,134.3 369.9,134.2 370.3,134 370.7,133.9 371.1,133.7 371.5,133.6 371.9,133.5 372.3,133.3 372.7,133.2 373.1,133.1 373.5,132.9 373.9,132.8 374.3,132.6 374.7,132.5 375.1,132.4 375.5,132.2 375.9,132.1 376.3,132 376.7,131.8 377.1,131.7 377.5,131.5 377.9,131.4 378.3,131.3 378.7,131.1 379.1,131 379.5,130.9 379.9,130.7 380.3,130.6 380.7,130.5 381.1,130.3 381.5,130.2 381.9,130 382.2,129.9 382.6,129.8 383,129.6 383.4,129.5 383.8,129.4 384.2,129.2 384.6,129.1 385,129 385.4,128.8 385.8,128.7 386.2,128.6 386.6,128.4 387,128.3 387.4,128.2 387.8,128 388.2,127.9 388.6,127.7 389,127.6 389.4,127.5 389.8,127.3 390.2,127.2 390.6,127.1 391,126.9 391.4,126.8 391.8,126.7 392.2,126.5 392.6,126.4 393,126.3 393.4,126.1 393.8,126 394.2,125.9 394.6,125.7 395,125.6 395.4,125.5 395.8,125.3 396.2,125.2 396.6,125.1 397,124.9 397.4,124.8 397.8,124.7 398.2,124.5 398.6,124.4 399,124.3 399.4,124.1 399.8,124 400.2,123.9 400.6,123.8 401,123.6 401.4,123.5 401.8,123.4 402.2,123.2 402.6,123.1 403,123 403.4,122.8 403.8,122.7 404.2,122.6 404.6,122.4 405,122.3 405.4,122.2 405.7,122 406.1,121.9 406.5,121.8 406.9,121.6 407.3,121.5 407.7,121.4 408.1,121.3 408.5,121.1 408.9,121 409.3,120.9 409.7,120.7 410.1,120.6 410.5,120.5 410.9,120.3 411.3,120.2 411.7,120.1 412.1,120 412.5,119.8 412.9,119.7 413.3,119.6 413.7,119.4 414.1,119.3 414.5,119.2 414.9,119 415.3,118.9 415.7,118.8 416.1,118.7 416.5,118.5 416.9,118.4 417.3,118.3 417.7,118.1 418.1,118 418.5,117.9 418.9,117.8 419.3,117.6 419.7,117.5 420.1,117.4 420.5,117.2 420.9,117.1 421.3,117 421.7,116.9 422.1,116.7 422.5,116.6 422.9,116.5 423.3,116.3 423.7,116.2 424.1,116.1 424.5,116 424.9,115.8 425.3,115.7 425.7,115.6 426.1,115.5 426.5,115.3 426.9,115.2 427.3,115.1 427.7,114.9 428.1,114.8 428.5,114.7 428.8,114.6 429.2,114.4 429.6,114.3 430,114.2 430.4,114.1 430.8,113.9 431.2,113.8 431.6,113.7 432,113.6 432.4,113.4 432.8,113.3 433.2,113.2 433.6,113 434,112.9 434.4,112.8 434.8,112.7 435.2,112.5 435.6,112.4 436,112.3 436.4,112.2 436.8,112 437.2,111.9 437.6,111.8 438,111.7 438.4,111.5 438.8,111.4 439.2,111.3 439.6,111.2 440,111 440.4,110.9 440.8,110.8 441.2,110.7 441.6,110.5 442,110.4 442.4,110.3 442.8,110.2 443.2,110 443.6,109.9 444,109.8 444.4,109.7 444.8,109.5 445.2,109.4 445.6,109.3 446,109.2 446.4,109 446.8,108.9 447.2,108.8 447.6,108.7 448,108.6 448.4,108.4 448.8,108.3 449.2,108.2 449.6,108.1 450,107.9 450.4,107.8 450.8,107.7 451.2,107.6 451.6,107.4 452,107.3 452.3,107.2 452.7,107.1 453.1,107 453.5,106.8 453.9,106.7 454.3,106.6 454.7,106.5 455.1,106.3 455.5,106.2 455.9,106.1 456.3,106 456.7,105.8 457.1,105.7 457.5,105.6 457.9,105.5 458.3,105.4 458.7,105.2 459.1,105.1 459.5,105 459.9,104.9 460.3,104.8 460.7,104.6 461.1,104.5 461.5,104.4 461.9,104.3 462.3,104.1 462.7,104 463.1,103.9 463.5,103.8 463.9,103.7 " />
</g>

<g fill="none" stroke="#000000" stroke-opacity="1" stroke-width="1" stroke-linecap="square" stroke-linejoin="bevel" transform="matrix(1.004,0,0,1.004,0,0)"
font-family="Ubuntu" font-size="16" font-weight="400" font-style="normal" 
>
</g>

<g fill="none" stroke="#000000" stroke-opacity="1" stroke-width="1" stroke-linecap="square" stroke-linejoin="bevel" transform="matrix(1.004,0,0,1.004,179.716,392.062)"
font-family="Ubuntu" font-size="16" font-weight="400" font-style="normal" 
>
</g>

<g fill="none" stroke="#000000" stroke-opacity="1" stroke-width="1" stroke-linecap="square" stroke-linejoin="bevel" transform="matrix(1.004,0,0,1.004,179.716,392.062)"
font-family="Ubuntu" font-size="16" font-weight="400" font-style="normal" 
>
</g>

<g fill="none" stroke="#000000" stroke-opacity="1" stroke-width="1" stroke-linecap="square" stroke-linejoin="bevel" transform="matrix(1.004,0,0,1.004,179.716,392.062)"
font-family="Ubuntu" font-size="16" font-weight="400" font-style="normal" 
>
</g>

<g fill="none" stroke="#000000" stroke-opacity="1" stroke-width="1" stroke-linecap="square" stroke-linejoin="bevel" transform="matrix(1.004,0,0,1.004,179.716,392.062)"
font-family="Ubuntu" font-size="16" font-weight="400" font-style="normal" 
>
<text fill="#000000" fill-opacity="1" stroke="none" xml:space="preserve" x="4" y="22" font-family="Sans" font-size="14" font-weight="400" font-style="normal" 
 >inverseCdf(x, 4, 6)</text>
</g>

<g fill="none" stroke="#000000" stroke-opacity="1" stroke-width="1" stroke-linecap="square" stroke-linejoin="bevel" transform="matrix(1.004,0,0,1.004,179.716,392.062)"
font-family="Ubuntu" font-size="16" font-weight="400" font-style="normal" 
>
</g>

<g fill="none" stroke="#000000" stroke-opacity="1" stroke-width="1" stroke-linecap="square" stroke-linejoin="bevel" transform="matrix(1,0,0,1,0,0)"
font-family="Ubuntu" font-size="16" font-weight="400" font-style="normal" 
>
</g>

<g fill="none" stroke="#000000" stroke-opacity="1" stroke-width="1" stroke-linecap="square" stroke-linejoin="bevel" transform="matrix(1.004,0,0,1.004,179.716,392.062)"
font-family="Ubuntu" font-size="16" font-weight="400" font-style="normal" 
>
</g>

<g fill="none" stroke="#000000" stroke-opacity="1" stroke-width="1" stroke-linecap="square" stroke-linejoin="bevel" transform="matrix(1.004,0,0,1.004,179.716,392.062)"
font-family="Ubuntu" font-size="16" font-weight="400" font-style="normal" 
>
</g>

<g fill="none" stroke="#000000" stroke-opacity="1" stroke-width="1" stroke-linecap="square" stroke-linejoin="bevel" transform="matrix(1.004,0,0,1.004,179.716,392.062)"
font-family="Ubuntu" font-size="16" font-weight="400" font-style="normal" 
>
</g>

<g fill="none" stroke="#000000" stroke-opacity="1" stroke-width="1" stroke-linecap="square" stroke-linejoin="bevel" transform="matrix(1.004,0,0,1.004,0,0)"
font-family="Ubuntu" font-size="16" font-weight="400" font-style="normal" 
>
</g>

<g fill="none" stroke="#c77e00" stroke-opacity="1" stroke-width="3" stroke-linecap="round" stroke-linejoin="round" transform="matrix(1.004,0,0,1.004,0,0)"
font-family="Ubuntu" font-size="16" font-weight="400" font-style="normal" 
>
<path vector-effect="none" fill-rule="evenodd" d="M382.5,405.5 L439.5,405.5"/>
</g>

<g fill="none" stroke="#000000" stroke-opacity="1" stroke-width="1" stroke-linecap="square" stroke-linejoin="bevel" transform="matrix(1.004,0,0,1.004,0,0)"
font-family="Ubuntu" font-size="16" font-weight="400" font-style="normal" 
>
</g>

<g fill="none" stroke="#000000" stroke-opacity="1" stroke-width="1" stroke-linecap="square" stroke-linejoin="bevel" transform="matrix(1.004,0,0,1.004,0,0)"
font-family="Ubuntu" font-size="16" font-weight="400" font-style="normal" 
>
</g>

<g fill="none" stroke="#000000" stroke-opacity="1" stroke-width="1" stroke-linecap="square" stroke-linejoin="bevel" transform="matrix(1.004,0,0,1.004,0,0)"
font-family="Ubuntu" font-size="16" font-weight="400" font-style="normal" 
>
</g>

<g fill="none" stroke="#000000" stroke-opacity="1" stroke-width="1" stroke-linecap="square" stroke-linejoin="bevel" transform="matrix(1.004,0,0,1.004,0,0)"
font-family="Ubuntu" font-size="16" font-weight="400" font-style="normal" 
>
</g>

<g fill="none" stroke="#c77e00" stroke-opacity="1" stroke-width="3" stroke-linecap="round" stroke-linejoin="round" transform="matrix(1.004,0,0,1.004,0,0)"
font-family="Ubuntu" font-size="16" font-weight="400" font-style="normal" 
>
<polyline fill="none" vector-effect="none" points="66,265 66,265 66.4,262.4 66.8,261.4 67.2,260.6 67.6,259.9 68,259.3 68.4,258.7 68.8,258.2 69.2,257.8 69.6,257.3 70,256.9 70.4,256.5 70.8,256.1 71.2,255.8 71.6,255.4 72,255.1 72.4,254.8 72.8,254.5 73.2,254.2 73.6,253.9 74,253.6 74.4,253.3 74.8,253 75.2,252.7 75.6,252.5 76,252.2 76.4,252 76.8,251.7 77.2,251.5 77.6,251.2 77.9,251 78.3,250.8 78.7,250.5 79.1,250.3 79.5,250.1 79.9,249.9 80.3,249.7 80.7,249.5 81.1,249.2 81.5,249 81.9,248.8 82.3,248.6 82.7,248.4 83.1,248.2 83.5,248.1 83.9,247.9 84.3,247.7 84.7,247.5 85.1,247.3 85.5,247.1 85.9,246.9 86.3,246.8 86.7,246.6 87.1,246.4 87.5,246.2 87.9,246.1 88.3,245.9 88.7,245.7 89.1,245.5 89.5,245.4 89.9,245.2 90.3,245 90.7,244.9 91.1,244.7 91.5,244.6 91.9,244.4 92.3,244.2 92.7,244.1 93.1,243.9 93.5,243.8 93.9,243.6 94.3,243.5 94.7,243.3 95.1,243.2 95.5,243 95.9,242.9 96.3,242.7 96.7,242.6 97.1,242.4 97.5,242.3 97.9,242.2 98.3,242 98.7,241.9 99.1,241.7 99.5,241.6 99.9,241.5 100.3,241.3 100.7,241.2 101.1,241 101.4,240.9 101.8,240.8 102.2,240.6 102.6,240.5 103,240.4 103.4,240.2 103.8,240.1 104.2,240 104.6,239.8 105,239.7 105.4,239.6 105.8,239.5 106.2,239.3 106.6,239.2 107,239.1 107.4,239 107.8,238.8 108.2,238.7 108.6,238.6 109,238.5 109.4,238.3 109.8,238.2 110.2,238.1 110.6,238 111,237.9 111.4,237.7 111.8,237.6 112.2,237.5 112.6,237.4 113,237.3 113.4,237.1 113.8,237 114.2,236.9 114.6,236.8 115,236.7 115.4,236.6 115.8,236.4 116.2,236.3 116.6,236.2 117,236.1 117.4,236 117.8,235.9 118.2,235.8 118.6,235.7 119,235.5 119.4,235.4 119.8,235.3 120.2,235.2 120.6,235.1 121,235 121.4,234.9 121.8,234.8 122.2,234.7 122.6,234.6 123,234.5 123.4,234.4 123.8,234.3 124.2,234.1 124.5,234 124.9,233.9 125.3,233.8 125.7,233.7 126.1,233.6 126.5,233.5 126.9,233.4 127.3,233.3 127.7,233.2 128.1,233.1 128.5,233 128.9,232.9 129.3,232.8 129.7,232.7 130.1,232.6 130.5,232.5 130.9,232.4 131.3,232.3 131.7,232.2 132.1,232.1 132.5,232 132.9,231.9 133.3,231.8 133.7,231.7 134.1,231.6 134.5,231.5 134.9,231.4 135.3,231.3 135.7,231.2 136.1,231.1 136.5,231 136.9,230.9 137.3,230.8 137.7,230.7 138.1,230.6 138.5,230.6 138.9,230.5 139.3,230.4 139.7,230.3 140.1,230.2 140.5,230.1 140.9,230 141.3,229.9 141.7,229.8 142.1,229.7 142.5,229.6 142.9,229.5 143.3,229.4 143.7,229.3 144.1,229.3 144.5,229.2 144.9,229.1 145.3,229 145.7,228.9 146.1,228.8 146.5,228.7 146.9,228.6 147.3,228.5 147.7,228.4 148,228.4 148.4,228.3 148.8,228.2 149.2,228.1 149.6,228 150,227.9 150.4,227.8 150.8,227.7 151.2,227.6 151.6,227.6 152,227.5 152.4,227.4 152.8,227.3 153.2,227.2 153.6,227.1 154,227 154.4,227 154.8,226.9 155.2,226.8 155.6,226.7 156,226.6 156.4,226.5 156.8,226.4 157.2,226.4 157.6,226.3 158,226.2 158.4,226.1 158.8,226 159.2,225.9 159.6,225.9 160,225.8 160.4,225.7 160.8,225.6 161.2,225.5 161.6,225.4 162,225.4 162.4,225.3 162.8,225.2 163.2,225.1 163.6,225 164,225 164.4,224.9 164.8,224.8 165.2,224.7 165.6,224.6 166,224.5 166.4,224.5 166.8,224.4 167.2,224.3 167.6,224.2 168,224.1 168.4,224.1 168.8,224 169.2,223.9 169.6,223.8 170,223.8 170.4,223.7 170.8,223.6 171.2,223.5 171.5,223.4 171.9,223.4 172.3,223.3 172.7,223.2 173.1,223.1 173.5,223 173.9,223 174.3,222.9 174.7,222.8 175.1,222.7 175.5,222.7 175.9,222.6 176.3,222.5 176.7,222.4 177.1,222.4 177.5,222.3 177.9,222.2 178.3,222.1 178.7,222 179.1,222 179.5,221.9 179.9,221.8 180.3,221.7 180.7,221.7 181.1,221.6 181.5,221.5 181.9,221.4 182.3,221.4 182.7,221.3 183.1,221.2 183.5,221.1 183.9,221.1 184.3,221 184.7,220.9 185.1,220.9 185.5,220.8 185.9,220.7 186.3,220.6 186.7,220.6 187.1,220.5 187.5,220.4 187.9,220.3 188.3,220.3 188.7,220.2 189.1,220.1 189.5,220 189.9,220 190.3,219.9 190.7,219.8 191.1,219.8 191.5,219.7 191.9,219.6 192.3,219.5 192.7,219.5 193.1,219.4 193.5,219.3 193.9,219.3 194.3,219.2 194.7,219.1 195,219 195.4,219 195.8,218.9 196.2,218.8 196.6,218.8 197,218.7 197.4,218.6 197.8,218.6 198.2,218.5 198.6,218.4 199,218.3 199.4,218.3 199.8,218.2 200.2,218.1 200.6,218.1 201,218 201.4,217.9 201.8,217.9 202.2,217.8 202.6,217.7 203,217.6 203.4,217.6 203.8,217.5 204.2,217.4 204.6,217.4 205,217.3 205.4,217.2 205.8,217.2 206.2,217.1 206.6,217 207,217 207.4,216.9 207.8,216.8 208.2,216.8 208.6,216.7 209,216.6 209.4,216.6 209.8,216.5 210.2,216.4 210.6,216.4 211,216.3 211.4,216.2 211.8,216.2 212.2,216.1 212.6,216 213,216 213.4,215.9 213.8,215.8 214.2,215.8 214.6,215.7 215,215.6 215.4,215.6 215.8,215.5 216.2,215.4 216.6,215.4 217,215.3 217.4,215.2 217.8,215.2 218.1,215.1 218.5,215 218.9,215 219.3,214.9 219.7,214.8 220.1,214.8 220.5,214.7 220.9,214.6 221.3,214.6 221.7,214.5 222.1,214.5 222.5,214.4 222.9,214.3 223.3,214.3 223.7,214.2 224.1,214.1 224.5,214.1 224.9,214 225.3,213.9 225.7,213.9 226.1,213.8 226.5,213.7 226.9,213.7 227.3,213.6 227.7,213.6 228.1,213.5 228.5,213.4 228.9,213.4 229.3,213.3 229.7,213.2 230.1,213.2 230.5,213.1 230.9,213.1 231.3,213 231.7,212.9 232.1,212.9 232.5,212.8 232.9,212.7 233.3,212.7 233.7,212.6 234.1,212.6 234.5,212.5 234.9,212.4 235.3,212.4 235.7,212.3 236.1,212.2 236.5,212.2 236.9,212.1 237.3,212.1 237.7,212 238.1,211.9 238.5,211.9 238.9,211.8 239.3,211.8 239.7,211.7 240.1,211.6 240.5,211.6 240.9,211.5 241.3,211.4 241.6,211.4 242,211.3 242.4,211.3 242.8,211.2 243.2,211.1 243.6,211.1 244,211 244.4,211 244.8,210.9 245.2,210.8 245.6,210.8 246,210.7 246.4,210.7 246.8,210.6 247.2,210.5 247.6,210.5 248,210.4 248.4,210.4 248.8,210.3 249.2,210.2 249.6,210.2 250,210.1 250.4,210.1 250.8,210 251.2,209.9 251.6,209.9 252,209.8 252.4,209.8 252.8,209.7 253.2,209.7 253.6,209.6 254,209.5 254.4,209.5 254.8,209.4 255.2,209.4 255.6,209.3 256,209.2 256.4,209.2 256.8,209.1 257.2,209.1 257.6,209 258,209 258.4,208.9 258.8,208.8 259.2,208.8 259.6,208.7 260,208.7 260.4,208.6 260.8,208.5 261.2,208.5 261.6,208.4 262,208.4 262.4,208.3 262.8,208.3 263.2,208.2 263.6,208.1 264,208.1 264.4,208 264.8,208 265.1,207.9 265.5,207.9 265.9,207.8 266.3,207.7 266.7,207.7 267.1,207.6 267.5,207.6 267.9,207.5 268.3,207.5 268.7,207.4 269.1,207.3 269.5,207.3 269.9,207.2 270.3,207.2 270.7,207.1 271.1,207.1 271.5,207 271.9,207 272.3,206.9 272.7,206.8 273.1,206.8 273.5,206.7 273.9,206.7 274.3,206.6 274.7,206.6 275.1,206.5 275.5,206.5 275.9,206.4 276.3,206.3 276.7,206.3 277.1,206.2 277.5,206.2 277.9,206.1 278.3,206.1 278.7,206 279.1,206 279.5,205.9 279.9,205.8 280.3,205.8 280.7,205.7 281.1,205.7 281.5,205.6 281.9,205.6 282.3,205.5 282.7,205.5 283.1,205.4 283.5,205.3 283.9,205.3 284.3,205.2 284.7,205.2 285.1,205.1 285.5,205.1 285.9,205 286.3,205 286.7,204.9 287.1,204.9 287.5,204.8 287.9,204.8 288.3,204.7 288.6,204.6 289,204.6 289.4,204.5 289.8,204.5 290.2,204.4 290.6,204.4 291,204.3 291.4,204.3 291.8,204.2 292.2,204.2 292.6,204.1 293,204.1 293.4,204 293.8,203.9 294.2,203.9 294.6,203.8 295,203.8 295.4,203.7 295.8,203.7 296.2,203.6 296.6,203.6 297,203.5 297.4,203.5 297.8,203.4 298.2,203.4 298.6,203.3 299,203.3 299.4,203.2 299.8,203.2 300.2,203.1 300.6,203 301,203 301.4,202.9 301.8,202.9 302.2,202.8 302.6,202.8 303,202.7 303.4,202.7 303.8,202.6 304.2,202.6 304.6,202.5 305,202.5 305.4,202.4 305.8,202.4 306.2,202.3 306.6,202.3 307,202.2 307.4,202.2 307.8,202.1 308.2,202.1 308.6,202 309,202 309.4,201.9 309.8,201.8 310.2,201.8 310.6,201.7 311,201.7 311.4,201.6 311.8,201.6 312.1,201.5 312.5,201.5 312.9,201.4 313.3,201.4 313.7,201.3 314.1,201.3 314.5,201.2 314.9,201.2 315.3,201.1 315.7,201.1 316.1,201 316.5,201 316.9,200.9 317.3,200.9 317.7,200.8 318.1,200.8 318.5,200.7 318.9,200.7 319.3,200.6 319.7,200.6 320.1,200.5 320.5,200.5 320.9,200.4 321.3,200.4 321.7,200.3 322.1,200.3 322.5,200.2 322.9,200.2 323.3,200.1 323.7,200.1 324.1,200 324.5,200 324.9,199.9 325.3,199.9 325.7,199.8 326.1,199.8 326.5,199.7 326.9,199.7 327.3,199.6 327.7,199.6 328.1,199.5 328.5,199.5 328.9,199.4 329.3,199.4 329.7,199.3 330.1,199.3 330.5,199.2 330.9,199.2 331.3,199.1 331.7,199.1 332.1,199 332.5,199 332.9,198.9 333.3,198.9 333.7,198.8 334.1,198.8 334.5,198.7 334.9,198.7 335.2,198.6 335.6,198.6 336,198.5 336.4,198.5 336.8,198.4 337.2,198.4 337.6,198.3 338,198.3 338.4,198.2 338.8,198.2 339.2,198.1 339.6,198.1 340,198 340.4,198 340.8,197.9 341.2,197.9 341.6,197.8 342,197.8 342.4,197.8 342.8,197.7 343.2,197.7 343.6,197.6 344,197.6 344.4,197.5 344.8,197.5 345.2,197.4 345.6,197.4 346,197.3 346.4,197.3 346.8,197.2 347.2,197.2 347.6,197.1 348,197.1 348.4,197 348.8,197 349.2,196.9 349.6,196.9 350,196.8 350.4,196.8 350.8,196.7 351.2,196.7 351.6,196.6 352,196.6 352.4,196.6 352.8,196.5 353.2,196.5 353.6,196.4 354,196.4 354.4,196.3 354.8,196.3 355.2,196.2 355.6,196.2 356,196.1 356.4,196.1 356.8,196 357.2,196 357.6,195.9 358,195.9 358.4,195.8 358.7,195.8 359.1,195.7 359.5,195.7 359.9,195.7 360.3,195.6 360.7,195.6 361.1,195.5 361.5,195.5 361.9,195.4 362.3,195.4 362.7,195.3 363.1,195.3 363.5,195.2 363.9,195.2 364.3,195.1 364.7,195.1 365.1,195 365.5,195 365.9,195 366.3,194.9 366.7,194.9 367.1,194.8 367.5,194.8 367.9,194.7 368.3,194.7 368.7,194.6 369.1,194.6 369.5,194.5 369.9,194.5 370.3,194.4 370.7,194.4 371.1,194.3 371.5,194.3 371.9,194.3 372.3,194.2 372.7,194.2 373.1,194.1 373.5,194.1 373.9,194 374.3,194 374.7,193.9 375.1,193.9 375.5,193.8 375.9,193.8 376.3,193.8 376.7,193.7 377.1,193.7 377.5,193.6 377.9,193.6 378.3,193.5 378.7,193.5 379.1,193.4 379.5,193.4 379.9,193.3 380.3,193.3 380.7,193.3 381.1,193.2 381.5,193.2 381.9,193.1 382.2,193.1 382.6,193 383,193 383.4,192.9 383.8,192.9 384.2,192.8 384.6,192.8 385,192.8 385.4,192.7 385.8,192.7 386.2,192.6 386.6,192.6 387,192.5 387.4,192.5 387.8,192.4 388.2,192.4 388.6,192.3 389,192.3 389.4,192.3 389.8,192.2 390.2,192.2 390.6,192.1 391,192.1 391.4,192 391.8,192 392.2,191.9 392.6,191.9 393,191.9 393.4,191.8 393.8,191.8 394.2,191.7 394.6,191.7 395,191.6 395.4,191.6 395.8,191.5 396.2,191.5 396.6,191.5 397,191.4 397.4,191.4 397.8,191.3 398.2,191.3 398.6,191.2 399,191.2 399.4,191.1 399.8,191.1 400.2,191.1 400.6,191 401,191 401.4,190.9 401.8,190.9 402.2,190.8 402.6,190.8 403,190.8 403.4,190.7 403.8,190.7 404.2,190.6 404.6,190.6 405,190.5 405.4,190.5 405.7,190.4 406.1,190.4 406.5,190.4 406.9,190.3 407.3,190.3 407.7,190.2 408.1,190.2 408.5,190.1 408.9,190.1 409.3,190.1 409.7,190 410.1,190 410.5,189.9 410.9,189.9 411.3,189.8 411.7,189.8 412.1,189.8 412.5,189.7 412.9,189.7 413.3,189.6 413.7,189.6 414.1,189.5 414.5,189.5 414.9,189.4 415.3,189.4 415.7,189.4 416.1,189.3 416.5,189.3 416.9,189.2 417.3,189.2 417.7,189.1 418.1,189.1 418.5,189.1 418.9,189 419.3,189 419.7,188.9 420.1,188.9 420.5,188.8 420.9,188.8 421.3,188.8 421.7,188.7 422.1,188.7 422.5,188.6 422.9,188.6 423.3,188.5 423.7,188.5 424.1,188.5 424.5,188.4 424.9,188.4 425.3,188.3 425.7,188.3 426.1,188.3 426.5,188.2 426.9,188.2 427.3,188.1 427.7,188.1 428.1,188 428.5,188 428.8,188 429.2,187.9 429.6,187.9 430,187.8 430.4,187.8 430.8,187.7 431.2,187.7 431.6,187.7 432,187.6 432.4,187.6 432.8,187.5 433.2,187.5 433.6,187.4 434,187.4 434.4,187.4 434.8,187.3 435.2,187.3 435.6,187.2 436,187.2 436.4,187.2 436.8,187.1 437.2,187.1 437.6,187 438,187 438.4,186.9 438.8,186.9 439.2,186.9 439.6,186.8 440,186.8 440.4,186.7 440.8,186.7 441.2,186.7 441.6,186.6 442,186.6 442.4,186.5 442.8,186.5 443.2,186.4 443.6,186.4 444,186.4 444.4,186.3 444.8,186.3 445.2,186.2 445.6,186.2 446,186.2 446.4,186.1 446.8,186.1 447.2,186 447.6,186 448,186 448.4,185.9 448.8,185.9 449.2,185.8 449.6,185.8 450,185.7 450.4,185.7 450.8,185.7 451.2,185.6 451.6,185.6 452,185.5 452.3,185.5 452.7,185.5 453.1,185.4 453.5,185.4 453.9,185.3 454.3,185.3 454.7,185.3 455.1,185.2 455.5,185.2 455.9,185.1 456.3,185.1 456.7,185 457.1,185 457.5,185 457.9,184.9 458.3,184.9 458.7,184.8 459.1,184.8 459.5,184.8 459.9,184.7 460.3,184.7 460.7,184.6 461.1,184.6 461.5,184.6 461.9,184.5 462.3,184.5 462.7,184.4 463.1,184.4 463.5,184.4 463.9,184.3 " />
</g>

<g fill="none" stroke="#000000" stroke-opacity="1" stroke-width="1" stroke-linecap="square" stroke-linejoin="bevel" transform="matrix(1.004,0,0,1.004,0,0)"
font-family="Ubuntu" font-size="16" font-weight="400" font-style="normal" 
>
</g>

<g fill="none" stroke="#000000" stroke-opacity="1" stroke-width="1" stroke-linecap="square" stroke-linejoin="bevel" transform="matrix(1.004,0,0,1.004,0,0)"
font-family="Ubuntu" font-size="16" font-weight="400" font-style="normal" 
>
</g>

<g fill="none" stroke="#000000" stroke-opacity="1" stroke-width="1" stroke-linecap="round" stroke-linejoin="round" transform="matrix(1.004,0,0,1.004,0,0)"
font-family="Ubuntu" font-size="16" font-weight="400" font-style="normal" 
>
<polyline fill="none" vector-effect="none" points="66.5,23.5 66.5,426.5 463.5,426.5 463.5,23.5 66.5,23.5 " />
</g>

<g fill="none" stroke="#000000" stroke-opacity="1" stroke-width="1" stroke-linecap="square" stroke-linejoin="bevel" transform="matrix(1.004,0,0,1.004,0,0)"
font-family="Ubuntu" font-size="16" font-weight="400" font-style="normal" 
>
</g>

<g fill="none" stroke="#000000" stroke-opacity="1" stroke-width="1" stroke-linecap="square" stroke-linejoin="bevel" transform="matrix(1,0,0,1,0,0)"
font-family="Ubuntu" font-size="16" font-weight="400" font-style="normal" 
>
</g>
</g>
</svg>
